<?xml version="1.0" encoding="UTF-8"?> <svg xmlns="http://www.w3.org/2000/svg" viewBox="0 0 1044.31 687.86"><defs><style>.cls-1{fill:#548cdd;}.cls-2{fill:#f6f;}.cls-3{fill:#fff;}.cls-4{fill:#020002;}</style></defs><g id="Layer_1" data-name="Layer 1"><path class="cls-1" d="M802.11,34.37c24.73,1.88,49.48,2.71,74.28,3.34,24.63.63,49.37,1.59,74,.28,2.6-.14,5.72-6.66,2.22-7-24.64-2.21-49.48-2.2-74.21-2.85S829.12,26.88,804.46,27c-2.85,0-6,7.1-2.35,7.38Z"></path><path class="cls-2" d="M804.13,683.78c23.64,1.8,47.31,2.6,71,3.2,23.52.59,47.15,1.51,70.66.26,2.48-.13,5.46-6.36,2.12-6.66-23.56-2.12-47.31-2.1-70.95-2.73s-47.06-1.22-70.6-1.12c-2.73,0-5.7,6.79-2.25,7Z"></path><path d="M501.77,213.86c8.24,2,17.48,1.68,25.93,2.06,8.06.36,16.24,1.07,24.31.63,16.18-.88,30.36-11.67,44.08-19.35l45.23-25.31,22.62-12.65,12.17-6.81c2.71-1.52,4.56-2.22,5.83-5.11a.72.72,0,0,0-.12-.86l-.75-.55a1.55,1.55,0,0,0-1.48,0l-85.24,47.74c-13.53,7.58-27.3,18.15-43.26,18.65s-32.68-2.75-48.65-.53c-.74.11-1.76,1.84-.67,2.1Z"></path><path d="M661.33,143.84c3.72,5.2,13.95,4.87,19.62,4.75l-1.34-2.88c-2.86,6.41-5.43,13.92-5.41,21,0,3.08,3.57.47,3.93-1.2,1.43-6.62,2.55-12.86,5.26-19.15.54-1.27.33-2.95-1.34-2.88a70.65,70.65,0,0,1-11.17-.49c-3-.36-5.86-1.14-8.88-.42-.44.1-1,.8-.67,1.25Z"></path><path d="M501.77,480.79c7.55,1.18,15.82.38,23.43.14,8.44-.27,17-1,25.44-.62,8.84.39,15.52,3.63,23.11,7.88s15.07,8.44,22.61,12.66l43.49,24.36,22.61,12.67,10.43,5.84c3.35,1.88,4.81,3.55,8.44,2.38a1.17,1.17,0,0,0,.67-1.25c-.78-4-4.5-4.76-7.89-6.66l-10.44-5.84L641.05,519.7l-45.24-25.31c-14-7.81-27.74-18-44.28-18.45-7.81-.21-15.67.39-23.47.74-8.42.38-17.36.26-25.62,2-.67.14-1.81,1.91-.67,2.09Z"></path><path d="M661.56,550c2.51.9,5.25-.1,7.84-.42a65.58,65.58,0,0,1,11-.49c1.68.06,3.93-2.31,3.17-4.09-2.77-6.47-3.85-12.9-5.47-19.67-.65-2.74-3.93.77-3.93,2.31,0,7.13,2.52,14.48,5.41,20.92l3-4.56c-6.81-.15-15.71,0-21,4.86-.31.28-.5,1,0,1.14Z"></path><path class="cls-2" d="M344,236c3.07,3.38,6.06,6.89,8.94,10.44a107.68,107.68,0,0,1,8,11.17,96.53,96.53,0,0,1,10.9,25.12c4.73,17.37,4.62,36.59-1.31,53.29a84.51,84.51,0,0,1-12.8,23.58c-1,1.27-2.53,3.17-4,4.81s-3.12,3.39-4.77,5a89.53,89.53,0,0,1-10.09,8.48,86.68,86.68,0,0,1-50.43,16.81c-18.71,0-37.17-6.24-52.58-16.71-15.1-10.26-27.57-24.8-34.43-41.8a96.69,96.69,0,0,1-5.94-50A93.55,93.55,0,0,1,198.26,274c.44-1.47,1.11-3.47,1.85-5.39s1.58-3.89,2.48-5.78c.43-.91.88-1.82,1.35-2.71.24-.45,0,0,0,.07l.41-.76c.28-.5.57-1,.86-1.5q1.57-2.69,3.37-5.24c.58-.82,1.17-1.63,1.78-2.42.32-.41,0,0-.05.06l.54-.67,1.1-1.32q2-2.37,4.28-4.55c.36-.36.73-.7,1.1-1.05l.48-.44c.53-.48-.38.33.16-.15.85-.75,1.73-1.47,2.62-2.18a73.66,73.66,0,0,1,6.84-4.8,88.4,88.4,0,0,1,14.3-7.07,128.79,128.79,0,0,1,31.53-7.9,138.5,138.5,0,0,1,64.27,7.41q3.5,1.29,7,2.69a27.39,27.39,0,0,0,3.92,1.42,21.6,21.6,0,0,1,4.21,1c2.42,1.23,5.64-3.91,3.31-5.09a27.47,27.47,0,0,1-3.36-2.6,19.46,19.46,0,0,0-3.66-2.09c-2.63-1.22-5.32-2.3-8-3.29a138.06,138.06,0,0,0-16.27-4.84,144.22,144.22,0,0,0-34.15-3.62,137.3,137.3,0,0,0-33.5,4.52,111.5,111.5,0,0,0-32.2,13.68c-16.16,10.45-27.16,26.69-32.71,45a102,102,0,0,0-1,53.78,97.05,97.05,0,0,0,29,48.22,100.9,100.9,0,0,0,52.68,25.28,90.75,90.75,0,0,0,56.33-10,102.31,102.31,0,0,0,41.29-41A96.42,96.42,0,0,0,381,292.72c-2.35-18.78-10-38-23.29-51.72a64.92,64.92,0,0,0-5.09-4.72,39.26,39.26,0,0,0-5.85-3.83c-1.59-.92-4,2.28-2.8,3.58Z"></path><path class="cls-2" d="M765.39,514.94c5.8,3.72,15,2.52,21.61,2.78,3.73.14,6.79-2.77,8.15-6.09.9-2.18,1.54-7.75-2.25-7.92a53.57,53.57,0,0,0-14.12,1.13c-3.71.83-6.67,4.36-7.4,8-.61,3,.59,6.71,4.33,6.18L802,515.34l1.55-13.92a36.1,36.1,0,0,1-7.85,2.16c-6.11,1-12.06,14.87-3.13,14.48l22.77-1c5.49-.24,12.14-13.36,4.7-14.75a40.9,40.9,0,0,0-15.36.08c-3.62.7-6.42,4.07-7.46,7.46-.73,2.36-.89,7.21,2.71,7.46a74.93,74.93,0,0,0,16.93-.62c5.33-.84,12.9-13.37,4.87-15.29a11,11,0,0,0-8.13,1.21,12.42,12.42,0,0,0-6.31,8.15c-.43,2.18,0,6.63,3.09,6.65l12.46.1,3.23-14.83L822,504c-3.64,1.17-10.43,12-4.62,14.3a14.91,14.91,0,0,0,8.57,1.14c5.8-1,9.72-8.55,7.36-13.76-1-2.2-2.6-3-4.75-3.85-2.61-1-6,2.42-7.18,4.26-1.6,2.47-2.35,5.58-1,8.29a6.43,6.43,0,0,1,.85,2l8-12.32a6.49,6.49,0,0,1-4-.58L822,518.34l4.09-1.31c3.11-1,5.74-5.11,6.33-8.17.43-2.18.05-6.65-3.1-6.67l-12.47-.06-3.22,14.8a1.11,1.11,0,0,1,1.68-.22l4.88-15.29a69.44,69.44,0,0,1-14,1l-4.75,14.92a31.23,31.23,0,0,1,12.37-.25l4.7-14.75-22.83,1.25-3.13,14.48a53.23,53.23,0,0,0,11-3.2c4.58-1.87,10-15.17,1.55-13.92l-26.32,3.9-3.07,14.22A47.24,47.24,0,0,1,787,517.72l5.9-14c-7.91,0-17-1.33-24.45,1.78-2.71,1.13-6.59,7.19-3.06,9.45Z"></path><path class="cls-2" d="M846.93,517.73a130.87,130.87,0,0,0,25.8-.38l1.55-13.89a19.34,19.34,0,0,1-11,.77l-4.69,14.7,25.31-1.33c5.9-.31,12.22-15.17,4.87-15.27-4-.06-7.89-.11-11.83-.24l-5,15.68a56.73,56.73,0,0,0,19.72-3.89c3.65-1.37,6.43-5.87,6.78-9.6.27-3-1.23-6.91-5-6l-4.55,1.09a11.74,11.74,0,0,0-8.12,8.11c-.84,2.81-.93,7.52,2.95,8.12a32.72,32.72,0,0,0,12.55-.4L898,499.41,894.39,501c-5,2.14-11.13,13.29-3.44,15.82A29.28,29.28,0,0,0,902.23,518c6.1-.32,13.38-15.68,5.21-16.35l-4.13-.33-5.2,16.29c5.62-.25,10-4.38,11.3-9.76.8-3.19.27-7.52-3.81-7.76-3.73-.21-7.43,3.55-7.9,7.17l3.94-5.94c-6.16.19-13.31,15.52-5.2,16.29l4.11.39,5.21-16.35a22.72,22.72,0,0,1-7.92-1.28l-3.44,15.82,3.57-1.58a12.43,12.43,0,0,0,6.85-9.7c.27-3-1.24-7-5.09-6.08a23.09,23.09,0,0,1-9.25.49l-5.17,16.23c1.53-.38,3.05-.78,4.57-1.18l1.75-15.61a47.87,47.87,0,0,1-16.34,3.29c-7,.25-12.82,15.92-3.38,15.68,4-.1,8-.14,12-.17l3.3-15.27q-12.72.93-25.43,1.9c-5.35.4-12.21,13.44-4.69,14.7a31,31,0,0,0,17.24-2c4.59-1.87,10-15,1.55-13.9-8.33,1.11-16.72,1.94-25.08,2.78-4.29.42-10,11.42-3.82,12Z"></path><path class="cls-2" d="M924.76,518.23c8.69.43,17.43-1.3,26.17-1.07l4.71-14.77a63.08,63.08,0,0,1-14.39.85l-4.89,15.35a59.06,59.06,0,0,1,24.51-.8l5.09-16-11.68,0-3.47,16.07a102.82,102.82,0,0,1,20-.94c4.3.23,7.81-3.24,9.39-7,1.11-2.65,1.73-8.76-2.59-9.13l-2.71-.24c-7-.6-15.47,14.42-6.79,16.15a72,72,0,0,0,8.22,1.51c7.43.56,15-15.53,6.8-16.14a70.43,70.43,0,0,1-8.23-1.52l-6.79,16.15,2.7.23,6.8-16.14a115.86,115.86,0,0,0-23.32,1c-6.87,1-13.37,16.17-3.47,16.07l11.7-.12c6-.06,13.07-14.6,5.09-16a61.35,61.35,0,0,0-27.93,1.43,11.27,11.27,0,0,0-7.68,7.67c-.67,2.26-1,7.66,2.79,7.68a89.43,89.43,0,0,0,17.67-1.43c6.14-1.17,12.43-14.78,3.19-14.77s-19.48.37-28.29,3.91c-3,1.22-8.86,11.62-2.59,11.93Z"></path><path class="cls-2" d="M775.37,600.28c35.13-.57,70.21-1.34,105.34-.17,16.94.57,33.85,1.51,50.78,2.47,16.34.92,32.4.78,48.09-4.43,4.68-1.55,11.84-15.26,3.55-16.33a1771.46,1771.46,0,0,0-198.5-14.47L779.34,584c7.75-.28,15-2.73,22.36-5.09a105.22,105.22,0,0,1,21.66-4.52c16.15-1.66,32.68-1,48.9-1.22q50.06-.81,100.11-2c6.73-.15,14-17,5.54-17.38-65.24-3.25-130.26-9.7-195.49-13l-1.73,15.35c-2.15,1.83-1.81.3.3,1.1a27.76,27.76,0,0,0,4.07.86,30.59,30.59,0,0,0,7.41.51c8.26-.16,16.52-.36,24.78-.5q25.39-.45,50.79-.27c33.68.24,67.35,1.2,101,2.56l5.6-17.58a229.77,229.77,0,0,0-90.58,20c-4.23,1.86-12.18,15.08-3.55,16.32,15.58,2.23,31.49,2.67,47.21,3s31.81.48,47.64-.64c7.44-.53,13.77-17,3.63-16.78-29,.69-57.94.43-86.89-.27q-21.86-.54-43.69-1.57c-9.59-.45-19.14-.83-28.61-2.44-5.53-.94-11-2-16.49-3.37a56.73,56.73,0,0,1-6.86-2c-.16-.06-1.31-.64-1.8-.85-1.86-.79.45-.33.36,2.49.13-4-3.36-5.85-6.82-4.43-4,1.62-6.69,6.35-6.82,10.5-.27,8.88,15.53,10.63,21.67,12a184.93,184.93,0,0,0,27.67,4c31.48,2.15,63.08,2.79,94.62,3,16.68.12,33.36.09,50-.29L979,564.71c-15.16,1.06-30.43.92-45.61.56s-30.65-.85-45.76-3l-3.56,16.32a221,221,0,0,1,86.78-18.2c6.89-.07,14.07-17.23,5.6-17.59-35.62-1.51-71.28-2.08-106.93-2-17.85,0-35.7.12-53.54.43-7.3.12-15.48,1.35-22.68.14-5.55-.94-11.4-3.08-16.29,1.08-2.71,2.32-5,5.35-5.29,9-.19,2.3.48,6.17,3.56,6.33,65.18,3.29,130.14,10,195.32,13.4l5.54-17.38q-50.13,1.1-100.23,2.52c-16.07.46-32.19.65-48.2,2.17a127.66,127.66,0,0,0-22.54,4c-7.39,2.08-14.47,4.66-22.23,4.91-6.5.21-13.24,16.45-5.29,16.6A1810.25,1810.25,0,0,1,976,598.71l3.56-16.34c-14.9,4.94-31,3.93-46.38,3-17.09-1.08-34.2-2-51.33-2.26-34.52-.57-69.16-.11-103.52,3.45-6,.63-11.35,13.91-3,13.77Z"></path><path class="cls-1" d="M725,488a96.9,96.9,0,0,0,27,.39c3.64-.46,6.58-4.33,7.57-7.57.7-2.27.93-7.51-2.75-7.58-6.09-.12-12.19-.32-18.28-.31l-3.42,15.82,6.23-.15c5.57-.13,12-11.51,6.48-15.26s-11.48-3.83-17.55-1.61c-4.1,1.5-11.26,14.73-3.33,15.32q-4.35-3.94,3.76-9.62l3.35-.53-.75,0,1.46,11.09-1.79,1.7c6.1.05,15-10.74,8.32-15.66l-7.93-5.83-8.5,16c15.22.12,30.45.06,45.67,0,6.6,0,14.2-16.14,5.54-17.38l-22.87-3.27L745.78,481q27.47,1.21,54.94,2.34l5.73-18Q787.18,466.54,768,469c-4.35.55-7.93,5.19-9.09,9.08-.88,3-1.08,8.65,3.3,9.08a184.77,184.77,0,0,0,37-.07c8-.82,15-18.44,4-18.24a318.29,318.29,0,0,0-39.85,3.26c-4.4.64-8,5.16-9.15,9.14-.87,2.9-1.11,8.84,3.32,9.15a281,281,0,0,0,48.88-.83c6.75-.71,15.19-15.9,5.85-18.35a58.39,58.39,0,0,0-21.91-1.4c-8,.94-15.2,18.43-4,18.37l65.83-.33c7,0,15-17.36,5.87-18.42a179.82,179.82,0,0,0-44.59.37c-8,1.06-15.27,18.94-4,18.47q28.65-1.19,57.29-2.39c8.32-.36,15.27-18.66,4-18.63l-33.83.12-4,18.64a580.23,580.23,0,0,1,63,2.23l7.87-18.68-31.59-.23c-5,0-9,3.59-10.88,8.12-1.3,3.1-2,10.09,3,10.57a306,306,0,0,0,59.92-.17c4.47-.45,8.19-5.43,9.37-9.36.82-2.77,1.16-9.32-3.4-9.37l-31.4-.31c-5,0-9,3.61-10.9,8.14-1.24,3-2,10.32,3,10.6a492.2,492.2,0,0,0,59.75-.27c8.4-.55,15.31-19.45,4.06-18.78l-41.49,2.47c-7.18.42-15.14,18.58-6,18.8l66.88,1.59,6-18.8a108.47,108.47,0,0,1-28.91.13l-6,18.82,41.16-.29,4.07-18.82a119.16,119.16,0,0,1-24.46-1.1l-6,18.83,39.82-.24c7.45-.05,15-18.58,6-18.85l-44.15-1.3-6,18.85,49.18-.15c7.48,0,15-18.6,6-18.84q-22-.6-43.94-1.22l-6,18.83q23-.27,45.92-.58c7.53-.11,14.93-18.79,6-18.88q-14.13-.15-28.25-.28l-6,18.76c11.91-.65,23.82-1.33,35.73-2l4-18.7-16,2.85c-7,1.23-15.33,15.32-6,18.71,7.66,2.76,15.6,2.09,23.56,3,7.56.88,14.55-10.24,10.87-16.73a11.93,11.93,0,0,0-9.22-6.05c-8.54-1-17.42,17.47-7.83,18.61,1.83.21,2.29.62,3.19,2.22l10.86-16.73c-8-1-15.89-.29-23.55-3l-6,18.71,16-2.86c7.83-1.4,15.59-19.33,4-18.7-11.9.65-23.81,1.26-35.72,1.9-7.24.38-15,18.63-6,18.76l28.2.4,6-18.88c-15.31.17-30.62.41-45.93.63-7.42.11-15,18.59-6,18.83q22,.57,43.93,1.23l6-18.85-49.17.15c-7.47,0-15,18.58-6,18.85l44.15,1.3,6-18.85-39.82.26c-7.15,0-15.39,17.47-6,18.83a136.85,136.85,0,0,0,28.32,1.09c8.37-.51,15.46-18.91,4.07-18.82l-41.17.29c-7.15.05-15.35,17.61-6,18.82a123.9,123.9,0,0,0,32.76-.15c4.52-.62,8.19-5.33,9.41-9.4.85-2.82,1.16-9.29-3.41-9.4l-66.88-1.59-6,18.8,41.49-2.49,4.06-18.78a457.6,457.6,0,0,1-55.92.31l-7.89,18.74,31.4.3,6-18.73a285.77,285.77,0,0,1-56.1.21L864.31,488l31.59.22c5,0,9-3.59,10.87-8.12,1.29-3.07,2-10.12-3-10.56a615.41,615.41,0,0,0-66.8-2.19c-8.35.17-15.27,18.68-4,18.64l33.83-.13,4-18.63q-28.66,1.25-57.33,2.55l-4,18.47a162.11,162.11,0,0,1,40.82-.42l5.87-18.42-65.84.38-4,18.37a48.12,48.12,0,0,1,18.15,1.38l5.85-18.35a258.91,258.91,0,0,1-45.15.89l-5.83,18.29A314.93,314.93,0,0,1,799.24,487l4-18.24a168.73,168.73,0,0,1-33.33.15l-5.79,18.16q19.18-2.49,38.49-3.73c6.8-.43,14.58-17.67,5.74-18q-27.56-1-55.12-1.92c-4.7-.16-8.48,3.46-10.23,7.64-1.28,3-1.83,9.32,2.83,9.94l23,3.07,5.54-17.38c-14.72.2-29.43.42-44.14.8-5.84.16-12.63,12.07-6.8,16l8.14,5.5,6.66-15.67c-5.63.18-9.88,3.94-13,8.29-1.6,2.22-4,11,1.45,11.09,6.33.14,11-4.94,12.42-10.94.94-4.16-.2-10.26-5.39-10.64l-3.34,15.32c2.86-1.05,5.59-.12,8,1.51l6.49-15.26-6.23.15c-7.08.18-13,15.84-3.42,15.82,5.62,0,11.25-.23,16.88-.36l3.27-15.15a84.15,84.15,0,0,1-24.29.56c-6.41-.79-13.42,13-6,14.2Z"></path><path class="cls-1" d="M723.3,162.8a49.25,49.25,0,0,1,18.88-1.09l3.22-14.78a26.43,26.43,0,0,1-10.78,2.16c-4.16-.07-7.47,3-9,6.74-1,2.37-1.7,8.66,2.49,8.78l7.47.21,1.6-14.1c-2.81,1.71-6.56-.64-8.52-2.48l-6.47,15.21c13.42-.64,26.84-1.26,40.25-2l3.69-17.05q-8.25.63-16.5,1.23c-6.54.48-14.15,17.15-5.55,17.45,20.53.71,41.12.38,61.63-.7,8.15-.42,15-18.42,4-18.29s-21.94.31-32.91.5l-4,18.49q27.9-.65,55.81-1.29l4-18.6a99.12,99.12,0,0,1-24.4,2.44l-6,18.73L857.12,162c8.38-.37,15.39-18.85,4-18.77l-27,.18-4.06,18.8L869,160.91,873,142.08a45.32,45.32,0,0,1-15.12,1.21L850,162.13l30,0,7.94-18.85H875c-5.07,0-9,3.6-11,8.19-1.16,2.77-2.08,10.66,3,10.67l41.28.06c5.07,0,9.06-3.61,11-8.2,1.68-4,1.65-9.09-3-10.67a22.77,22.77,0,0,0-13.45-.35,13.74,13.74,0,0,0-9.44,9.43c-1,3.24-1.09,8.77,3.42,9.44a219.37,219.37,0,0,0,28.39,2.3l6-18.88a72.86,72.86,0,0,1-16.35,1.05l-8,18.89L947,166.56l6-18.87a61.16,61.16,0,0,1-12.17-.35L932.9,166.2l28.62,1c5,.18,9.1-3.71,11-8.18,1.38-3.31,2-10-3-10.66l-14-2-7.93,18.83,29.62,1.7c5,.29,9.09-3.77,10.92-8.15,1.45-3.47,1.88-9.69-3-10.62l-10.78-2c-8.37-1.57-17.72,15.94-7.93,18.82a116.58,116.58,0,0,0,34.54,4.52c7.26-.08,15.4-18.1,6-19l-18-1.65c-8.27-.77-18.19,16.73-8,19a130.27,130.27,0,0,0,35.23,2.73c7-.39,15.68-17.14,6-19a63.71,63.71,0,0,0-15.72-.92c-7,.41-15.58,16.86-6,18.89a58.58,58.58,0,0,0,17,1c6.86-.56,15.77-17.49,6-19l-24.1-3.67c-8.43-1.28-18,16.59-8,19a62.08,62.08,0,0,0,26,.61c4.6-.87,8.25-5.22,9.54-9.53,1-3.31,1.09-8.82-3.46-9.54l-22.12-3.51-8,19,21.92.25c5.1.06,9.14-3.66,11-8.25,1.36-3.23,2-10.17-3-10.75-9.91-1.14-19.87-1.7-29.85-1.89-5.09-.1-9.14,3.69-11,8.25-1.22,2.9-2.08,10.58,3,10.74a298.85,298.85,0,0,0,36.4-1.09l-5.78-3.75c1.83,9,10.93,9.7,17.55,5.53,4.19-2.63,9.65-14.65,1.84-16.25l-7.3-1.49c-6.08-1.23-13.87,10.93-7.9,14.88l6,4,7.36-17.35c-1,.26-1.68.23-1.87-.75-.55-2.86-3.18-4-5.78-3.76q-16.22,1.35-32.51,1.08l-8,19a273.39,273.39,0,0,1,29.85,1.9l8-19-21.91-.26c-5.11-.07-9.15,3.67-11.07,8.26-1.42,3.41-1.94,9.94,3.06,10.75l22.09,3.57,6.08-19.07a52.41,52.41,0,0,1-22.16-.5l-8,19,24.1,3.67,6-19a45.19,45.19,0,0,1-13.12-.9l-6,18.89a47.31,47.31,0,0,1,11.8,1l6.05-19a120.9,120.9,0,0,1-31.34-2.69l-8,19,18,1.65,6-19a106.8,106.8,0,0,1-30.71-4.38l-7.93,18.82,10.81,2,7.9-18.77-29.59-1.76c-5-.3-9.12,3.79-11,8.18-1.38,3.31-1.94,9.93,3,10.65l14,2,7.94-18.84-28.62-1c-5-.18-9.1,3.72-11,8.19-1.36,3.24-2,10.05,3,10.67a81.88,81.88,0,0,0,16,.36c4.47-.33,8.28-5.58,9.43-9.43.86-2.87,1.17-9.28-3.42-9.44l-40.07-1.35c-5-.17-9.11,3.72-11,8.21-1.24,3-2,10.4,3,10.68a90.07,90.07,0,0,0,20.22-1.06c4.55-.78,8.19-5.23,9.44-9.44.85-2.81,1.18-9.37-3.42-9.44a219.51,219.51,0,0,1-28.4-2.29l-6,18.87a14.94,14.94,0,0,1,9.59.35l7.94-18.87-41.28,0-6,18.86h12.9c7.64,0,14.8-18.84,6-18.85h-30c-5.07,0-9,3.6-11,8.19-1.31,3.11-2,10.19,3,10.65a58,58,0,0,0,19-1.22c4.94-1.19,8.78-5.72,9.8-10.64.94-4.47-.87-8.35-5.73-8.19l-38.89,1.29c-8.4.28-15.39,18.88-4.06,18.8l27-.21,4-18.77-54.92,2.45c-7.22.33-15,18.47-6,18.73a112.78,112.78,0,0,0,28.27-2.57c4.89-1.1,8.69-5.7,9.69-10.51.93-4.44-.87-8.22-5.67-8.09q-27.92.75-55.84,1.4c-8.28.21-15.13,18.7-4,18.49q16.47-.32,32.94-.7l4-18.29c-19.41,1.24-38.81,1.68-58.25,1.54l-5.56,17.45,16.58-1.63c7.56-.73,13.91-17.82,3.69-17.05-13.52,1-27,2.15-40.53,3.26-6.07.5-11.34,10.8-6.46,15.22,6.28,5.68,14.7,4.59,21.42.43,3-1.88,8.65-14,1.59-14.1l-7.5-.13-6.54,15.52a40.76,40.76,0,0,0,17.32-3.41c3.74-1.63,11.07-13.9,3.22-14.78a57.22,57.22,0,0,0-23.8,2.76c-5.13,1.61-9,15.55-1.52,13.62Z"></path><path class="cls-1" d="M824.76,280.24c11.06-3.1,23.12-2.08,34.48-2.11,12.3,0,24.59,0,36.89.15,24.59.23,49.17,1.47,73.76,1.57,4.78,0,8.23-3.34,10.14-7.58,2.58-5.73,1.93-12.88-3.85-16.39-5.38-3.26-13.1-3.74-19.2-4.47-13.77-1.64-27.62-1.45-41.43-.77s-27.72,1.87-41.58,1.53a156,156,0,0,1-20.81-1.85c-2.64-.42-17-2.54-17.33-4.42V250c-1.42,6.68-6.4,5.81-.09,5.42,2.59-.15,5.19-.26,7.79-.36,5.87-.22,11.75-.35,17.63-.26,11,.18,21.59,2.65,32.49,3.27a46.4,46.4,0,0,0,13.83-1.55,37.68,37.68,0,0,1,15.54-.38c10.33,1.74,20,4.86,30.6,4.54,10.2-.32,22.64-2.76,27.4-12.93,1.7-3.65,2.74-8.79.15-12.36-2.77-3.81-8.16-2.72-12.24-3.48-16.8-3.12-30.14-16-47.8-16.35-11.68-.2-23.18,3.29-34.82,4.09-12.39.85-24.8.34-37.18-.21-4.82-.22-8.73,3.59-10.51,7.84-1.19,2.85-2,10,2.9,10.22,12.33.65,24.69,1.22,37,.69a158.53,158.53,0,0,0,17.94-1.73c5.89-.92,11.87-2.46,17.87-2.45,9.71,0,18.43,4.73,27,8.62a115.13,115.13,0,0,0,14.29,5.62c4.62,1.38,9.94.84,14.32,2.42l-2.86-1.85,4.43-8.89-1.7.43a38.33,38.33,0,0,0-4.3.83,50.31,50.31,0,0,1-6.93.65c-5.4.08-10.72-1-16-2.21-10.38-2.31-20.54-4.66-31.11-2.08-5.1,1.25-9.43,2-14.72,1.31-5.77-.71-11.46-1.62-17.27-2a259,259,0,0,0-34.23.78c-9.8.73-20.79,2.22-23.56,13.66s10.45,13.74,18.81,15.68c19.69,4.56,40.42,3.3,60.42,2,11.56-.77,23.16-1.65,34.76-1.56a144.29,144.29,0,0,1,17.63,1.14c2.62.35,5.23.77,7.82,1.29a16.21,16.21,0,0,1,3.59.86l1.26.72c1,1.32,1.32.84,1-1.44l10.15-7.58c-25.35-2.21-51-2.23-76.43-2.33q-18.87-.09-37.73.36c-12.52.27-24.84.32-36.65,5-3.46,1.36-6.11,5.54-6.44,9.12-.25,2.7,1.18,6.73,4.78,5.72Z"></path><path class="cls-1" d="M848.39,238.57a660.62,660.62,0,0,0,74.33.25c6.87-.34,14.71-17.63,5.78-18.12-29.13-1.59-57.75-9.74-86.06-16.3l-5.78,18.16c10.69-.87,20.81-1.05,31.42.82,10.79,1.89,21.53,4,32.39,5.53a545.37,545.37,0,0,0,66.2,5.41c5.06.1,9.08-3.67,11-8.19,1.65-3.94,1.7-9.19-3-10.67-38.72-12.07-81.45.82-119.35-14.44l-7.7,18.14A449.8,449.8,0,0,1,964.24,226l8-19.13c-22.35-1-44.6-3.31-66.81-5.93-19.23-2.27-39.91-3.41-56.7-14L839.19,205c46,.88,92,3,138,1.64l-5.76-8.21a11.78,11.78,0,0,1-2.36,5.81l7.64-5.67a276,276,0,0,1-139.53-7.35l3.66,7.87c.9-5.16,0-10-4.5-13.16l-5.45,16.83c1.76-.76,6.37,5.69,7.25,6.83a86.88,86.88,0,0,1,7.59,11.56,23.29,23.29,0,0,1,2.27,5c.17.61.33,1.22.46,1.84q-.29,5.26,3.78-4.61c-1.28-.74-5.23-.29-6.81-.5-2.55-.34-5-.85-7.56-1.43l-5.79,18.17a83.3,83.3,0,0,1,26.44,1.46c8.16,1.74,16.8-14.69,7.65-18.17a101.29,101.29,0,0,0-25.1-6l-5.81,18.25c23.25-2.32,45.9-.65,69,2.07s46.1,3.27,69.15.24c6.88-.91,15.57-16,6-18.8A224.57,224.57,0,0,0,925,209.93c-5-.18-9,3.65-10.79,8-1.2,2.86-2,10.27,3,10.48a223.73,223.73,0,0,1,54.31,8.94l6-18.8c-23.27,2.94-46.05,2.21-69.29-.46-23.05-2.64-45.88-3.68-69-1.3-4.35.45-8,5.29-9.12,9.12-.9,3-1.09,8.67,3.31,9.13a101.59,101.59,0,0,1,25.13,6l7.65-18.17A96.35,96.35,0,0,0,836,221.42c-6.56.71-15.13,16-5.79,18.17,8.12,1.86,18.54,4.19,25.75-1.33,7-5.39,9.41-14.78,7-23.08-2.25-7.71-7.48-15.14-12.47-21.29s-11.22-11.66-19.6-8c-5,2.14-11.58,12.57-5.44,16.84.74.64.9.21.46-1.27-.6,3.44.08,6.71,3.66,7.86a280.13,280.13,0,0,0,82.92,13.57,288.08,288.08,0,0,0,42.13-2.56c6.31-.87,14.21-1.18,20.09-3.72,7.11-3.07,11-13.61,12.33-20.63.48-2.57.07-8.2-3.82-8.21-45.39-.16-90.74-.4-136.11-1.48-4.59-.11-8.2,2.94-10.24,6.91-1.63,3.15-3.1,8.75.65,11.14,17.32,11.07,38.19,12.89,58.09,15.31,22.82,2.78,45.68,5.28,68.66,6.38,5.1.24,9.25-3.82,11.13-8.31,1.48-3.54,1.91-9.87-3.08-10.82a464,464,0,0,0-120.67-6.5c-4,.3-7.6,4.8-9,8.17-1.06,2.53-2.17,8.56,1.31,10,39.42,16,82.82,2.8,122.75,15.83l7.94-18.86a667,667,0,0,1-68.15-5.65c-10.87-1.48-21.62-3.54-32.44-5.22-11.18-1.73-22.22-1.2-33.44-.19-6.62.59-15.08,16.1-5.79,18.16,28.42,6.3,56.89,14.65,86.08,16.26l5.77-18.12c-23.65,1.17-47.3,1.23-71,.56-4.64-.13-8.35,3.39-10.07,7.52-1.16,2.76-1.87,9.5,2.78,9.79Z"></path><path class="cls-2" d="M719.91,193.62c8,6.12,20.48,4.92,29.86,3.54,5.62-.83,14-15.18,5.24-16.46q-9.06-1.32-18.13-2.61l-5.32,16.69a62.71,62.71,0,0,1,19,.83l5.39-16.93a41.17,41.17,0,0,1-17-3.74l-7,16.55a56.36,56.36,0,0,1,17.09-.85l5.48-17.19a35.75,35.75,0,0,1-17.28-2.18l-7,16.57a19.5,19.5,0,0,1,9.39.06l1.75-15.41c-2.11,1.86-4.35,1-6.5-.66l-5.13,15.87c8-2.61,16.51-2.08,24.5.46L761.44,171c-5.69-.32-11.38-.65-17.08-.92-4.63-.22-8.38,3.46-10.09,7.53-1.19,2.87-1.84,9.38,2.79,9.8l21.26,2c4.15.38,7.66-2.92,9.45-6.38,1.35-2.61,3-8.47-.61-10.28l-5.65-2.8-8.85,16.66a15,15,0,0,1,8.64,2.7l5.22-16.11c-7.75,4-18.07,9.38-17,19.87.33,3.42,2.34,6.48,5.9,7.24,4.71,1,8.6-2.65,11-6.19,3-4.36,2.62-15.4-5.22-11.47l-1.53.77c-5.26,2.64-11.7,13.59-3.64,16.72,13.69,5.31,24.56-17.44,10-22.34-6.16-2.07-13-2.92-19.33-4.29-6.89-1.49-13.78-3-20.68-4.44l-5.45,17.1A81.52,81.52,0,0,0,739,183.83l-5.12-3.32.14-1c-1,3.93,1.59,6.39,5.31,5.17s5.93-4.74,7.72-8.12,1-10.63-4.42-9.5a91,91,0,0,1-18.47,2c-6.54,0-13.92,15.2-5.45,17.1,7.18,1.61,14.38,3.17,21.57,4.74l10.33,2.26c1.87.41,3.77.76,5.63,1.23,3.43.88.3.63,2.4-3.48l8.28-7.5a3,3,0,0,1-2.1,0l-5.21,16.11,1.54-.77-5.23-11.46-.49.72,5.22-4.68-.76.28,3.65-.56q-.57.24.33.48v4.11l-2.64,4.44a8.49,8.49,0,0,1,1.07-.58c1.25-.25,3.12-1.63,4.2-2.2,4.42-2.3,11.37-12,5.22-16.11a22,22,0,0,0-11.8-3.91c-4.23-.13-7.58,2.74-9.46,6.38-1.35,2.61-3,8.48.61,10.29l5.66,2.8,8.84-16.66-21.23-2-7.3,17.33c5.71.29,11.43.53,17.15.77,7.28.31,16.62-14.33,7.23-17.18-10.63-3.21-21.25-2.59-31.74.8-5.26,1.71-10.36,11.77-5.14,15.87,6.14,4.83,14.8,3.54,20.48-1.4,3.47-3,9.48-13.48,1.74-15.41a28.22,28.22,0,0,0-12.86-.18c-3.76.8-6.79,4-8.24,7.46-1,2.32-2,7.82,1.2,9.11a47.41,47.41,0,0,0,23.92,3.41c4.11-.46,7.51-4.95,8.6-8.59.85-2.83,1-8.15-3.12-8.6a66.37,66.37,0,0,0-20.62.88c-3.76.77-6.79,4-8.23,7.45-1,2.38-1.95,7.72,1.19,9.1a54.61,54.61,0,0,0,23.67,4.73c6.38-.1,13.85-15.41,5.39-16.93a76.24,76.24,0,0,0-22.52-.59c-5.84.7-14,15.54-5.32,16.69q9.12,1.22,18.24,2.38l5.25-16.46c-9.53,1.56-19.25,0-28.64,1.67-4,.71-9,8-4.78,11.25Z"></path><path class="cls-2" d="M727,217.55l-.24,0,4.1,5.85.18-.61L724,230.5l.49-.08L720.86,229c1.44,1.92,2.22,3,4.68,3.65a33.94,33.94,0,0,0,9.16.72,40.6,40.6,0,0,0,8.5-1.06c.75-.17,6.2-2.16,6.62-1.56l8.07-15.08a135.67,135.67,0,0,1-22.89-.53l-5.47,17.15a177.36,177.36,0,0,1,25.25-.47c7.39.4,16.81-15.2,7.31-17.36a152.81,152.81,0,0,1-25.38-8.06l-7.15,16.85a32.85,32.85,0,0,1,21,2.95l8.92-16.81a124.45,124.45,0,0,1-27.38-5.79l-5.59,17.55a96.72,96.72,0,0,1,26.63,1.48l7.37-17.48a71.22,71.22,0,0,1-25.9-5.28l-9,16.92a226.11,226.11,0,0,1,30,2.22l5.57-17.47c-8.17,0-16.23-2.53-24-4.78l-7.4,17.55a174,174,0,0,1,27.49,3.24l7.36-17.48a63.59,63.59,0,0,1-16.05-3.6L741.18,214a167.77,167.77,0,0,1,23.48,4.84L772,201.3l-7.4-.16c-4.29-.1-7.66,2.74-9.57,6.46-1.45,2.8-3,8.36.61,10.41l5.21,3,3.37-15.18a12.49,12.49,0,0,1-6,1.62c-5.61.45-12.33,10.6-8.37,15.65a22.5,22.5,0,0,0,7.91,6.63L763,213.46a2.29,2.29,0,0,1-2,0c-6.88-1.13-15.63,12.1-8.91,16.78,3.12,2.17,6.33,1.93,9.72.52,4.54-1.89,12.4-15.36,3.65-16.79l-11.26-1.84c-1.54-.25-8.7-.36-9.65-1.6l.72,5.64.14-1c.57-3.74-.65-7.83-5.18-7.39-4.36.43-8.08,5.67-8.85,9.61-1.26,6.43,2.05,9.6,8.05,10.75,6.22,1.19,12.49,2.12,18.72,3.18l3.65-16.79.78-.46-8.91,16.78a16.92,16.92,0,0,0,9.29-1.11c4.3-1.63,11.69-13,5.25-16.24a15,15,0,0,1-5.46-4.27l-8.37,15.65a29.15,29.15,0,0,0,13.62-5c3.65-2.33,8.91-12,3.37-15.18l-5.2-3-9,16.87,7.4.17C772,219,781.72,204,772,201.3a166.06,166.06,0,0,0-23.48-4.84c-7.8-1-16.42,14.21-7.37,17.5a63.21,63.21,0,0,0,16.06,3.58c7.64.69,16.74-15.62,7.36-17.48a179.69,179.69,0,0,0-27.45-3.31c-7.44-.32-17,14.72-7.4,17.55,9.18,2.71,18,4.76,27.61,4.7,6.63,0,14.26-16.28,5.57-17.47a250.16,250.16,0,0,0-29.95-2.3c-4.31-.06-7.66,2.73-9.6,6.48-1.28,2.49-3.17,8.83.62,10.44a76.94,76.94,0,0,0,29.11,6.47c4.69.09,8.42-3.39,10.17-7.59,1.36-3.23,1.76-9-2.8-9.89a112.91,112.91,0,0,0-30.21-1.55c-6.8.55-14.15,14.69-5.59,17.55a118.31,118.31,0,0,0,27.43,5.67c4.2.37,7.73-2.93,9.54-6.43,1.36-2.64,3.06-8.55-.61-10.38a44.3,44.3,0,0,0-27.71-4.23c-3.8.66-7,4.18-8.37,7.59-1,2.39-2,7.9,1.22,9.26a161,161,0,0,0,28.6,9.19l7.31-17.36a201.37,201.37,0,0,0-28.85.68c-4.09.39-7.52,5-8.59,8.57-.84,2.81-1,8.17,3.12,8.58a142.83,142.83,0,0,0,26.48.22c5.54-.47,11.72-10.11,8.07-15.09-4.67-6.36-12-2.33-18.11-1a47.13,47.13,0,0,1-11.34,1.45c-2.75-.09-4.41-1.82-7.43-.51-3.46,1.52-5.52,5.33-5.8,8.94l0,.56c-.27,3.56,2.91,4.68,5.75,3.73l.24-.08c4.7-1.56,9.2-13.46,1.45-12.94Z"></path><path class="cls-2" d="M718.84,262.56c10.54,12.5,31,1.54,44.52,6.36l7.11-16.87c-11.75-1.75-23.18-4.39-34.18-9l-7,16.56q16.93-1.23,33.91-1.45c6.59-.08,14.1-15.34,5.51-17.3q-17.88-4.07-35.79-8.11l-5.54,17.39,29.59-2.59c6.45-.57,14.16-17.11,5.54-17.39a149.34,149.34,0,0,0-27.22,1.52l-3.77,17.43c8.12-1.72,15.6-1.34,23.79-1.28l-2.7-9.52a23.66,23.66,0,0,0-1.18,8.49c0,3.42,3,3.58,5.35,2.14a22,22,0,0,0,5.63-4.27c2.9-3.3,6.5-11.92,0-13.67-8.43-2.26-18.69-1.08-27.11.68-4.58,1-8.15,5.39-9.08,9.85-.77,3.68.75,8.28,5.31,7.58a129.38,129.38,0,0,1,23.67-1.56l5.54-17.39-29.59,2.59c-6.36.56-14.42,15.39-5.54,17.39q17.91,4,35.83,8l5.51-17.3q-17,.28-33.94,1.58c-3.65.28-6.94,4.37-8.23,7.46-1,2.32-2,7.8,1.19,9.1,12,4.93,24.49,8.61,37.43,9.88,7.34.72,16.16-14.44,7.11-16.87-7.44-2-15-1.29-22.5-.3-3.64.47-7.27,1.09-10.94,1.27-3.89.19-7.71-.45-11.59-.63s-9.8,6.38-6.6,10.17Z"></path><path class="cls-2" d="M731.05,285c-3.29-2.88-7.32-.56-9.84,2.19-2,2.17-5.73,10.85,0,11.39,13.21,1.25,26.68.37,39.94.2,6.69-.09,13.41-16.72,5.38-16.89-13.42-.28-26.24-2.06-38.91-6.64l-7.18,17,33,1.67c4.18.21,7.56-2.78,9.39-6.34,1.32-2.54,3.05-8.48-.6-10.21a180.3,180.3,0,0,0-28.15-10.64l-7.29,17.31,28.74,4c7.78,1.08,16.2-14,7.31-17.34l-28.56-10.82-7.32,17.39a129.63,129.63,0,0,0,35.39,3.35c5.69-.21,13.82-13.22,7.14-16.8l-11.74-6.32-9,16.86q5.47,1.78,10.94,3.53c3.36,1.08,7.38-2.88,9-5.31,2-3.1,2.91-6.95,1.21-10.35s-4.78-5.87-8.13-7.7c-1.59-.87-3.25-1.64-4.84-2.52a19.68,19.68,0,0,0-2.32-1.38c-2-.7-.22-2.14-.93,2.22l-4.4,6.76.88-.7c3-2.4,6.25-8.12,2.51-11.31s-8.45.85-10.49,3.89c-2.51,3.71-3.78,8.6-1,12.54,3.95,5.7,12.6,5.62,15.79,12l10.17-15.66-10.93-3.53c-6.75-2.16-15.88,13.18-9,16.86L759,280l7.14-16.8a117.36,117.36,0,0,1-31.84-3.32c-7.77-1.85-16.07,14.09-7.32,17.39l28.57,10.77,7.31-17.34-28.76-4c-7.64-1-16.44,14.75-7.29,17.31a160,160,0,0,1,25.09,9.27l8.79-16.55-33-1.54c-7.36-.35-16.29,13.73-7.18,17a105.22,105.22,0,0,0,40.71,6.5l3.65-16.89c-13,.66-26.22.74-39.12,2.68l2.71,9.75c.18-.45,0-.36-.46.28,3-1.51,6.34-6.76,3.11-9.6Z"></path><path class="cls-2" d="M727.55,192.63a18,18,0,0,1,.66-3.48c.84-2.5,1.34-6.44-2.05-7.22s-6.13,3.09-7.43,5.55c-4,7.47-2.83,16.47-1.38,24.44a176.7,176.7,0,0,1,3,27.35c.24,8.94.1,17.89.53,26.83.34,7-.22,18.37,4.47,24.11a4.34,4.34,0,0,0,5.57,1.07c3.57-2,6.5-5.46,6.4-9.85-.08-3.5-1.59-7.25-2-10.78-1.23-9.85-1.16-19.82-1.29-29.72a221.85,221.85,0,0,0-1.82-28.46c-.65-4.56-1.8-9-2.64-13.51s-.27-8.65-.6-13.07l-10.19,7.48a4.87,4.87,0,0,1,1.34,2.59c1.54,4.67,7.11-.52,7.48-3.33Z"></path><path class="cls-2" d="M754,116.36c0,.16,0,.16,0,0l.66,2.42c0-.63-.06-1.22,0-1.85l-5.82,9c.68-.33.71-.38.1-.16,1.67-.56,2.07-.67,1.19-.33a8.71,8.71,0,0,1,1.25-.15l.39,0a5.57,5.57,0,0,1,3.78,1.87l3-13.27c-1.34,1.12,1.44-.68-.06.12.69-.37.84-.18-.05-.08-.61.08.86.25-.2,0a13.88,13.88,0,0,1-1.52-.35c.8.28.18.06-.22-.21a12.42,12.42,0,0,1-1-.75c.93.8-.07-.27-.23-.47-.76-.94.21.87-.14-.4L748.47,124c-1.46.54,1.28,0,.13-.05a7.77,7.77,0,0,1,1.18.15c.16,0,1.52.49,1,.25s.52.33.61.39a10.81,10.81,0,0,1,1,.7c.68.57-.38-.57.12.17a12.75,12.75,0,0,1,.8,1.26l6-13.91c-.78.27-.86.29-.25.07a10.44,10.44,0,0,1-1.36.23c1,0-1,0,0-.13.4-.06.74.84.08-.19-.39-.61-2.42-2.72-.74-.86l.76,2.79a5.86,5.86,0,0,0-.29-2l-1.31,5.87-1.38,1.54-2.27,1,.46-.14a7.12,7.12,0,0,0,4.46-3.7c.66-1.27,1.62-4,.35-5.29a5.31,5.31,0,0,0-1.72-1.35l-.74-.29c-1.43,0-1.56,0-.42,0-2-.62-4.32,1.19-5.54,2.46,2.73-2.84-2,2.38-2.07,2.44a14.55,14.55,0,0,0-1.9,4.39c-.64,2.63-.34,5.59,1.59,7.58,3.33,3.42,8.4,2,12.32.67,4.88-1.7,8.62-9.25,6-13.91-3.39-6-10.71-7.35-16.76-5-4.19,1.6-7.87,7.83-6.59,12.28a11.16,11.16,0,0,0,8.48,7.89c5,1.16,9.43-1.19,13-4.44,3-2.67,4.94-8.93,1.38-11.87-5.12-4.24-12.67-3.15-17.41,1-2.47,2.18-6.3,7.4-3.58,10.91,2,2.55,5.21,2.51,8.05,1.46,2.12-.79,3.82-3.37,4.27-5.51.34-1.62,0-4.26-2.09-4.5Z"></path><path class="cls-2" d="M781.58,120.68c7.67,2.74,16.68,2.68,24.75,3.17,8.47.51,16.95,1.06,25.43,1.54q25.49,1.41,51,2.62c16.92.83,33.85,1.3,50.79,1.26,8.53,0,17.07-.14,25.6-.44,8.73-.3,17.25-1.7,25.89-2.71,6-.71,11.46-13.87,3-13.85s-16.8-.57-25.23-.33c-8.61.25-17.21.4-25.82.39-16.67,0-33.32-.69-50-1.48s-33.38-1.72-50.08-2.43c-8.55-.36-17.1-.68-25.65-1-8.38-.34-17.4-1-25.66.68-4.58.94-10.42,10.31-4,12.6Z"></path><path class="cls-2" d="M735.87,208.17a10.18,10.18,0,0,0-1-3.76c-.09-.19-.85-1.64-.38-.69a16.66,16.66,0,0,0-2.46-4.17l-10.91,14c4,2.36,8.11-.69,10.53-3.8,2.59-3.31,4.44-8.49,1.92-12.36l-9.8,15.08c6.37.88,11.48-5.5,11.59-11.45a4.89,4.89,0,0,0-3.61-5.19,5.54,5.54,0,0,0-.88-.19c-4-.69-7.56,3.1-9.22,6.21s-2.48,7.43.59,10l.2.17-1.16-1.15.11.23-.7-1.57q11.67-13.84,5.58-11.08l3.44-.53-.28,0c-3.89-.51-7.22,2.87-8.88,6s-2.4,7.17.57,9.66a13.44,13.44,0,0,0,4.57,2.32l-1.32-.52a9,9,0,0,0,5,1.18c3.38-.17,6.74-5.19,6.45-8.32Z"></path><path d="M720.34,293.56c1.22-18.4-.88-37.31-1.35-55.73q-.71-27.17-.5-54.35c.28-36.58,2.19-73,4.31-109.52.19-3.33-4.06-.3-4.25,1.88-3.1,36.67-4,73.65-4.12,110.44q-.06,27.61.8,55.22c.29,9.19.62,18.39,1.16,27.57.5,8.4.69,17.14,2.4,25.4.23,1.11,1.51-.36,1.55-.91Z"></path><path d="M721.89,67.56c4.63,1.62,9.63,1.24,14.49,1.36l15.89.42q15.43.42,30.87.67,30.45.52,60.88,1.13,61.35,1.2,122.7,2.76c23.28.57,46.58,1.57,69.86,1.75V71.5c-1.51,1.59-2.92,3.21-4.3,4.91-.14.17-.4,1,.1.81a49.39,49.39,0,0,0,5.28-1.74c1.26-.49,3.66-4.83,1.07-4.94-41.24-1.76-82.64-1.92-123.91-2.59s-82.61-1.44-123.92-2c-11.34-.16-22.69-.31-34-.34l-18.07,0c-5.54,0-11.18-.47-16.58,1-.36.09-.89.85-.33,1Z"></path><path d="M718.35,296.41c22.55,5.7,46.88,4.8,70,5.47,23.88.7,47.77,1.15,71.67,1.5q70.5,1,141,.5,10-.08,19.93-.17c4.88,0,12.07,1.28,16.59-.85,2-.94,4.51-3.68,3.48-6.13s-3.67-2-5.1-.42c-.68.76-1,2.89.62,2.31-1.1.39-4.34-.08-5.53-.07l-7,.08-15.94.14q-15.45.12-30.89.17-32.13.1-64.25-.09c-41.21-.25-82.42-.93-123.62-1.71-23.38-.45-46.58-1.42-69.89-3.32-1.12-.09-2.49,2.24-1.09,2.59Z"></path><path d="M1038.55,295.09a13.88,13.88,0,0,0,.16,2c0,.1.15,0,.15-.07a17.46,17.46,0,0,0,.16-2.17c0-.37-.48-.05-.47.21Z"></path><path d="M1037.51,84.33c-1.39,8.13-1.06,16.48-1.14,24.7q-.13,13-.11,26,.09,26,.54,51.94c.59,34.5.57,69.34,3.12,103.76,0,.68.29,1.4,1.07,1.53,5,.82,2.91-10.27,2.83-12.4q-.57-14.46-1-28.94-.91-27.93-1.46-55.89t-.76-55.9q-.1-14-.21-27.9c-.08-9.13.69-18.73-1-27.74-.23-1.23-1.75.22-1.85.82Z"></path><path d="M716.36,99.24c9.74.06,19.5-1.1,29.23-1.54,10.94-.5,21.88-.55,32.83-.44,20.84.21,41.68.51,62.52.77,42,.51,84.11.77,126.16,1.44,6,.09,69,.89,69.05,2.93l1.19-2.22-.17.72c.1-.61-.41-1.08-1-.62l-.28.24c-.39.32-.92,1-.68,1.58a2.11,2.11,0,0,0,1.7,1.47,1.85,1.85,0,0,0,1.58-.7c5.52-6.46-7.31-6.24-10.41-6.42q-16.7-.95-33.4-1.46c-22.3-.68-44.61-.87-66.91-1.17q-68.21-.93-136.39-1.68c-12-.12-24-.11-36,.32-12.77.45-26.06,1-38.4,4.54-.63.18-2,2.23-.71,2.24Z"></path><path d="M739.57,118.14c1.64,8,8.65,15.28,17.41,13.44,6.74-1.42,10.86-8.8,9.25-15.39-1.78-7.24-10-11.34-16.93-9s-10.63,10.09-7.36,16.65a1,1,0,0,0,.62.41l1.23,0a1.1,1.1,0,0,0,1-.94,8.11,8.11,0,0,0-.33-3.5c-.9-4.22,1.21-8.31,5.73-9.19a11.17,11.17,0,0,1,12.42,6.7c3.07,8.14-5.56,13.15-12.48,10-4.58-2.07-7-6.28-9.17-10.55-.45-.88-1.54.71-1.42,1.27Z"></path><path d="M776.71,127.4c4.73-3.33,4.69-11.44,3.44-16.41a1,1,0,0,0-1.16-.75c-2.61.29-1.81,3.3-1.46,5,.86,4.31-.93,7.83-1.2,12,0,.24.23.26.38.15Z"></path><path d="M776.76,126.71c18.33,2.11,36.89,2.44,55.33,2.94,18.25.48,36.5.67,54.75.69q26.6,0,53.18-.59,13.93-.33,27.87-.79,7-.22,13.93-.49c4.18-.16,8.52.28,12.33-1.56.39-.19,1.11-1.19.5-1.52-3-1.66-6.68-.79-10-.65q-7,.27-13.93.52-13.93.48-27.86.75-28.17.55-56.35.51c-36.34-.06-72.76-2.36-109.08-1.75-.74,0-1.58,1.83-.62,1.94Z"></path><path d="M779.81,110.24c17.59,2.15,35.8,1.5,53.5,1.74q27.45.38,54.92.75l53.94.67,27,.33,14,.17c3.48,0,6.07.37,9.1-1.45.31-.18.78-1,.44-1.32-2.47-2.51-6.32-1.63-9.68-1.67l-14-.18L943,109l-55-.63-54-.57c-17.76-.19-35.93-1.15-53.63.46-.72.06-1.67,1.88-.64,2Z"></path><path d="M988.91,113.5a24.64,24.64,0,0,0,0,13.88,1.24,1.24,0,0,0,.92.9,4.74,4.74,0,0,1,1.38.39c.37.14.74-.46.8-.72a10.92,10.92,0,0,0,.65-3.31,37.33,37.33,0,0,0-.83-3.64,41.59,41.59,0,0,1-.41-8.27c.06-2-2.23-.17-2.51.77Z"></path><path d="M715.69,145.33c10.16-.21,20.26-1.67,30.43-1.91,10.77-.25,21.55.07,32.3.67,20.72,1.16,41.38,3.18,62.12,4,41.88,1.57,83.9-.56,125.77-1.68l34.91-.94,17.95-.48c5.86-.16,12,.4,17.48-1.84.54-.22,1.57-1.74.7-2.15-3.93-1.83-7.88-1.19-12.13-1.07l-16,.41-32.91.86-64.77,1.7c-21.65.56-43.32,1-65,.33-21.1-.66-42.11-2.78-63.19-3.89-11.12-.59-22.27-1-33.4-.6-11.39.35-23.11.91-34.07,4.26-.9.28-1.67,2.4-.26,2.37Z"></path><path d="M717.59,168.19c10.16,1.73,21,1.21,31.28,1.34q15.89.21,31.76.23l62.68.06q62.51,0,125-.13l35.86-.08c3.21,0,35.61-.46,35.51.89l1.25-2.33c.48-.34-2.5.07-2.45.06-.41.07-.76.72-.44,1,1,1,1,2.21,2.49,2.44,1.23.2,2.18-1.21,2.44-2.21,1.85-7.13-12.3-5-15.8-5H994.32q-33.36,0-66.72.05-66.74.1-133.48.3c-12.63,0-25.26.08-37.88.26s-25.72-.44-38.16,1.5c-.53.09-1.31,1.4-.49,1.54Z"></path><path d="M777.69,171.79l-.38-.61a.71.71,0,0,0-.93-.18c-2.38,1.24-2.67,3.29-2.84,5.86-.4,6-.39,12.07-.45,18.1q-.18,18-.34,35.94c-.19,23.14.36,46.44-.75,69.55l1.35-2.08,0,.69c.26-.25.4-.91-.12-.91h-.38c-.37,0-.74.53-.79.86a3.87,3.87,0,0,0,0,1.79.85.85,0,0,0,.65.63l.38.05c1.43.18,2.84-1.45,3-2.75,1.38-9.61.39-20.05.47-29.76l.26-31.94q.12-16,.23-31.92c0-2.73-.69-31.75-.15-31.87s1.12-.92.78-1.46Z"></path><path d="M717.42,197.9c10.21,3,21.5,3,32,3.84l15.77,1.31c4.38.36,8.33,1.6,12.11-.84a1.3,1.3,0,0,0,.51-1.55c-2.15-3.39-7.84-2.36-11.53-2.63l-16.8-1.27c-10.34-.77-21-2.25-31.37-1.15-.86.09-1.88,1.95-.73,2.29Z"></path><path d="M716.49,232.07c9.19,1.74,19.1,1.26,28.42,1.32l14,.09c3.77,0,6.9.34,10.07-1.87.2-.15.47-.59.27-.84-2-2.52-4.89-1.92-7.87-1.91l-15,.06c-9.64,0-19.7-.35-29.23,1.23-.65.11-1.63,1.73-.61,1.92Z"></path><path d="M716.26,264.87c7.85,5.49,18.9,4.45,28,4.74l15.7.49c4.38.14,7.94,1.34,11.12-1.88a.8.8,0,0,0,.22-.69l-.36-1.22c-.12-.42-.51-1-1-1-17.6-.58-35.45.39-52.93-1.89-.59-.08-1.35,1-.77,1.44Z"></path><path d="M720.58,382.59c4.65-7.49,14.75-7.45,22.59-7.4,10.29.07,20.59.25,30.89.32q31.2.21,62.4.45c42.24.36,84.49.68,126.72,1.87,23.94.68,47.87,1.62,71.77,3,1.52.08,3.06-3.2,1.39-3.3-89.78-5.32-179.71-6.36-269.63-6.33-10.72,0-22.19-1.15-32.79.63-6.32,1.07-12.53,4-14.41,10.55-.24.84.75.7,1.07.19Z"></path><path d="M722.35,378.09c-2,8.5-1.54,17.93-1.75,26.63q-.33,14-.45,28-.21,27.42.27,54.84T722,542.3q.59,13.94,1.33,27.87c.47,8.72.51,17.67,1.75,26.33a1.27,1.27,0,0,0,1,1l.85.27c.27.09.58-.23.71-.42,2.22-3.21,1.45-6.4,1.22-10.2q-.43-7-.82-13.92-.81-14.41-1.43-28.86-1.22-27.86-1.79-55.74t-.55-55.74q0-13.92.14-27.84c.08-8.79,1.36-18.95-.59-27.56-.23-1-1.36.2-1.47.65Z"></path><path d="M726.12,590.77c-2.61,5.09.33,10.36,5.46,12.37,4.28,1.67,9.14,1.27,13.64,1.29l16.9.09q31.62.15,63.24.1l128.62-.2,35.89-.07,18,0c5.82,0,12,.77,17.5-1.4.62-.24,1.69-1.86.76-2.34-3.56-1.85-7.25-1.37-11.18-1.36l-15,0-29.91,0-60.82.11c-40.22.07-80.45.07-120.67.33q-16.47.1-32.94.23c-7.24.06-29.52,3.37-28.11-9.42.12-1.08-1.16-.2-1.37.22Z"></path><path d="M1028.57,379.88c4.91,6,2.56,17.9,2.4,25-.21,9.32-.35,18.64-.49,28l-.89,56.85q-.43,27.94-.93,55.88-.24,14-.47,27.95l-.22,14c0,2.33-.07,4.66-.11,7,0,1.33,0,2.66-.07,4-.69,1.64-.29,2.36,1.18,2.17l-1.11,1.2.45-.06a1.11,1.11,0,0,0,.82-1.26l-.16-.39c-.11-.25-.33-.51-.65-.42a3.39,3.39,0,0,0-2.18,2.86,1.6,1.6,0,0,0,.47,1.67c2.73,2.25,5.15-2.71,5.47-4.77,1.16-7.65.3-16.15.42-23.9q.38-25.41.71-50.83.7-50.85,1.52-101.71.21-13.94.31-27.87c.06-6.65.45-12.79-4.58-17.72-.88-.86-2.6,1.54-1.89,2.41Z"></path><path d="M722.85,400.61c20,3,40.87,2.78,61.08,3.58s40.25,1.5,60.37,2.11c40.13,1.22,80.29,1.44,120.43,1.26q34.74-.15,69.46-.86c1.89,0,3.46-4.28.91-4.22Q913.24,404.9,791.3,401c-22.53-.72-45.42-2.94-67.95-2-.59,0-1.29,1.45-.5,1.57Z"></path><path d="M722.79,467.81c9.65,1.5,19.63,1.23,29.39,1.47,10.25.25,20.51.32,30.77.4q29.55.22,59.11.19,60.18-.08,120.35-1.44,16.9-.36,33.81-.81c11.51-.31,23.41.22,34.84-1.15l-.41-3.23a35.69,35.69,0,0,0-3,3.72c-.34.46-.27,1.6.55,1.2a25.74,25.74,0,0,0,3.7-2.07c.74-.52,2.24-3.49.4-3.6-9.3-.57-18.89.4-28.21.67-10.27.29-20.55.52-30.82.75q-30.33.66-60.66,1-61,.78-121.93.53c-10.76,0-21.52-.2-32.28-.18-11.62,0-23.49-.61-35,.68-.65.07-1.53,1.68-.58,1.82Z"></path><path d="M721.69,493c19.79,1.2,39.82.72,59.64.58q30.33-.22,60.65-.51L964.3,492l33.81-.31q9-.09,17.9-.15c5.27,0,10,.05,15-1.9.18-.08.5-.56.23-.7-7.26-3.61-17.35-1.61-25.24-1.54l-30.83.26-60.65.51q-61.15.51-122.31,1.06c-23.22.24-46.68,0-69.84,1.73-.77.06-1.71,2-.67,2.08Z"></path><path d="M872.76,418.69c-9.74,1.1-16.42,11.4-15.23,20.83C859,451,871.06,458.24,881.87,455c9.67-2.92,16.69-12.53,15.54-22.72-1.22-10.82-15-19.05-24.9-13.28-.43.25-1,1-.48,1.48,2.65,2.21,6.11,1.47,9.35,2.05,4.25.75,8.2,2.62,10.47,6.47,4.78,8.08.12,18-8.18,21.27a16.88,16.88,0,0,1-20.55-7c-5.76-9.39-.26-19.52,9.47-23,.53-.19,1.09-1.64.17-1.53Z"></path><path d="M766.1,517.68c-.45-5-1.17-9.89-1.84-14.84l-2,3c23.4-1.93,46.52-2.91,70-1.23l-.86-1.24a127.73,127.73,0,0,0,.55,16.25l2.13-2.75-37.5,2.54a166.88,166.88,0,0,1-17.61.64,57.5,57.5,0,0,1-8.78-.95c-2.14-.41-4.25-1.44-6.37-1.67l.56,1.21-.89.9c.13.11.34,0,.45-.07l.12-.07a1.1,1.1,0,0,0,.46-1.07c-.09-.36-.12-.6-.45-.8-.91-.56-1.8.76-2,1.47l-.18.69a1.45,1.45,0,0,0,.43,1.56c4.17,2.38,10.3,2.59,15,2.78a153.05,153.05,0,0,0,16.45-.51q19.74-1.31,39.47-2.67a2.88,2.88,0,0,0,2.13-2.75,127.57,127.57,0,0,1-.55-16.24c0-.5-.28-1.19-.86-1.23-23.46-1.66-47.52-1.72-70.86,1.46a2.68,2.68,0,0,0-2,3c1,4.56,1.91,9.12,3.12,13.63.33,1.2,1.87-.29,1.81-1.06Z"></path><path d="M839.19,520.35c8.1-.29,3.87-11.61,5-15.82l-1.86,2c23.26-2.17,46.18-3.76,69.57-2.52l-.81-1.72q-.79,5.32-1.6,10.64c-.09.62-.86,3.07-.47,2.69-.47.46-5.21.38-5.91.43q-10.33.75-20.69,1.47L861.76,519c-6.24.43-14.44-.45-20.11,2.23-.5.23-1.57,1.71-.69,2.11,3.17,1.42,6.7.45,10.12.2l11.82-.84,25.6-1.8,11.81-.79c2.75-.18,7.75.44,10.16-1.3a5.73,5.73,0,0,0,1.86-3.44c1.16-4.3,1.38-9.15,2-13.55.08-.57,0-1.68-.8-1.72-23.33-1.23-47.38-1-70.47,2.92a2.62,2.62,0,0,0-1.85,2c-.79,3.17,2.32,12.4-1.64,13.34-.79.19-1.71,2.06-.43,2Z"></path><path d="M923.44,519.82c.48-5.78.72-11.58.91-17.37l-2.19,2.82c21.64-.6,43.28-.39,64.9.47l-1-1.42,1.65,15.74,2.94-3.19a621.46,621.46,0,0,0-65.57,2.89c-1.92.19-3.48,4.55-.93,4.29a523.26,523.26,0,0,1,64.56-2.56,3.14,3.14,0,0,0,2.94-3.18q-.82-7.87-1.67-15.74c-.06-.56-.26-1.4-1-1.43q-33-1.26-66,0c-1.21,0-2.21,1.77-2.19,2.82.09,5.57.22,11.14.61,16.69.11,1.63,1.89.09,2-.87Z"></path><path d="M822,279.88c1.72-16.24,3.37-32.51,4.49-48.8q.81-11.72,1.34-23.42c.34-7.61,1.68-16.07.21-23.57-.39-2-2.75.4-2.94,1.31-1.57,7.44-1,15.51-1.31,23.1q-.48,12.15-1.17,24.3c-.91,16.15-2,32.28-3.55,48.38-.22,2.25,2.77.21,2.93-1.3Z"></path><path d="M827.13,186.6c13.47,1.1,27.29.2,40.8.27s27,.14,40.51.27,27,.36,40.55.79q9.88.31,19.77.76c6.4.28,14.24,2,20.44.32,1-.25,3-2.69,1.48-3.46-5.2-2.56-13-1.65-18.78-1.93q-10.36-.51-20.75-.82-20.76-.65-41.54-.79-19.58-.16-39.15,0c-13.92.11-28.14-.69-42,.44-1.51.13-3.41,4-1.32,4.14Z"></path><path d="M820.1,282.84c13.75,1.32,27.84.66,41.64.75q20.44.12,40.89.31t40.89.45q10,.13,20,.27c6.15.09,13.2,1.22,19.11-.67.94-.31,2.57-2.93,1.15-3.57-5.37-2.41-13.13-1.16-19-1.24q-10.47-.17-20.94-.29-20.46-.27-40.9-.43T862,278.14c-13.46-.06-27.16-.71-40.58.45-1.54.14-3.52,4.05-1.35,4.25Z"></path><path d="M984.35,282.68c2.44-15.45,1.9-31.62,2.94-47.22,1.08-16.05,3.28-32.06,4.22-48.11.18-3.08-3.76-.59-4.08,1.24-2.72,15.75-3.6,32-4.71,47.95-1.07,15.41-3.24,32-1.22,47.41.25,1.88,2.71-.34,2.85-1.27Z"></path><path d="M770.46,599.62c1-10.54.77-21.28,1-31.87.13-5.22.2-10.45.38-15.67.15-4.63,1.14-9.52.49-14.1-.29-2.07-2.8.48-3,1.34-1.1,4.6-.75,9.62-1,14.35-.33,5.29-.66,10.57-.84,15.87-.35,10.32-.93,21,.34,31.26.27,2.2,2.52.1,2.65-1.18Z"></path><path d="M771.16,540.68c18.15.78,36.42-.07,54.6.41,17.42.45,34.83,1.06,52.25,1.65,17,.58,34,2.25,51.08,1.52,9-.39,18-.94,27-1.23,8.81-.29,18.64.21,27.24-1.77,1.13-.27,3.17-3.35,1.16-3.65-8.14-1.19-17.32.39-25.52,1-9,.63-18.09,1.23-27.15,1.64-18.06.83-36-1-54.08-1.53-17.49-.53-35-.77-52.49-1.16s-35.48-1.71-53-.37c-1.31.1-2.87,3.45-1.13,3.53Z"></path><path d="M986.79,600.41c1-4.75.46-9.75.33-14.57L986.73,571c-.27-10.26-.8-20.54-.75-30.8,0-3-4.05-.46-3.92,1.74.58,10.24.57,20.52.82,30.77l.37,14.9c.11,4.54-.39,9.62,1,14,.53,1.61,2.32-.23,2.5-1.11Z"></path><path d="M823.36,656.14c-6.33-.95-9,6.37-8.33,11.49.33,2.66,1.38,5.34,4.1,6.3a7.69,7.69,0,0,0,7.4-1.77c3.69-3.24,5.18-9.74,1.47-13.54-3.35-3.44-10.69-3.59-12.82,1.3-.28.66,0,1.91,1,1.38l1.88-.82c.17-.06.62-.56.29-.69a2.39,2.39,0,0,1-1.39-.89l-1.06,2.48c2.46-.41,4.12-1.81,6.8-1a5.61,5.61,0,0,1,4.07,6.65c-.82,3.33-5.23,5.09-7.65,2.26-3.09-3.61-1.55-10.93,3.66-11.18.73,0,1.62-1.82.62-2Z"></path><path d="M837.15,660.06c-1.76,3.84-.95,8.47-.71,12.59.2,3.54-.16,8.78,2.27,11.59.25.28.58-.16.65-.38,1.21-4.32.12-8.94-.21-13.36-.24-3.25.64-8-1.49-10.67-.17-.21-.44.07-.51.23Z"></path><path d="M835.1,658.86c3.11-.36,8.77-2.16,11.19.85,2.88,3.57-4.75,5.15-6.42,7-.13.15-.33.52-.16.71,1.8,2.07,5.62,0,7.25-1.41a8,8,0,0,0,2.94-7c-1-6.7-11.56-5-15-1.48-.31.33-.6,1.38.16,1.3Z"></path><path d="M858,652.55c-2.61,5.84-2.35,15,1.7,20.17,2.64,3.4,8.92,4.82,10.69-.22,0-.13.05-.39-.16-.34-11.35,2.25-11.24-12.4-11-19.8,0-.92-1-.24-1.21.19Z"></path><path d="M856.69,665.2l-.24-.17-.7,2.18c1.42-.51,3-.41,4.56-.71a29.71,29.71,0,0,0,6.06-2.14c.15-.07.37-.45.11-.52-3.36-.84-9.15-1.91-11.52,1.36-.31.43-.68,1.64,0,2a1.55,1.55,0,0,1,.32.2c1,.61,2.32-1.49,1.41-2.16Z"></path><path d="M873.27,659.33l.18-.32-1.39.61c1.48,1,1.6,5.57,1.91,7.21s.51,4.41,2.3,5.38c.29.15.58-.17.68-.4,1.61-3.67.15-8.67-1.05-12.3-.72-2.15-3-3.34-4.15-.77-.59,1.27.92,1.72,1.52.59Z"></path><path d="M886.59,660.65c-.4-1.55-2.25-1.6-3.29-.62-1.71,1.61-1.24,4.06-.66,6.07.64,2.21,1.88,4.39,4.18,5.16a5,5,0,0,0,5.58-1.94c2.6-3.31,3.73-10.26-.59-12.72a4.59,4.59,0,0,0-5.49.51c-1.12,1-1.86,2.93-.1,3.53.3.11.58-.42.51-.66-.13-.48,2-.24,2.13-.2a3.59,3.59,0,0,1,2,1.57,5.86,5.86,0,0,1,0,5.36c-1.13,1.9-3.11.87-4.18-.55a8.81,8.81,0,0,1-1.19-2.54c-.13-.4-.26-.81-.37-1.22,0-.66-.19-.75-.55-.28.41,1.4,2.28-.43,2-1.47Z"></path><path d="M898.85,659.68c.89,4.12,1.52,7.88.66,12.07l2.88-.45a24.74,24.74,0,0,1,2.08-6.67c.69-1.39,3.17-6.22,4.16-3.3.24.7-.2,2.18-.2,2.93a23.39,23.39,0,0,0,.2,2.89,9.68,9.68,0,0,0,1.75,5.12.79.79,0,0,0,.8.32c1-.28,1.85-.7,2.81-1.07.22-.09.55-.61.25-.79-2.8-1.67-2.44-7.05-2.25-10,.16-2.26.17-5.85-3.22-5-2.83.73-4.9,4.24-6.21,6.6a25.08,25.08,0,0,0-3.1,9.79c-.23,2.19,2.68.42,2.93-.89.86-4.47.84-9.41-1.45-13.47-.72-1.27-2.26,1-2.09,1.85Z"></path><path d="M933.17,654.72c-.09-.84-.3-.68-.67-1.37-.51-1-1.74.18-2.07.61-1.84,2.41-.9,6.3-.77,9.12s-.39,8,1.72,10.23c.26.27.59-.06.71-.31,1.19-2.69,1-5.62.89-8.53,0-1.64-.12-3.29-.21-4.93,0-.88-.74-4-.28-4.68l-1.1.65.17.15c.23,1.07,1.69-.23,1.61-.94Z"></path><path d="M927.05,654.25s6.05-2,7.06-2.11c1.3-.17,5.47-.92,6.09,0,2.31,3.39-6.85,8-8.85,9.15-1,.58-2.09,4.17,0,3.61,1.9-.51,8.12-2.51,9.69-1l.55,4.55a33.74,33.74,0,0,1-2.84,2.51c-2,1.1-6.3,2.16-7-1.33-.06-.3-.44-.08-.52.08-1.28,2.36-.74,5.37,2.16,6.3,3.9,1.25,8.11-3.19,10.19-5.85,1.73-2.23,3.43-5.82,1.36-8.45-2.65-3.33-9.49-1.59-12.74-.76v3.62c3.43-2.08,19.91-14.74,7.93-16.28-4.2-.55-10.23.3-13.62,3.13-1.21,1-3.07,3.76-.94,4.74.83.38,2.11-1.15,1.46-1.85Z"></path><path d="M823.36,4.82c-6.33-1-9,6.37-8.33,11.49.33,2.66,1.38,5.35,4.1,6.3a7.67,7.67,0,0,0,7.4-1.77c3.69-3.24,5.18-9.73,1.47-13.54-3.35-3.44-10.69-3.58-12.82,1.31-.28.65,0,1.9,1,1.37L818,9.16c.17-.05.62-.55.29-.69a2.39,2.39,0,0,1-1.39-.89l-1.06,2.48c2.46-.41,4.12-1.81,6.8-1a5.61,5.61,0,0,1,4.07,6.65c-.82,3.33-5.23,5.1-7.65,2.26C816,14.35,817.53,7,822.74,6.78c.73,0,1.62-1.81.62-2Z"></path><path d="M837.15,8.74c-1.76,3.85-.95,8.47-.71,12.6.2,3.53-.16,8.77,2.27,11.58.25.29.58-.15.65-.38,1.21-4.32.12-8.94-.21-13.36-.24-3.25.64-8-1.49-10.67-.17-.21-.44.07-.51.23Z"></path><path d="M835.1,7.54c3.11-.36,8.77-2.16,11.19.85,2.88,3.57-4.75,5.15-6.42,7-.13.15-.33.52-.16.71,1.8,2.07,5.62,0,7.25-1.41a8,8,0,0,0,2.94-6.94c-1-6.71-11.56-5-15-1.49-.31.33-.6,1.39.16,1.3Z"></path><path d="M858,1.23c-2.61,5.85-2.35,15,1.7,20.17,2.64,3.4,8.92,4.82,10.69-.22,0-.12.05-.38-.16-.34-11.35,2.25-11.24-12.4-11-19.79,0-.93-1-.25-1.21.18Z"></path><path d="M856.69,13.88l-.24-.17-.7,2.18c1.42-.51,3-.41,4.56-.7A30.35,30.35,0,0,0,866.37,13c.15-.07.37-.45.11-.52-3.36-.84-9.15-1.91-11.52,1.36-.31.43-.68,1.64,0,2a1.55,1.55,0,0,1,.32.2c1,.62,2.32-1.49,1.41-2.16Z"></path><path d="M873.27,8l.18-.32-1.39.62c1.48,1,1.6,5.56,1.91,7.2.34,1.79.51,4.41,2.3,5.38.29.15.58-.17.68-.4,1.61-3.66.15-8.67-1.05-12.29-.72-2.16-3-3.35-4.15-.78-.59,1.27.92,1.72,1.52.59Z"></path><path d="M886.59,9.33c-.4-1.54-2.25-1.6-3.29-.62-1.71,1.62-1.24,4.06-.66,6.07.64,2.21,1.88,4.39,4.18,5.16A5,5,0,0,0,892.4,18c2.6-3.3,3.73-10.26-.59-12.71a4.59,4.59,0,0,0-5.49.5c-1.12,1-1.86,2.93-.1,3.54.3.1.58-.43.51-.66-.13-.49,2-.25,2.13-.21a3.59,3.59,0,0,1,2,1.57,5.86,5.86,0,0,1,0,5.36c-1.13,1.9-3.11.87-4.18-.55a8.88,8.88,0,0,1-1.19-2.53c-.13-.41-.26-.82-.37-1.23,0-.65-.19-.75-.55-.28.41,1.4,2.28-.43,2-1.47Z"></path><path d="M898.85,8.37c.89,4.12,1.52,7.87.66,12.06l2.88-.45a24.74,24.74,0,0,1,2.08-6.67c.69-1.38,3.17-6.22,4.16-3.3.24.71-.2,2.18-.2,2.93a23.26,23.26,0,0,0,.2,2.89A9.75,9.75,0,0,0,910.38,21a.83.83,0,0,0,.8.32c1-.29,1.85-.7,2.81-1.08.22-.09.55-.61.25-.78-2.8-1.68-2.44-7.06-2.25-10,.16-2.26.17-5.84-3.22-5-2.83.73-4.9,4.25-6.21,6.6a25.08,25.08,0,0,0-3.1,9.79c-.23,2.19,2.68.42,2.93-.89.86-4.47.84-9.41-1.45-13.47-.72-1.27-2.26,1-2.09,1.86Z"></path><path d="M929.46,22.11c3.41-6.27,3.79-14.36,7.71-20.26l-1.89.28c1.53,4.59,3.05,9.2,4.61,13.79.75,2.21,1.2,5.7,3.55,6.75.23.1.48-.21.47-.42-.11-3-1.18-5.86-2.11-8.68l-4.34-13c-.34-1-1.49-.31-1.89.28-1.93,2.9-2.67,6.45-3.68,9.76-1.14,3.75-2.56,7.61-2.91,11.53,0,.33.38.19.48,0Z"></path><path d="M931.26,14.72c-.5,1.84,2.37,2.71,3.65,3,2.66.52,5.42-.11,8.08.27.16,0,.25-.16.27-.29.24-2.16-1.28-2.53-3.16-2.52a24.62,24.62,0,0,1-5.22-.2c-1-.22-2.09-.83-3.18-.7a.62.62,0,0,0-.44.48Z"></path><path d="M3.84,632.26c1.16-78.42-.21-156.91.32-235.34S6,239.79,8,161.25c1.16-43.94,2.9-87.86,4.21-131.79,0-1.45-1.62-1.32-2.31-.45-3,3.87-4.26,8-2.51,12.79.45,1.23,1.87-.42,1.71-1.26a10.5,10.5,0,0,1,2.33-9.26l-2.32-.44C5.62,109,4.16,187.35,2.84,265.59q-2,117.8-1.7,235.61C1.29,545,1.24,588.86,3,632.62c0,.65.81.06.81-.36Z"></path><path d="M2.58,633.35c2.37,4.81,10,5.19,14.61,5.55,8.55.67,17.16.86,25.73,1.31,8.1.44,16.21.9,24.31,1.31,8.76.44,18,1.74,26.75.7,1-.12,2.38-2.52.91-2.85-8.29-1.84-17.54-1.29-26-1.72q-11.37-.58-22.75-1.12c-8.49-.4-17-.73-25.48-1.06-5.54-.21-12.14-.26-16.5-4.1-.88-.78-1.9,1.28-1.55,2Z"></path><path d="M7.48,32.42c4,4.93,12.94,4.25,18.68,4.66,8.9.63,17.85.94,26.77,1.07,17.49.25,34.4-.52,51.64-3.45.33-.05.84-1,.32-1-16.3-.65-32.5-.43-48.82-.62q-11.94-.15-23.88-.7C24.32,32,16.4,31,8.58,30.73c-.66,0-1.63,1.05-1.1,1.69Z"></path><path d="M7.48,155.18c4,4.93,12.94,4.24,18.68,4.65,8.9.64,17.85.94,26.77,1.07,17.49.26,34.4-.51,51.64-3.44.33-.06.84-1,.32-1-16.3-.65-32.5-.42-48.82-.62q-11.94-.15-23.88-.69c-7.87-.35-15.79-1.38-23.61-1.65-.66,0-1.63,1-1.1,1.69Z"></path><path d="M.15,277.93c4,4.93,12.94,4.25,18.68,4.66,8.91.63,17.85.94,26.78,1.07,17.48.26,34.39-.52,51.63-3.45.34,0,.84-1,.32-1-16.29-.65-32.5-.42-48.82-.62q-11.94-.15-23.87-.7c-7.87-.34-15.79-1.37-23.62-1.65-.66,0-1.62,1.05-1.1,1.69Z"></path><path d="M1.2,400.69c4,4.93,12.94,4.24,18.68,4.65,8.9.64,17.85.94,26.77,1.07,17.49.26,34.4-.51,51.64-3.44.33-.06.84-1,.32-1-16.3-.64-32.5-.42-48.82-.62-8-.09-15.92-.34-23.87-.69S10.12,399.27,2.3,399c-.66,0-1.63,1.05-1.1,1.69Z"></path><path d="M2.24,523.45c4,4.92,12.94,4.24,18.68,4.65,8.91.63,17.85.94,26.78,1.07,17.48.26,34.4-.52,51.63-3.45.34-.05.85-1,.32-1-16.29-.65-32.5-.42-48.81-.62q-12-.15-23.88-.7c-7.87-.34-15.79-1.37-23.62-1.65-.66,0-1.62,1-1.1,1.7Z"></path><path d="M92.91,640.74c1.7-40,2-80.12,2.68-120.15q1.06-58.74,2.17-117.47Q100,285.51,102,167.88q.58-33.49,1.16-67c.39-22.27.94-44.59-.57-66.83,0-.61-.71,0-.74.32-3.81,40-3,80.49-3.71,120.61l-2,117.38q-2,117.5-3.68,235c-.71,44.74-2,89.55-1.6,134.3,0,1.59,2,.14,2-.89Z"></path><path d="M31.45,61.81a64.29,64.29,0,0,0-2.71,15c-.48,5.2-1.26,10.89.08,16,.15.58.8-.12.87-.39,1.26-4.88,1.32-10,1.74-15,.44-5.22,1.31-10.59.91-15.82,0-.64-.76-.25-.89.14Z"></path><path d="M27.38,69A9,9,0,0,1,40.2,61.8c4.94,2.42,6.22,7.41,5.06,12.48A23.69,23.69,0,0,1,39,85.5a26.2,26.2,0,0,1-4.71,3.81c-.14.09-6.49,2.79-6.32,2.44s-.06-.43-.28-.27c-1,.69-.89.76-.88,2A.64.64,0,0,0,27,94c4.34,2.45,12.19-5.33,14.67-8.25,4.2-5,8-12.45,7.07-19.14A11.46,11.46,0,0,0,35.8,57c-6.14,1-9.74,6.61-10,12.45,0,1.17,1.48.27,1.57-.47Z"></path><path d="M62.06,66.94c-1.88-2.19-4.84-1.11-6.67.65-2.79,2.69-3.23,7.12-2.92,10.77.23,2.65,2.07,5,4.74,3,3.34-2.52,3.7-9,4.8-12.58l-3.3,1c-.55,5.06.15,9.92,4,13.53.31.29.68-.45.63-.68-.88-4.7-1.77-9.56-1.27-14.34.26-2.47-3-.45-3.29,1-.41,2-.89,3.95-1.35,5.92-.23,1-.05,2.42-1.26,2.49s-.85-.84-.88-2c-.12-4.43,1.47-7.7,6.24-7.79.35,0,.8-.7.54-1Z"></path><path d="M66.2,66.82c-.94,3.42-2.06,16.81,4.73,14.74,6.13-1.86,5.21-13.33,4.84-17.94l-3.64,2.13C73.38,72,75,78.58,73.8,85a17.78,17.78,0,0,1-3.07,7.45c-1.62,2.21-6,6.8-7.81,2.38-.17-.41-.66.09-.64.38a16.56,16.56,0,0,0,.61,4.62.83.83,0,0,0,1,.62C80,96.27,78.47,75.51,75.71,63.14c-.57-2.55-3.85.82-3.58,2.61a34.31,34.31,0,0,1,.41,7c-.1,1.88-1.21,6.6-3.62,3.35-1.66-2.23-.84-7.3-.63-9.93.14-1.66-1.87-.18-2.09.64Z"></path><path d="M31.45,174.72a64.46,64.46,0,0,0-2.71,15c-.48,5.2-1.26,10.89.08,16,.15.59.8-.11.87-.38,1.26-4.88,1.32-10,1.74-15,.44-5.22,1.31-10.58.91-15.82,0-.63-.76-.25-.89.14Z"></path><path d="M27.38,181.92a9,9,0,0,1,12.82-7.2c4.94,2.42,6.22,7.41,5.06,12.47A23.64,23.64,0,0,1,39,198.41a25.82,25.82,0,0,1-4.71,3.82c-.14.08-6.49,2.78-6.32,2.44s-.06-.43-.28-.28c-1,.7-.89.77-.88,2a.64.64,0,0,0,.24.54c4.34,2.45,12.19-5.34,14.67-8.26,4.2-4.94,8-12.44,7.07-19.13A11.46,11.46,0,0,0,35.8,170c-6.14,1-9.74,6.6-10,12.45,0,1.16,1.48.27,1.57-.48Z"></path><path d="M62.06,179.86c-1.88-2.19-4.84-1.11-6.67.65-2.79,2.69-3.23,7.11-2.92,10.76.23,2.66,2.07,5,4.74,3,3.34-2.51,3.7-9,4.8-12.58l-3.3,1c-.55,5.07.15,9.93,4,13.53.31.3.68-.45.63-.68-.88-4.69-1.77-9.55-1.27-14.34.26-2.46-3-.45-3.29,1-.41,2-.89,4-1.35,5.93-.23,1-.05,2.42-1.26,2.49s-.85-.84-.88-2c-.12-4.44,1.47-7.71,6.24-7.8.35,0,.8-.7.54-1Z"></path><path d="M66.2,179.73c-.94,3.43-2.06,16.81,4.73,14.75,6.13-1.86,5.21-13.33,4.84-17.94l-3.64,2.13c1.25,6.24,2.82,12.82,1.67,19.2a17.74,17.74,0,0,1-3.07,7.44c-1.62,2.22-6,6.81-7.81,2.39-.17-.42-.66.09-.64.38a16.61,16.61,0,0,0,.61,4.62.83.83,0,0,0,1,.62c16.13-4.13,14.62-24.9,11.86-37.27-.57-2.55-3.85.83-3.58,2.62a34.31,34.31,0,0,1,.41,7c-.1,1.87-1.21,6.6-3.62,3.35-1.66-2.24-.84-7.31-.63-9.93.14-1.66-1.87-.18-2.09.63Z"></path><path d="M31.45,296.81a64.46,64.46,0,0,0-2.71,15c-.48,5.2-1.26,10.89.08,16,.15.59.8-.11.87-.38,1.26-4.88,1.32-10,1.74-15,.44-5.22,1.31-10.58.91-15.82,0-.63-.76-.25-.89.14Z"></path><path d="M27.38,304a9,9,0,0,1,12.82-7.2c4.94,2.42,6.22,7.41,5.06,12.47A23.64,23.64,0,0,1,39,320.5a25.82,25.82,0,0,1-4.71,3.82c-.14.08-6.49,2.78-6.32,2.44s-.06-.43-.28-.28c-1,.7-.89.77-.88,2A.65.65,0,0,0,27,329c4.34,2.45,12.19-5.34,14.67-8.26,4.2-4.94,8-12.44,7.07-19.13A11.46,11.46,0,0,0,35.8,292c-6.14,1-9.74,6.6-10,12.45,0,1.16,1.48.27,1.57-.48Z"></path><path d="M62.06,302c-1.88-2.19-4.84-1.11-6.67.65-2.79,2.68-3.23,7.11-2.92,10.76.23,2.66,2.07,5,4.74,3,3.34-2.51,3.7-8.95,4.8-12.58l-3.3,1c-.55,5.07.15,9.93,4,13.53.31.3.68-.45.63-.68-.88-4.69-1.77-9.56-1.27-14.34.26-2.46-3-.45-3.29,1-.41,2-.89,4-1.35,5.93-.23,1-.05,2.42-1.26,2.49s-.85-.84-.88-2c-.12-4.44,1.47-7.71,6.24-7.8.35,0,.8-.7.54-1Z"></path><path d="M66.2,301.82c-.94,3.43-2.06,16.81,4.73,14.75,6.13-1.86,5.21-13.33,4.84-17.94l-3.64,2.13C73.38,307,75,313.58,73.8,320a17.74,17.74,0,0,1-3.07,7.44c-1.62,2.22-6,6.81-7.81,2.39-.17-.42-.66.09-.64.37a16.63,16.63,0,0,0,.61,4.63.83.83,0,0,0,1,.62c16.13-4.13,14.62-24.9,11.86-37.27-.57-2.55-3.85.83-3.58,2.62a34.25,34.25,0,0,1,.41,7c-.1,1.88-1.21,6.61-3.62,3.36-1.66-2.24-.84-7.31-.63-9.93.14-1.66-1.87-.18-2.09.63Z"></path><path d="M31.45,419.57a64.29,64.29,0,0,0-2.71,15c-.48,5.2-1.26,10.9.08,16,.15.59.8-.12.87-.39,1.26-4.88,1.32-10,1.74-15,.44-5.22,1.31-10.58.91-15.82,0-.63-.76-.25-.89.14Z"></path><path d="M27.38,426.77a9,9,0,0,1,12.82-7.2C45.14,422,46.42,427,45.26,432A23.69,23.69,0,0,1,39,443.26a26.2,26.2,0,0,1-4.71,3.81c-.14.09-6.49,2.79-6.32,2.44s-.06-.43-.28-.27c-1,.69-.89.76-.88,2a.64.64,0,0,0,.24.53c4.34,2.45,12.19-5.33,14.67-8.25,4.2-4.94,8-12.45,7.07-19.14A11.45,11.45,0,0,0,35.8,414.8c-6.14,1-9.74,6.6-10,12.45,0,1.16,1.48.26,1.57-.48Z"></path><path d="M62.06,424.71c-1.88-2.2-4.84-1.12-6.67.64-2.79,2.69-3.23,7.12-2.92,10.77.23,2.65,2.07,5,4.74,3,3.34-2.52,3.7-8.95,4.8-12.58l-3.3,1c-.55,5.06.15,9.92,4,13.53.31.29.68-.45.63-.68-.88-4.69-1.77-9.56-1.27-14.34.26-2.47-3-.45-3.29,1-.41,2-.89,3.95-1.35,5.92-.23,1-.05,2.42-1.26,2.49s-.85-.84-.88-1.95c-.12-4.44,1.47-7.71,6.24-7.8.35,0,.8-.7.54-1Z"></path><path d="M66.2,424.58c-.94,3.43-2.06,16.81,4.73,14.75,6.13-1.87,5.21-13.34,4.84-17.95l-3.64,2.13c1.25,6.24,2.82,12.83,1.67,19.2a17.78,17.78,0,0,1-3.07,7.45c-1.62,2.21-6,6.8-7.81,2.38-.17-.41-.66.1-.64.38a16.56,16.56,0,0,0,.61,4.62.83.83,0,0,0,1,.63C80,454,78.47,433.27,75.71,420.9c-.57-2.55-3.85.83-3.58,2.61a34.31,34.31,0,0,1,.41,7c-.1,1.88-1.21,6.6-3.62,3.35-1.66-2.23-.84-7.3-.63-9.93.14-1.65-1.87-.18-2.09.64Z"></path><path d="M29.36,541.8a64.48,64.48,0,0,0-2.72,15c-.47,5.2-1.26,10.89.08,16,.16.59.8-.11.87-.38,1.27-4.88,1.33-10,1.75-15,.43-5.22,1.31-10.59.91-15.82-.05-.64-.76-.26-.89.13Z"></path><path d="M25.29,549a9,9,0,0,1,12.82-7.21c4.94,2.42,6.22,7.41,5.06,12.47a23.76,23.76,0,0,1-6.31,11.22,26.23,26.23,0,0,1-4.72,3.82c-.13.08-6.48,2.79-6.31,2.44s-.07-.43-.28-.28c-1,.7-.89.77-.89,2a.64.64,0,0,0,.25.53c4.34,2.45,12.18-5.34,14.66-8.26,4.2-4.94,8-12.44,7.07-19.13A11.45,11.45,0,0,0,33.71,537c-6.14,1.05-9.74,6.6-10,12.45,0,1.17,1.48.27,1.57-.47Z"></path><path d="M60,546.94c-1.88-2.19-4.84-1.11-6.66.65-2.79,2.69-3.23,7.12-2.92,10.76.23,2.66,2.07,5,4.74,3,3.34-2.52,3.7-9,4.79-12.59l-3.29,1c-.55,5.07.15,9.93,4,13.53.32.3.68-.45.64-.68-.89-4.69-1.78-9.55-1.27-14.34.26-2.46-3-.45-3.3,1-.4,2-.88,4-1.34,5.93-.23,1,0,2.42-1.26,2.49s-.86-.84-.89-2c-.11-4.43,1.48-7.71,6.25-7.79.35,0,.8-.7.53-1Z"></path><path d="M64.1,546.81c-.94,3.43-2,16.81,4.73,14.75,6.14-1.86,5.22-13.33,4.84-17.94L70,545.75c1.25,6.24,2.82,12.82,1.67,19.2a18.1,18.1,0,0,1-3.07,7.45c-1.63,2.21-6,6.8-7.81,2.38-.17-.42-.67.09-.65.38a17,17,0,0,0,.62,4.62.82.82,0,0,0,1,.62c16.12-4.13,14.62-24.89,11.85-37.27-.57-2.55-3.84.83-3.57,2.62a34.31,34.31,0,0,1,.41,7c-.1,1.88-1.21,6.6-3.62,3.35-1.66-2.24-.85-7.31-.63-9.93.14-1.66-1.87-.18-2.1.63Z"></path><path d="M51,111.06a108.43,108.43,0,0,0-1.28,17c-.11,4.29-1.3,10.65,1.15,14.38.27.41.83-.14.94-.42,1.63-4.5.89-9.61.95-14.35.08-5.74.66-11.52.45-17.26-.06-1.71-2-.31-2.21.67Z"></path><path d="M45.8,228.72c1.18-1.53,5.75,1,6.66,1.73,2.57,1.93,1.87,4.93.7,7.69-1.9,4.46-5.56,9.35-10.87,9.29L41,251.61a63.54,63.54,0,0,1,13.08.3c3.54.5,6.84,1.36,10.43,1.1.76-.06,1.36-1.32.79-1.87-5.5-5.28-16.38-4.75-23.4-3.71-1.81.26-3.42,4.43-.9,4.18,8.11-.81,16.53-10.72,16.68-18.89.1-6.05-12.34-12-13.24-4.25-.14,1.14.88.91,1.4.25Z"></path><path d="M39.47,352c4.19-.62,8.2-.81,12.19.87,1.31.55,3.94,1.29,3.46,3-.54,1.89-6,2.67-7.48,2.81s-3.36,4.09-1.32,4.14c5.36.11,18.07,2.35,9.45,10a21.7,21.7,0,0,1-7.3,4,17.36,17.36,0,0,1-4.16.84c-2.79.19-10.12-.51-4.8-7.13.2-.24.19-.89-.24-.55-2.77,2.12-6.74,6.16-3.79,9.74,4,4.89,13.59,1.24,17.84-1.24,4.43-2.58,10.57-7.06,9-13.06-1.69-6.43-9.2-7.06-14.68-6.8l-.89,4.14c3.76-.62,14.79-4.33,12.1-10.11-1.12-2.42-5-3.74-7.45-4.38a15.55,15.55,0,0,0-11.68,1.47c-.6.34-1.7,2.45-.25,2.23Z"></path><path d="M28.45,499l.06,0a1.73,1.73,0,0,0,1.2.3,2.39,2.39,0,0,0,1.36-.28l.92-.54a6.87,6.87,0,0,0,1.64-1.76l.06-.08.6-1.13.36-1.14a3.48,3.48,0,0,0,.06-1.57,1.55,1.55,0,0,0-.24-.89,1.17,1.17,0,0,0-.48-.71,1.07,1.07,0,0,0-.7-.45,1.13,1.13,0,0,0-.84-.15,2.44,2.44,0,0,0-1.39.28,6.49,6.49,0,0,0-1.83,1.34l-.79,1-.6,1.14a5.34,5.34,0,0,0-.42,2.7,1.58,1.58,0,0,0,.24.9,1.73,1.73,0,0,0,.79,1Z"></path><path d="M48.54,500.18c1.93-.08,3.66-1.74,4.63-3.27a7.32,7.32,0,0,0,1.24-3.83,3.31,3.31,0,0,0-2.38-3.3c-.42,0-.83,0-1.24,0a4,4,0,0,0-1.69.67,5.28,5.28,0,0,0-1.62,1.28,8.3,8.3,0,0,0-2.1,3.92,4.42,4.42,0,0,0,.43,3.44l.72.71a2.79,2.79,0,0,0,2,.37Z"></path><path d="M68.78,501.21a3.87,3.87,0,0,0,1.64-.66A5.18,5.18,0,0,0,72,499.31a6.52,6.52,0,0,0,1.28-1.85,6.05,6.05,0,0,0,.77-2l.14-1.27a3.72,3.72,0,0,0-.56-2.08l-.71-.7a2.8,2.8,0,0,0-2-.36,3.83,3.83,0,0,0-1.65.66A5.11,5.11,0,0,0,67.74,493a6.48,6.48,0,0,0-1.28,1.84,6.1,6.1,0,0,0-.77,2l-.14,1.26a3.76,3.76,0,0,0,.56,2.09l.71.7a2.8,2.8,0,0,0,2,.36Z"></path><path d="M38.21,600.14c-.75,6.29-2.37,13.19-1.64,19.51.33,2.86,4.42-.3,3.07-2.26l-.48-.7a.26.26,0,0,0-.37,0l-1,.67,2,1.31c1.42-6.2.86-12.95.8-19.25,0-1.8-2.26-.4-2.39.72Z"></path><path d="M39.74,599.6c1.46,3,4.16,5.33,6.29,7.88,1.84,2.19,3.39,5.71,5.85,7.17,1.28.76,2.44-1.4,2.25-2.41a3.76,3.76,0,0,0-.53-1.42c-.16-.28-.5.2-.5.37l-.1.72.87-.13c.68.38-.9-2.53-.51-1.84a25.32,25.32,0,0,0-1.58-2.39,42.62,42.62,0,0,0-3.34-4c-2.16-2.3-4.65-4.66-7.85-5.25-.62-.11-1.09.83-.85,1.32Z"></path><path d="M54.77,596.1c-1.51,4.72-1.48,9.73-1.67,14.65-.12,3-1.34,8.57,1.75,10.35a1.19,1.19,0,0,0,1.4-.41c1.63-2.07.68-5.62.87-8.18.4-5.33,1.39-11.87-.28-17-.38-1.18-1.83-.11-2.07.63Z"></path><path class="cls-3" d="M395.21,191.39c0,.43,0,.86,0,1.3q-.56,18.39-1.21,37l1.11-37,0-1.31Z"></path><path class="cls-3" d="M482.65,231.55c0-.8,0-1.6,0-2.41v2.41Z"></path><path d="M395.15,231c.51-13.39.91-26.78,1.32-40.16.06-2-2.48-.23-2.53,1.12-.41,13.39-.81,26.78-1.32,40.16-.07,2,2.48.23,2.53-1.12Z"></path><path d="M484.43,113.13a587,587,0,0,1-77.9.13c-1.28-.08-2.67,2.7-1.2,2.84l.31,0c1.3,0,2.62-2.78,1.19-2.84l-.3,0-1.2,2.84a592.3,592.3,0,0,0,78.48-.13c1.27-.09,2.31-3,.62-2.84Z"></path><path d="M394.4,230.37c3.91,4.77,12.57,4.06,18.12,4.45,8.22.57,16.47.85,24.71,1,16.72.26,33-.39,49.43-3.27.32-.05.81-.93.31-.95-15.6-.71-31.1-.4-46.71-.6-7.94-.09-15.87-.36-23.8-.72-7-.31-14-1.26-21-1.5-.63,0-1.55,1-1.05,1.61Z"></path><path d="M483.92,231c.16-38.72,1.06-77.43,1.79-116.14,0-2-2.51-.24-2.54,1.12-.73,38.72-1.63,77.42-1.79,116.14,0,2,2.53.24,2.54-1.12Z"></path><path d="M417.18,141.64a61.29,61.29,0,0,0-2.57,14.23c-.45,5-1.16,10.35.07,15.27.14.56.76-.11.83-.37,1.16-4.63,1.26-9.42,1.65-14.16.41-5,1.24-10.09.87-15.1,0-.6-.72-.24-.85.13Z"></path><path d="M413.32,148.49c1.52-12.92,19.49-7.76,17.14,4.34a22.73,22.73,0,0,1-6.2,11.39,24.25,24.25,0,0,1-4.17,3.39c-.14.09-6.42,2.81-6.26,2.49s-.06-.41-.26-.26c-.92.66-.85.72-.85,1.91a.61.61,0,0,0,.24.5c4.17,2.36,11.52-5,14-7.87,4-4.71,7.73-12,6.68-18.35-1-5.88-7-10.25-12.92-8.8-5.5,1.34-8.61,6.35-8.84,11.71-.05,1.11,1.41.25,1.49-.45Z"></path><path d="M446.27,146.53c-1.79-2.09-4.6-1.06-6.34.61-2.65,2.55-3.06,6.76-2.77,10.23.22,2.52,2,4.76,4.5,2.85,3.18-2.39,3.52-8.51,4.56-11.95l-3.13.95c-.53,4.81.14,9.43,3.79,12.85.29.28.64-.42.6-.64-.84-4.46-1.69-9.08-1.21-13.63.25-2.34-2.85-.43-3.13.95-.38,1.89-.84,3.76-1.28,5.63-.22.93-.05,2.3-1.2,2.37s-.81-.8-.83-1.86c-.12-4.22,1.4-7.33,5.93-7.41.33,0,.76-.67.51-.95Z"></path><path d="M450.2,146.4c-.86,3.27-2,16.23,4.67,14,5.63-1.93,4.78-12.7,4.43-17l-3.46,2c1.15,5.74,2.58,11.75,1.65,17.62a16.75,16.75,0,0,1-3.29,8c-1.56,2-5.44,6-7.11,1.94-.16-.4-.63.09-.61.36a16.08,16.08,0,0,0,.58,4.39.78.78,0,0,0,.91.59c15.33-4.06,13.9-23.6,11.27-35.41-.54-2.43-3.66.78-3.4,2.48.23,1.48,1.72,13-2.83,10.59-1.83-1-1-8.32-.82-10.18.13-1.57-1.78-.18-2,.6Z"></path><path class="cls-3" d="M316.16,191.39l2.58-85.33C318,134.38,317.19,162.58,316.16,191.39Z"></path><path d="M318.64,81.92c-.83-3.4-.61-6.69,1.69-9.59L318.44,72a11.64,11.64,0,0,0,.06,2.89l1.42,0,.68-2.9-2.16,0q-.84,29.88-1.66,59.75c-.56,20-1.89,40.2-1.89,60.25,0,2,2.53.24,2.53-1.12,0-20.06,1.33-40.2,1.89-60.25s1.1-39.84,1.66-59.75c0-1.53-1.66-.76-2.16,0-1,1.5-2.56,4.68-1.09,6.4a1,1,0,0,0,1.42,0c1.86-1.42,1.73-4.31,1.83-6.41.06-1.19-1.33-1.07-1.89-.37a14.76,14.76,0,0,0-2.88,13.24c.41,1.69,2.76-.49,2.44-1.79Z"></path><path d="M316.47,74.18c5,2.47,11,2.47,16.7,2.82q12.82.78,25.69,1,24.94.39,49.86-1.32c1.27-.09,2.31-3,.62-2.84-16.41,1.11-32.85,1.59-49.29,1.32q-11.87-.2-23.71-.87c-6-.35-12.68,0-18.15-2.74-1.26-.62-2.92,2-1.72,2.64Z"></path><path d="M316.67,190.21c3.9,4.77,12.56,4.06,18.11,4.45,8.22.57,16.47.86,24.71,1,16.72.27,33-.38,49.43-3.26.32-.06.81-.93.31-1-15.59-.71-31.1-.4-46.71-.59-7.94-.1-15.87-.37-23.8-.72-7-.32-14.05-1.26-21-1.51-.62,0-1.54,1-1,1.61Z"></path><path d="M406.19,190.84c0-38.73,1.78-77.44,1.78-116.15,0-2-2.54-.24-2.54,1.12,0,38.72-1.78,77.43-1.78,116.15,0,2,2.54.24,2.54-1.12Z"></path><path d="M339.45,101.49a61.65,61.65,0,0,0-2.58,14.22c-.45,5-1.15,10.36.08,15.27.14.56.76-.11.82-.37,1.17-4.63,1.26-9.42,1.65-14.16.41-5,1.24-10.09.88-15.1-.05-.6-.73-.23-.85.14Z"></path><path d="M335.58,108.33c1.53-12.92,19.49-7.76,17.14,4.34a22.63,22.63,0,0,1-6.19,11.39,25.26,25.26,0,0,1-4.18,3.4c-.14.09-6.41,2.8-6.25,2.48s-.07-.41-.27-.26c-.91.66-.85.73-.84,1.91a.6.6,0,0,0,.23.51c4.17,2.35,11.52-5,13.95-7.88,4-4.71,7.73-12,6.68-18.35-1-5.88-7-10.24-12.92-8.8-5.5,1.35-8.61,6.35-8.84,11.71,0,1.11,1.41.25,1.49-.45Z"></path><path d="M368.53,106.37c-1.79-2.09-4.6-1.06-6.33.61-2.66,2.56-3.07,6.77-2.78,10.23.22,2.53,2,4.77,4.5,2.85,3.18-2.39,3.52-8.5,4.56-12l-3.13,1c-.52,4.81.14,9.43,3.79,12.86.3.27.64-.43.6-.65-.84-4.46-1.69-9.08-1.21-13.63.25-2.34-2.85-.42-3.13,1-.38,1.89-.84,3.76-1.28,5.64-.21.92,0,2.29-1.19,2.36s-.81-.8-.84-1.86c-.11-4.22,1.4-7.32,5.93-7.41.34,0,.76-.66.51-.95Z"></path><path d="M372.46,106.25c-.86,3.27-2,16.22,4.67,14,5.63-1.93,4.78-12.7,4.43-17l-3.46,2c1.16,5.74,2.58,11.75,1.66,17.62a16.82,16.82,0,0,1-3.3,8c-1.55,2-5.43,6-7.11,1.94-.16-.4-.63.09-.61.36a15.71,15.71,0,0,0,.59,4.39.78.78,0,0,0,.91.59c15.32-4.06,13.89-23.6,11.26-35.41-.54-2.42-3.65.78-3.4,2.48.23,1.49,1.72,13-2.83,10.59-1.83-1-1-8.32-.81-10.18.12-1.56-1.79-.18-2,.61Z"></path><path d="M358.05,148.29a104.44,104.44,0,0,0-1.22,16.2c-.1,4.16-1.13,9.93,1.1,13.59.25.41.8-.13.89-.39,1.47-4.31.85-9,.9-13.51.07-5.5.63-11,.44-16.53-.06-1.62-1.94-.29-2.11.64Z"></path><path d="M415.1,208.65l0,0a1.65,1.65,0,0,0,1.15.29,2.25,2.25,0,0,0,1.29-.27l.87-.51A6.4,6.4,0,0,0,420,206.5l.06-.07.57-1.08.34-1.07a3.18,3.18,0,0,0,.06-1.5,1.51,1.51,0,0,0-.23-.85,1.13,1.13,0,0,0-.46-.67,1,1,0,0,0-.66-.43,1.12,1.12,0,0,0-.8-.14,2.35,2.35,0,0,0-1.32.27,6,6,0,0,0-1.73,1.27l-.75,1-.58,1.08a5.05,5.05,0,0,0-.4,2.57,1.49,1.49,0,0,0,.23.85,1.7,1.7,0,0,0,.75,1Z"></path><path d="M434.2,209.77c1.82-.08,3.47-1.66,4.39-3.11a6.88,6.88,0,0,0,1.18-3.64,3.14,3.14,0,0,0-2.27-3.13,11.42,11.42,0,0,0-1.17,0,3.68,3.68,0,0,0-1.6.64,4.93,4.93,0,0,0-1.55,1.21,8,8,0,0,0-2,3.73,4.19,4.19,0,0,0,.42,3.27l.68.68a2.74,2.74,0,0,0,1.92.35Z"></path><path d="M453.42,210.74a3.65,3.65,0,0,0,1.57-.62,4.79,4.79,0,0,0,1.5-1.19,5.72,5.72,0,0,0,1.21-1.75,5.56,5.56,0,0,0,.74-1.88l.13-1.2a3.57,3.57,0,0,0-.53-2l-.67-.66a2.61,2.61,0,0,0-1.87-.34,3.66,3.66,0,0,0-1.56.62,4.83,4.83,0,0,0-1.51,1.19,5.9,5.9,0,0,0-1.21,1.75,5.54,5.54,0,0,0-.73,1.88l-.14,1.2a3.57,3.57,0,0,0,.54,2l.67.66a2.59,2.59,0,0,0,1.86.34Z"></path><path class="cls-3" d="M395.17,553h.1c0,.43,0,.87,0,1.3-.37,12.27-.77,24.58-1.21,37l1.11-37Z"></path><path class="cls-3" d="M474.64,490.35c0-.8,0-1.6,0-2.4v2.4Z"></path><path class="cls-3" d="M482.72,475.62v.6q-4,.27-8,.48c0,3.76,0,7.51-.06,11.25V475.62Z"></path><path class="cls-3" d="M482.71,593.12c0-.8,0-1.6,0-2.41v2.41Z"></path><path d="M394,553.52c-.41,13.39-.81,26.78-1.32,40.16-.07,2,2.48.23,2.53-1.12.51-13.39.91-26.78,1.32-40.16.06-2-2.48-.23-2.53,1.12Z"></path><path d="M484.49,474.7c-3.16.22-6.37.58-9.53.58-1.28,0-2.33,2.84-.62,2.84,3.17,0,6.38-.36,9.53-.58,1.27-.09,2.31-3,.62-2.84Z"></path><path d="M394.46,591.94c3.91,4.77,12.57,4.06,18.12,4.45,8.22.57,16.47.85,24.71,1,16.72.26,33-.39,49.43-3.26.32-.06.8-.94.3-1-15.59-.71-31.09-.4-46.7-.59-7.94-.1-15.87-.37-23.8-.73-7-.31-14-1.25-21-1.5-.63,0-1.55,1-1.05,1.61Z"></path><path d="M484,592.56c.16-38.72,1.06-77.43,1.79-116.14,0-2-2.51-.24-2.54,1.12-.73,38.72-1.63,77.42-1.79,116.14,0,2,2.53.24,2.54-1.12Z"></path><path d="M417.24,503.22a61.11,61.11,0,0,0-2.57,14.22c-.45,5-1.16,10.36.07,15.27.14.56.76-.11.83-.37,1.16-4.63,1.26-9.42,1.65-14.16.41-5,1.24-10.09.87-15.1,0-.6-.72-.24-.85.14Z"></path><path d="M413.38,510.06c1.52-12.92,19.49-7.76,17.14,4.34a22.73,22.73,0,0,1-6.2,11.39,24.78,24.78,0,0,1-4.17,3.4c-.14.08-6.42,2.8-6.26,2.48s-.06-.41-.26-.26c-.92.66-.85.72-.85,1.91a.63.63,0,0,0,.23.5c4.17,2.36,11.53-5,14-7.87,4-4.71,7.73-12,6.67-18.35-1-5.88-7-10.24-12.92-8.8-5.49,1.35-8.6,6.35-8.83,11.71-.05,1.11,1.4.25,1.49-.45Z"></path><path d="M446.33,508.1c-1.79-2.09-4.6-1.06-6.34.61-2.65,2.56-3.07,6.76-2.77,10.23.21,2.52,2,4.76,4.5,2.85,3.18-2.39,3.52-8.51,4.56-11.95l-3.13,1c-.53,4.81.14,9.43,3.79,12.85.29.28.64-.42.6-.64-.84-4.46-1.69-9.08-1.21-13.63.25-2.34-2.85-.43-3.13.95-.38,1.89-.84,3.76-1.28,5.63-.22.93-.05,2.3-1.2,2.37s-.81-.8-.83-1.86c-.12-4.22,1.4-7.33,5.93-7.41.33,0,.76-.66.51-.95Z"></path><path d="M450.26,508c-.86,3.26-2,16.22,4.67,14,5.63-1.93,4.78-12.7,4.43-17l-3.46,2c1.15,5.74,2.58,11.75,1.65,17.62a16.75,16.75,0,0,1-3.29,8c-1.56,2-5.44,6-7.11,1.94-.16-.4-.63.09-.61.36a16.08,16.08,0,0,0,.58,4.39.78.78,0,0,0,.91.59c15.33-4.06,13.9-23.6,11.27-35.41-.54-2.42-3.66.78-3.4,2.48.23,1.48,1.72,13-2.84,10.59-1.82-1-1-8.32-.81-10.18.13-1.57-1.78-.18-2,.61Z"></path><path d="M423.8,556.89c-.75,6.29-2.37,13.19-1.64,19.51.33,2.86,4.43-.3,3.07-2.26l-.48-.7c-.09-.13-.26-.08-.37,0l-1,.67,2,1.31c1.42-6.2.86-12.95.8-19.25,0-1.8-2.25-.4-2.39.72Z"></path><path d="M425.33,556.35c1.47,3,4.16,5.33,6.3,7.88,1.83,2.19,3.38,5.71,5.84,7.17,1.28.76,2.44-1.4,2.25-2.41a3.92,3.92,0,0,0-.52-1.42c-.17-.28-.51.2-.51.37l-.09.72.87-.13c.67.38-.9-2.53-.52-1.84a23.51,23.51,0,0,0-1.58-2.39,42.62,42.62,0,0,0-3.34-4c-2.15-2.31-4.65-4.66-7.84-5.25-.63-.11-1.1.83-.86,1.32Z"></path><path d="M440.36,552.85c-1.51,4.72-1.48,9.73-1.67,14.65-.12,3-1.33,8.57,1.75,10.35a1.19,1.19,0,0,0,1.4-.41c1.63-2.07.68-5.62.87-8.18.4-5.33,1.39-11.87-.28-17-.38-1.18-1.83-.11-2.07.63Z"></path><path class="cls-3" d="M474.65,488v2.4h0C474.64,489.55,474.65,488.75,474.65,488Z"></path><path d="M388.81,437.35c.81-22.51,1.25-45,1.89-67.55,0-1.19-1.32-1.07-1.89-.37-1.2,1.5-2.91,4.94-1.36,6.75a1,1,0,0,0,1.42,0c1.86-1.42,1.73-4.31,1.83-6.41.06-1.2-1.33-1.06-1.89-.37a14.66,14.66,0,0,0-2.88,13.24c.41,1.69,2.76-.49,2.44-1.79-.84-3.41-.6-6.75,1.69-9.59l-1.89-.37a11.64,11.64,0,0,0,.06,2.89l1.42,0,.41-2.55-1.89-.37c-.64,22.52-1.08,45-1.89,67.55-.07,2,2.49.23,2.53-1.12Z"></path><path d="M479.07,372.79c-16.41,1.11-32.85,1.59-49.29,1.32q-11.86-.19-23.71-.87c-6-.35-12.68,0-18.15-2.74-1.26-.62-2.92,2-1.72,2.64,5,2.47,11,2.47,16.7,2.82q12.83.78,25.69,1,24.95.39,49.86-1.32c1.27-.09,2.31-2.95.62-2.84Z"></path><path d="M479.07,489.44a581.64,581.64,0,0,1-71.71.5c-1.31-.07-2.64,2.76-1.2,2.84a585.12,585.12,0,0,0,72.29-.5c1.27-.09,2.31-3,.62-2.84Z"></path><path d="M475.16,374.77c0,38.72-1.79,77.43-1.79,116.15,0,2,2.54.24,2.54-1.12,0-38.73,1.79-77.44,1.79-116.15,0-2-2.54-.24-2.54,1.12Z"></path><path d="M409.18,400.45a61.12,61.12,0,0,0-2.58,14.22c-.45,5-1.15,10.36.07,15.27.14.56.76-.11.83-.37,1.16-4.63,1.26-9.42,1.65-14.16.41-5,1.24-10.09.88-15.1,0-.6-.73-.23-.85.14Z"></path><path d="M405.31,407.29c1.52-12.92,19.49-7.76,17.14,4.34a22.65,22.65,0,0,1-6.2,11.39,24.78,24.78,0,0,1-4.17,3.4c-.14.09-6.42,2.8-6.25,2.48s-.07-.41-.27-.26c-.92.66-.85.73-.84,1.91a.6.6,0,0,0,.23.51c4.17,2.35,11.52-5,13.95-7.88,4-4.71,7.73-12,6.68-18.35-1-5.88-7-10.24-12.92-8.8-5.5,1.35-8.61,6.35-8.84,11.71-.05,1.11,1.41.25,1.49-.45Z"></path><path d="M438.26,405.33c-1.79-2.09-4.6-1.06-6.34.61-2.65,2.56-3.06,6.76-2.77,10.23.22,2.53,2,4.77,4.5,2.85,3.18-2.39,3.52-8.51,4.56-11.95l-3.13.95c-.53,4.81.14,9.43,3.79,12.85.29.28.64-.42.6-.64-.84-4.46-1.69-9.08-1.21-13.63.25-2.34-2.85-.43-3.13.95-.38,1.89-.84,3.76-1.28,5.63-.22.93-.05,2.3-1.2,2.37s-.8-.8-.83-1.86c-.12-4.22,1.4-7.32,5.93-7.41.33,0,.76-.66.51-.95Z"></path><path d="M442.19,405.21c-.86,3.26-2,16.22,4.67,14,5.63-1.93,4.78-12.7,4.43-17l-3.46,2c1.16,5.74,2.58,11.75,1.65,17.62a16.71,16.71,0,0,1-3.29,8c-1.55,2-5.44,6-7.11,1.94-.16-.4-.63.09-.61.36a16.08,16.08,0,0,0,.58,4.39.78.78,0,0,0,.91.59c15.33-4.06,13.9-23.6,11.27-35.41-.54-2.42-3.66.78-3.4,2.48.23,1.48,1.72,13-2.83,10.59-1.83-1-1-8.32-.81-10.18.12-1.56-1.79-.18-2,.61Z"></path><path class="cls-3" d="M316.27,551.16l2.57-84.8C318.07,494.51,317.3,522.55,316.27,551.16Z"></path><path class="cls-3" d="M343,531.1c.76-.09,1.52-.17,2.28-.22A9,9,0,0,1,343,531.1Z"></path><path d="M318.7,443.49c-.83-3.4-.61-6.69,1.69-9.59l-1.89-.37a11.64,11.64,0,0,0,.06,2.89l1.42,0,.68-2.9-2.16,0c-1.13,40-2.23,80-3.56,120-.06,2,2.49.23,2.53-1.12,1.33-40,2.43-80,3.56-120,.05-1.53-1.66-.76-2.16,0-1,1.5-2.56,4.68-1.09,6.4a1,1,0,0,0,1.42,0c1.86-1.42,1.73-4.31,1.83-6.41.06-1.19-1.33-1.07-1.89-.37a14.76,14.76,0,0,0-2.88,13.24c.41,1.69,2.76-.49,2.44-1.79Z"></path><path d="M316.53,435.75c5,2.45,11,2.48,16.73,2.82q13.38.81,26.79,1,24.39.36,48.73-1.32c1.27-.09,2.31-2.95.62-2.84-16,1.08-32.09,1.55-48.15,1.32q-12.42-.17-24.81-.88c-6-.34-12.7,0-18.19-2.74-1.26-.62-2.92,2-1.72,2.64Z"></path><path d="M316.73,551.78c3.9,4.78,12.56,4.06,18.11,4.45,8.22.58,16.47.86,24.71,1,16.72.26,33-.39,49.43-3.27.32-.06.81-.93.31-1-15.6-.71-31.1-.4-46.71-.59-7.94-.1-15.87-.37-23.8-.72-7-.31-14-1.26-21-1.51-.62,0-1.54,1-1,1.61Z"></path><path d="M405.49,437.39c0,38.71-1.78,77.42-1.78,116.14,0,2,2.54.24,2.54-1.12,0-38.72,1.78-77.43,1.78-116.14,0-2-2.54-.24-2.54,1.12Z"></path><path d="M339.51,463.06a61.75,61.75,0,0,0-2.58,14.22c-.45,5-1.15,10.36.08,15.27.13.56.76-.11.82-.36,1.17-4.64,1.26-9.43,1.65-14.17.41-5,1.24-10.09.88-15.09-.05-.61-.73-.24-.85.13Z"></path><path d="M335.64,469.9c1.52-12.92,19.49-7.75,17.14,4.35a22.64,22.64,0,0,1-6.19,11.38,25.26,25.26,0,0,1-4.18,3.4c-.14.09-6.41,2.8-6.25,2.48s-.07-.41-.27-.26c-.91.66-.85.73-.84,1.91a.6.6,0,0,0,.23.51c4.17,2.35,11.52-5,14-7.88,4-4.71,7.73-12,6.68-18.35-1-5.88-7-10.24-12.92-8.8-5.5,1.35-8.61,6.35-8.84,11.71,0,1.11,1.41.26,1.49-.45Z"></path><path d="M368.59,467.94c-1.79-2.08-4.6-1.06-6.33.61-2.66,2.56-3.07,6.77-2.78,10.23.22,2.53,2,4.77,4.5,2.86,3.18-2.4,3.52-8.51,4.56-12l-3.13.95c-.52,4.81.14,9.43,3.79,12.86.3.28.64-.43.6-.65-.84-4.46-1.69-9.08-1.21-13.63.25-2.34-2.85-.42-3.13,1-.38,1.89-.84,3.76-1.28,5.64-.21.92-.05,2.29-1.19,2.36s-.81-.8-.84-1.86c-.12-4.22,1.4-7.32,5.93-7.41.34,0,.76-.66.51-.95Z"></path><path d="M372.52,467.82c-.86,3.27-2,16.22,4.67,14,5.63-1.93,4.78-12.7,4.43-17l-3.46,2c1.16,5.73,2.58,11.74,1.66,17.61a16.78,16.78,0,0,1-3.3,8c-1.55,2-5.43,6-7.11,1.94-.16-.39-.63.09-.61.36a15.71,15.71,0,0,0,.59,4.39.77.77,0,0,0,.9.59c15.33-4.06,13.9-23.6,11.27-35.41-.54-2.42-3.65.79-3.4,2.49.23,1.48,1.72,13-2.83,10.58-1.83-1-1-8.32-.81-10.18.12-1.56-1.79-.18-2,.61Z"></path><path d="M366.84,532.14c-8-2.69-15.29-2.81-23.57-2.53l-.64,3c8-.87,15.38-9.37,16.25-17.41.68-6.33-10.25-12.4-13.25-5.46-.87,2,1.52,2,2.22.4s5.75,1.15,6.36,1.6c3.17,2.38,1.64,6.27.09,9.2-2.48,4.66-5.55,8.08-11,8.69-1.3.14-2.46,3-.64,3,8.07-.27,15.21-.07,22.95,2.53,1.28.43,2.79-2.47,1.26-3Z"></path><path d="M425.17,445.72c3.53-.52,7-.69,10.34.88,1.15.55,2.62.92,2.1,2.32s-4.66,2-5.86,2.15-2.72,3.28-1.06,3.33c5,.12,14.14,1.83,7,8.53a15.51,15.51,0,0,1-6.91,3.23c-2.13.42-10.53.69-5.56-5.51.15-.19.15-.72-.2-.44-2.18,1.72-5.45,4.92-3,7.84,3.16,3.83,10.64,1.1,14-.83s8.22-5.21,7.69-9.84c-.67-5.83-7.34-6.53-11.95-6.31L431,454.4c3.05-.53,11.37-3.2,9.89-7.77-.69-2.13-3.86-3.24-5.8-3.79a12.65,12.65,0,0,0-9.75,1.08c-.49.27-1.35,2-.2,1.8Z"></path><path d="M120.45,127.17c5.61,6.42,12.87,11.57,18.93,17.61,6.68,6.66,13.18,13.5,19.76,20.25q20.79,21.32,41.61,42.59l3-4.59a53.94,53.94,0,0,1-6.32-.76c-.33-.05-.85.6-.57.88a45.89,45.89,0,0,1,3.9,4.47c1.67,2.2,5.45-2.38,3.81-4.06q-21.5-22-43.05-43.95c-6.25-6.37-12.42-12.83-18.85-19-6-5.78-12.94-12.69-21.21-15-.62-.17-1.43,1-1,1.54Z"></path><path d="M186.57,209.4c2.43,1.58,6.37.41,9.09.07s6.7-.05,8.87-1.92c1.65-1.42,1.92-3.42,1.6-5.45-.28-1.81-.85-3.4-.57-5.29s1.3-3.36,1.51-5.18c.15-1.31-.75-2.13-1.95-1.27-3.56,2.54-4.91,9.3-3.39,13.32.11.46.23.92.37,1.37q1.86-1.78-.6-.88c-1.58-.22-4,.63-5.55.88-3.16.51-6.37.75-9,2.65-.41.3-1,1.3-.38,1.7Z"></path><path d="M134.38,519.81l.05.41.9-1.38c3.14-.66,7.57-7.24,9.88-9.72l10.85-11.68c7.46-8,14.87-16.11,22.31-24.18L200,449.81l10.81-11.73c2-2.17,4.8-4.11,4.36-7.31,0-.2-.2-.29-.36-.35l-.63-.25c-.74-.28-1.75.5-2.19,1q-22,23.79-43.9,47.69-10.8,11.75-21.57,23.53c-3.6,3.93-7.21,7.86-10.71,11.88-2,2.31-4,4.07-3.29,7.21a.92.92,0,0,0,.72.7l.55.06a1.93,1.93,0,0,0,1.7-1l.28-.5c.23-.43.63-1.43,0-1.75-.38-.2-.6-.07-1,.09a.74.74,0,0,0-.4.76Z"></path><path d="M198.9,435.05a24.89,24.89,0,0,0,7-2c1.32-.52,2.64-1.22,4-1.65,2.79-.87,3.69-.88,4.77,2.31.94,2.77,1.18,6.13,1.61,9,.33,2.22.14,5.09,2.4,6.14.56.27,1-.3,1.25-.73,1.77-3.38.77-7.11.17-10.73-.5-3.06-.48-8.32-2.92-10.58-1.89-1.76-4.64-1-6.79-.22a45.18,45.18,0,0,0-11.48,5.89c-.67.51-1.6,2.73,0,2.58Z"></path><path d="M126.33,301.76c5.58,2.46,12.69,1.68,18.67,1.89,7,.24,13.92.53,20.89.69,2.74.06,5.06-5.43,1.7-5.33a14.45,14.45,0,0,0-5.31,1.41c-.3.11-.75.75-.46,1.06a8.87,8.87,0,0,0,4.07,2.86l2.24-5.33c-7-.27-14-.4-20.94-.58-6.37-.16-13.53-1.16-19.71.64-.7.21-2.41,2.14-1.15,2.69Z"></path><path d="M160.59,312.41a29.31,29.31,0,0,0,11.9-9.57,2.48,2.48,0,0,0,0-3.25c-3.07-2.87-5.65-6.22-8.75-9.07-1.69-1.56-4.79,2.93-3,4.6,3.09,2.86,5.67,6.2,8.78,9v-3.25a30,30,0,0,1-8.93,7.57c-1.48.86-2.76,5.07,0,3.93Z"></path><path class="cls-2" d="M874.19,445.29c.55-1.68-.55,0-.25.36l1.19.1c1.35-.06,0,2.24.78-1.06l1.74-4.08c2.94-5.11,2.76-.63.78-1.87-.17-.1-2.12-1.14-2.23-1.17s-.16-.08-.22,0a10.1,10.1,0,0,1-2.85,4.3q-3.37.67-1.09.9c0,.11.09.15.18.14.32,0,.51.24.57.71q-.18-6.81,4.43-8.79c.59,0,1.1,1.08.89.28.52,2-3.16,4.93-4.9,4.33q.1-.54.48.57a3.79,3.79,0,0,1,0-3l2.68-4.14a2.79,2.79,0,0,0,1.6-1,.35.35,0,0,0-.25-.15,1,1,0,0,1-.45-.32q-2.34-2.75-4.13,5.5l-3.53.55a9.76,9.76,0,0,1,4.84,1.56c.39.24,1.13,1.05,1.51,1.15,1.59.41,4-6.15,2.23-4.52l3.53-2.58c-.53.29-4.58-3.69-4.55-4.84l-.93,4.27.35-.94L874,435.67c-.5.61-2.25,1-2,1.62a13.34,13.34,0,0,0,2.48.57c.42.15,1,.53,1.37.65,1.88.55-1,2.61,1.14-2.17l2.68-4.12,2.26-1.32a1.27,1.27,0,0,1-.72,0c-.33-.28-1.52-.36-2-.57a12.72,12.72,0,0,1-1.47-.85c-2.51-1.55,3.14-3.28-1.47,2.81L873,435.72c-1.18,1-.77-.15.91,1.32.59.51,2.37,2.85,2.37,2.81l.93-4.27c2.09-5.55,3.16-1.48-.17-2.53a7.33,7.33,0,0,1-1.19-.68c-.41-.24-.57-.52-.49-.84q.84-3.91-3.89,6.69c1.5.18,2.68-.25,4.23.43-.35-.16,2.81,2.09,1.82,2.18.83-.07.86-6.37,3.2-4.9a11.49,11.49,0,0,1-1.16,0,13.46,13.46,0,0,1-1.35-.63c-.22-.14-.43-.94-.6-1,.33.12-3.76,3.65-2.38,4.17.73.28,1.62.15,2.37.45l.89.49c1.13,1.07,1.3.64.53-1.3l1.86-4.38c.88-1.52.22-.11-1.6-1.17-.81-.47-.93-1.22-1.64-1.69a1.72,1.72,0,0,0-.28-.92,5.88,5.88,0,0,1-1.55,3.45L872.26,436c.28-.16,2.88,1.14,3.68,1.56.36.19,3.38,2.65,3.6,2.63.54,0,.08-.38.34-1.16q1.05-5.1,4.87-5c.93.23,1.24.17.94-.18.16-.68-1.71-3.2-2-3.83-2.26-4.93-9.12,1.93-10,4.43-1.86,5.46-3.12,14.49,4.65,15.95,6.79,1.27,12.68-6,14.58-11.63a12.94,12.94,0,0,0-5.17-15.63c-5.67-3.87-12.53-5.76-18.2-1-9,7.61-9.08,27.22,5.65,27.67,13.28.41,26.89-21.07,10.76-27.21-12.82-4.88-26.45,10.14-21.91,22.7,2,5.66,7.65,8.38,13.45,7.24,7.08-1.39,12.67-8.13,13.93-15.06,1-5.76-.78-12.19-6.42-14.79a16.52,16.52,0,0,0-17.92,2.77c-5.16,4.7-8,12.93-4.21,19.33,3.18,5.34,9.88,6,15.27,4.07,6.74-2.48,13.18-9.65,12.27-17.22-.68-5.65-6.4-11.88-12.18-12.37-7.57-.64-13.81,6.29-15.15,13.27s2.6,12.37,9,14.47c13.93,4.58,26.85-18.14,12.31-24.79-5.92-2.7-12.72-2.53-17.27,2.62-5.13,5.81-5.55,13.32-.54,19.23,4,4.66,9.21,7.53,15.12,4.57,6.61-3.3,10.46-12,8-19-1.71-5-7.52-8.37-12.57-9-8.05-.93-13.88,9-14.24,15.92-.29,5.59,2.72,11.39,8.78,12,7.51.76,13.93-5.92,15.55-12.77,1.25-5.23-1-12.25-7.05-13.05-6.94-.92-12.7,5.77-15,11.56-2.11,5.29-2.68,14.19,3.74,16.67,5.82,2.24,12-2.12,15.07-6.86,3.31-5.14,3.78-13-2-16.6s-12.47-.09-16.14,4.76-5.67,12.65-1.8,18c3.3,4.6,9.72,5.5,14.74,3.58,6.41-2.45,12.32-10.45,9.49-17.44-2.21-5.48-8.82-6.43-13.78-4.5a18.25,18.25,0,0,0-10.85,13.24c-.53,2.63.27,5.69,3.37,5.79s6.19-3.1,7.06-5.78Z"></path><path class="cls-4" d="M254.86,274.63c-1.64,4.92-.78,10.75-1.28,15.93-.55,5.62-1.87,11.73-.18,17.24a1.17,1.17,0,0,0,.9.89l.91.13a.61.61,0,0,0,.52-.31c3.37-4.58,2-12.63,2.15-18,.11-4.2,1.51-13.36-2.24-16.3-.29-.22-.71.24-.78.46Z"></path><path class="cls-4" d="M242.37,280c6.6-.1,13.28-2.22,19.6-4,5.91-1.69,11.82-3.24,16.65-7.21.12-.1.35-.5.06-.56-5.36-1.09-11.16,1.63-16.2,3.15-6.63,2-13.58,3.67-19.88,6.58-.69.32-1.5,2.07-.23,2.05Z"></path><path class="cls-4" d="M267.14,282c-.24,5.38,0,10.78.05,16.16,0,3.08-.77,7.22,1.59,9.54.14.14.36-.15.4-.24,2-3.95,1.24-8.33,1-12.65-.24-4.66-.44-9.32-1.14-13.94-.2-1.36-1.89.41-1.92,1.13Z"></path><path class="cls-4" d="M277.22,284.37a65.11,65.11,0,0,1,1.2,13.14c-.06,2.93-1.33,7.29.78,9.62.13.15.31,0,.39-.11,2.38-3.56,1.88-8.34,1.69-12.47-.17-3.91-.54-8.12-2.5-11.58-.55-1-1.67.79-1.56,1.4Z"></path><path class="cls-4" d="M279,288.45c1.65-.79,3.5-3,5.27-3.17,5.41-.44,3.87,5.65,3.53,9-.39,3.74-1.37,9.31,1.45,12.32.32.34.81-.06.92-.41,1.26-3.94.75-8,1.07-12.12.26-3.27,1.45-8.12-.53-11.14-3-4.54-10.54,1.25-12.21,4.39-.23.42-.29,1.48.5,1.1Z"></path><path class="cls-4" d="M289.31,287.36c1.83-1.41,3.82-3.44,6.27-3.14s2,2.19,2.08,4.25a30.87,30.87,0,0,1-.17,4.08c-.33,4.14-1.26,7.95.7,11.77.2.4.66-.24.71-.42a53.56,53.56,0,0,0,2.36-12.23c.25-3,.75-7.55-1-10.28-3-4.72-10,2-11.7,4.92-.34.59-.13,1.69.71,1.05Z"></path><path class="cls-4" d="M312.83,288.6c4.75,2.87,11-4.72,10.94-9.2-.17-8.5-12.08-2.2-15,.73-4.4,4.44-9.29,13.58-3.41,18.89,7.05,6.38,18.91-2,24.62-6.29.14-.1.38-.72,0-.62-5.24,1.39-17.71,7.07-21.76,1.44-2.77-3.83.64-9.1,3.41-11.82,1.41-1.38,4.94-4,7.23-3.22q1.62,6.44-2.93,7.8a12.28,12.28,0,0,0-2.85,1.43c-.21.12-.62.65-.27.86Z"></path><path class="cls-4" d="M284.82,322.76c-5.33-2.63-12.73,1.55-13,7.65-.15,3.59,2.47,6.06,5.21,7.93a17.07,17.07,0,0,1,2.83,1.86,3.84,3.84,0,0,1-1.26,6.49c-1.8.79-10.44,1.77-7.48-2.73.08-.13.16-.59-.14-.5-2.77.79-5.69,3.33-4.15,6.59,2,4.22,9.27,2.64,12.4,1.08,3.57-1.78,7.39-5.7,6.91-10.06-.3-2.71-2.2-4.05-4.29-5.48a35.12,35.12,0,0,1-4.23-2.79c-5-4.62,1.37-8.58,6-7.85.85.13,2.13-1.71,1.16-2.19Z"></path><path class="cls-4" d="M290.57,326c-.05,4.74.54,9.45.81,14.18.19,3.2-.48,7,1.09,9.85.12.22.4-.08.45-.19,1.69-3.66,1.46-7.93,1.37-11.9a41,41,0,0,0-1.92-13c-.44-1.23-1.79.33-1.8,1.05Z"></path><path class="cls-4" d="M290.11,330.84c.81-2.74,3.31-5.52,6.37-5.23a4.84,4.84,0,0,1,4.07,5.85c-.71,3.8-5.32,6-7.41,9-.08.11-.18.48.06.5,6.57.45,12-9.27,9.23-14.87a6.08,6.08,0,0,0-8.13-2.85c-3.31,1.46-4.43,4.41-5,7.72-.13.73.68.32.81-.13Z"></path><path class="cls-4" d="M306.22,321.68l.19-.8c.25-1.09-1.13-.59-1.29.2-.94,4.76.17,9.94.32,14.78.12,3.69-.91,8.7,1.09,11.95.23.38.69-.15.79-.35,2.17-4.21,1.75-9.46,1.52-14.07-.2-4,0-9.73-2.5-13l-1,1.34.46.32c.2.15.43-.19.47-.34Z"></path><path class="cls-4" d="M315.25,327.45c-1.65,3.5-1.16,7.77-1.12,11.56,0,2.71-1,7.44,1.41,9.25.37.28.94-.2,1.1-.49,1.78-3.18,1.12-6.76,1-10.32-.11-3,.54-8-1.62-10.33-.28-.29-.63.07-.76.33Z"></path><path class="cls-4" d="M324.64,322l-.11-.11a.68.68,0,0,0-1,0c-1.37,1.14-1.28,3.2-1.39,4.85a57,57,0,0,0,.68,12.64c1.15,7.18,5.39,9.49,12,6.35.19-.09.48-.57.14-.66-4.93-1.38-8.06-2.41-9.29-7.77a44.31,44.31,0,0,1-1.06-7.59c-.05-1,.45-6.19-.88-6,.53-.06,1.37-1.15.88-1.66Z"></path><path class="cls-4" d="M320,336c.21,2.31,7.16-1.15,7.87-1.51a22.9,22.9,0,0,0,5.59-4c.09-.09.25-.51,0-.51-3.14-.09-6,1-8.82,2.21-1.5.65-4.84,1.64-4.64,3.85Z"></path><path class="cls-4" d="M248.94,334.31l-.24-.42-1.32,2.48c2.42-.09,4.88.37,7.31.46,3,.1,6.06-.17,9.09-.11.25,0,.69-.52.37-.69-4.59-2.39-12-5.7-16.78-2.16-.52.39-1.46,1.92-.53,2.41l.4.21c1.07.56,2.22-1.3,1.7-2.18Z"></path><path class="cls-4" d="M315.13,323.53c1.69,0,3.1-3.78.82-3.78-1.7,0-3.1,3.78-.82,3.78Z"></path></g></svg> 