<?xml version="1.0" encoding="UTF-8"?> <svg xmlns="http://www.w3.org/2000/svg" xmlns:xlink="http://www.w3.org/1999/xlink" viewBox="0 0 1857.71 791.3"><defs><style>.cls-1{fill:#fefefe;}.cls-2{fill:#f6f;}.cls-3{opacity:0.36;}.cls-4{fill:url(#linear-gradient);}.cls-5{fill:#548cdd;}.cls-6{opacity:0.25;}.cls-7{opacity:0.08;}</style><linearGradient id="linear-gradient" x1="964.38" y1="310.66" x2="964.38" y2="566.05" gradientUnits="userSpaceOnUse"><stop offset="0" stop-color="#548cdd"></stop><stop offset="1" stop-color="#548cdd" stop-opacity="0"></stop></linearGradient></defs><g id="Layer_1" data-name="Layer 1"><path class="cls-1" d="M11.69,1.54.42,444.71,6.17,761.29l332.24,12.58,454.83,5.32,463.38,2.4,577.65-2.12,14.4-5.61s7-45.74,6.68-55.05-10.45-243.46-10.45-243.46l-.77-129L1846,152.08l.67-136.19-480-5.77L696.09,6,18.53.22l-6,.1Z"></path><path class="cls-2" d="M579.69,96.57c28.86,1.22,57.82,1.27,86.7,1.55q84.4.81,168.8,1.16,99.18.52,198.37.75,87.62.27,175.24.39c33.24,0,67.07-.24,100-.31,2,0,2.9,0,4,0,2.91,0,5.82-6.26,2.66-6.31-28.87-.48-57.74-1.09-86.62-1.36-56.27-.52-112.55-.64-168.82-.9q-99.18-.45-198.36-.76-87.63-.3-175.26-.53c-33.15-.09-66.36.22-99.48-.28-1.46,0-2.93,0-4.39-.09-3-.08-6.22,6.54-2.82,6.69Z"></path><g class="cls-3"><path class="cls-4" d="M157.17,469.44c2.72-14.72,20.56-27.42,41.45-29.52,8.55-48.81,31.18-96.23,66.05-138.53l43,150.22c26.06-44.69,37.82-93.32,34.24-141.33l20.23,21.49,34.68-81.52A944.38,944.38,0,0,1,430.5,470l25.81-74c7.74,3.91,18.49-1,23.47-6.67s8.14-12.73,16.38-16c10-4,23.27-.19,30.33,6.2s9.41,14.67,11.56,22.62q6.41,23.7,12.83,47.43c.57,2.11.73,4.86-2,5.79s-4.43-3.54-1.55-2.84c2.59,4,7.91,7,13.95,8A698,698,0,0,0,595,362.24c.45,5.94,13.81,5,20.1,1.09s14.59-9.27,21.63-6c3.26,1.53,4.55,4.42,5.61,7.08l41.16,103.66A468,468,0,0,0,724,356.51l13.5,30.79,7.18-12c26.82,32.92,43.13,70.11,47.33,108,25.93-32.33,44.15-67.69,53.71-104.18l11.36,17,11.79-27.11c44,28.89,5.59,86.36,41.34,120.67,4.67,4.48,11.91,8.68,19.52,7.52,7.33-1.11,11.33-6.57,14.36-11.44l59.61-95.73c5.16,7.22,11,15,21.3,18.45s25.69-.42,25.79-8.47a131.12,131.12,0,0,1,24.14,36.06l26.67-60.73c11.49-2.51,25.07,5.11,24.42,13.68,3.35-4.33,13.09-3.85,18.12-.33s6.59,8.77,7.91,13.68q9.11,33.93,18.23,67.91l45.09-105.11c5.23-12.19,17.76-27.27,34.89-23.16,9.52,2.29,14.37,9.71,18.12,16.36l25,44.26c1.83,3.25,4.18,6.87,8.81,8,6.24,1.55,12.22-2.26,16.53-5.72l45.75-36.77a200.33,200.33,0,0,0,42,39.63c16-1.3,23.72-14.09,28.5-25l38.21-87.35,75.49,42.64c-2.67-12.51,23.55-18.76,38-11.32s19,21.15,22.32,33.59l57.8-78.31a450.63,450.63,0,0,1,42.17,61c2.3-34.46,15-68.25,36.93-98.36L1774,266.45l-1.69,334.9L154.76,595Z"></path></g><path class="cls-5" d="M1774,268.24a1.23,1.23,0,0,1-.25-.05,3.65,3.65,0,0,1-1.32-.67c-.3-.22-.59-.46-.88-.68q-1.82-1.38-3.66-2.7c-.94-.68-1.88-1.34-2.83-2-6.37-4.46-12.85-8.62-19.2-13.35a203.57,203.57,0,0,0-13.58,22.4c-.89,1.69-1.75,3.41-2.59,5.13a180.82,180.82,0,0,0-18,65.84,5.85,5.85,0,0,1-1.63,2.7c-.88.91-2,1.57-2.83,1.16a1.77,1.77,0,0,1-.8-.77q-8.62-14.88-18.51-29.27c-.71-1-1.43-2.08-2.15-3.11q-9.22-13.22-19.54-26c-3.23,4.4-6.46,8.77-9.7,13.17v0l-3,4.05-8.41,11.39c-.83,1.12-1.65,2.25-2.49,3.37L1611,361.65c-.89,1.2-4.31,2.87-5,.4a87.94,87.94,0,0,0-5.86-16.5l0,0s0,0,0,0,0,0,0,0h0c-.64-1.28-1.35-2.55-2.12-3.77-.18-.28-.36-.56-.55-.84a31.7,31.7,0,0,0-14.22-12c-5.46-2.32-19.2-3.34-26.72,0a11.81,11.81,0,0,0-2.47,1.45,6.23,6.23,0,0,0-2.55,6.17c.29,1.89-2.12,6-5.06,4.31l-1.11-.63-2.77-1.55-30.92-17.42-2.39-1.33-17.94-10.11-2.78-1.57-14.43-8.12q-4.21,9.66-8.45,19.35c-.92,2.11-1.84,4.24-2.77,6.36L1452.75,349c-5.93,13.6-10.63,28.46-18.46,41.54h0c-.78,1.32-1.6,2.6-2.45,3.87a2.47,2.47,0,0,1-.32.38.31.31,0,0,0,0,.09,38.46,38.46,0,0,1-12.67,12.08,29.87,29.87,0,0,1-3.46,1.68c-.79.33-1.6.63-2.42.9-1.07.34-2.18.63-3.31.87-4.89,1-5.47.49-9.36-2.39a214.7,214.7,0,0,1-21-17.77c-.9-.88-1.8-1.76-2.68-2.65-2.84-2.83-5.57-5.75-8.2-8.72-.82-.91-1.62-1.84-2.4-2.77-1-1.15-2-2.3-2.9-3.48q-14.21,11.4-28.48,22.91c-3.25,2.61-6.71,6-10.49,9.16-.89.75-1.79,1.48-2.72,2.19s-1.74,1.3-2.64,1.91-1.66,1.09-2.52,1.59a28.09,28.09,0,0,1-8.92,3.5c-9.83,1.9-14.61-4.45-18.23-10.85q-8.64-15.24-17.25-30.56c-.53-.94-1.05-1.9-1.57-2.9l-.51-1c-.63-1.22-1.26-2.48-1.91-3.73l-.75-1.45c-3-5.77-6.66-11.61-12.28-15.32-10-6.62-21.18-2.48-27.77,4.34a43.33,43.33,0,0,0-7.19,10.29c-1.05,2-2,4-2.87,6.1-.78,1.85-1.54,3.7-2.31,5.54-.33.8-.66,1.58-1,2.37-.63,1.47-1.26,2.79-1.88,4.26a.61.61,0,0,0,0,.14q-5.61,13.06-11.22,26.17-13.59,31.68-27.3,63.59c-.69,1.59-5.68,4.51-6.51,1.38-.25-.91-.48-1.81-.73-2.72-.84-3.12-1.67-6.23-2.51-9.37l-4.53-16.86q-1.32-5-2.65-9.91h0a0,0,0,0,1,0,0s0,0,0,0,0,0,0,0,0,0,0,0c-.93-3.44-1.85-6.8-2.78-10.25-2-7.59-3.62-15.36-6.27-22.87-1.21-3.48-3.17-7.24-7.23-9.36-2.93-1.52-9.21-2.73-11.61-.32-1.53,1.52-6,3.08-6.07-.29-.08-4.29-3.22-7.6-7.52-9.6a18.82,18.82,0,0,0-2.71-1.06,25.13,25.13,0,0,0-7.49-1.19h-1.07l-1.75,4-23.83,54.34c-.81,1.85-5.35,4.3-6.7,1.35a126.37,126.37,0,0,0-11.19-19.66c-.85-1.24-1.72-2.46-2.63-3.68-2.09-2.83-4.32-5.6-6.69-8.35a17.36,17.36,0,0,1-2,1.78,16,16,0,0,1-2.24,1.47,29.76,29.76,0,0,1-15.17,3.52c-11.54-.24-19.56-6.55-25.67-13.63-.86-1-1.67-2-2.45-3l-.28.45q-4.35,7-8.7,14s0,0,0,0,0,0,0,0,0,0,0,0,0,0,0,0a0,0,0,0,0,0,0c-.91,1.38-1.83,2.82-2.73,4.21a.31.31,0,0,0,0,.09q-14.58,23.42-29.27,47c-4.47,7.16-8.45,14.81-13.27,22-.87,1.3-1.77,2.59-2.69,3.85s-1.75,2.31-2.67,3.43a28.61,28.61,0,0,1-4.06,4,26.16,26.16,0,0,1-2.62,1.85,21.25,21.25,0,0,1-15.4,2.91c-18.21-3.49-26.61-22-29.76-34.81-.2-.79-.38-1.58-.53-2.33-2.73-13-1.31-28.13-2-42.9-.4-8.8-1.53-17.4-4.74-25.45v-.07a47.9,47.9,0,0,0-2.64-5.63h0a0,0,0,0,1,0,0,0,0,0,0,1,0-.05,48.12,48.12,0,0,0-12-14.13q-4.56,10.43-9.11,20.9c-.56,1.28-5.15,5.9-7.17,2.85q-3.46-5.18-6.92-10.39a267.6,267.6,0,0,1-12.89,33.51c-1,2.09-2,4.18-3,6.25-.28.57-.56,1.14-.85,1.7q-1.25,2.52-2.57,5a316.93,316.93,0,0,1-32.71,49.88c-1.61,2-6.29,3-6.66-.17a191,191,0,0,0-13.74-51.71c-.06-.16-.13-.31-.19-.47-.78-1.86-1.6-3.65-2.46-5.49v-.07c-.14-.32-.28-.63-.43-.94a227.29,227.29,0,0,0-26.8-43.78l-3.5,5.83c-1,1.7-6,4.58-7.38,1.33q-4.41-10.05-8.82-20.15-2.26,8.87-4.91,17.65s0,0,0,0,0,0,0,0,0,0,0,0,0,0,0,0,0,0,0,0v0c-.91,3.06-1.87,6.05-2.85,9.1a.49.49,0,0,1,0,.12c-1.05,3.27-2.15,6.47-3.28,9.72q-1.55,4.49-3.21,9a505.39,505.39,0,0,1-23.55,53.9c-.85,1.69-5.95,4.48-7.17,1.39q-7.65-19.27-15.34-38.61h0s0,0,0,0h0c-.88-2.22-1.76-4.38-2.65-6.6v-.06c-3.36-8.47-6.74-16.88-10.13-25.37q-1.47-3.71-3-7.41c-1.21-3-2.44-6.09-3.65-9.14q-2.26-5.68-4.55-11.38c-1.11-2.79-2-8.08-5.38-10-8-4.66-15.94,3.92-22.24,6.4a26.42,26.42,0,0,1-2.6.86c-.75.21-1.55.41-2.37.58a26,26,0,0,1-10.78.19q-4.14,15.21-9,30.28c-1.09,3.4-2.22,6.77-3.37,10.15q-8.62,25.33-19.31,50.36c-.67,1.58-3.14,4.5-6.24,3.85a47.36,47.36,0,0,1-4.63-1.23,25.31,25.31,0,0,1-2.67-1,18.16,18.16,0,0,1-1.87-.94,30.57,30.57,0,0,1-2.59-1.95h-.25c-5.3.14-6.5-4.19-4.65-6.89a7.07,7.07,0,0,1,3.48-2.72c0-.11,0-.21,0-.33-.48-1.75-1-3.52-1.43-5.28l-2.85-10.54L536,412c-2.45-9.07-3.79-21.2-12.51-29.21a23.93,23.93,0,0,0-3.25-2.55,29.84,29.84,0,0,0-3.71-2.09,26.87,26.87,0,0,0-16.37-2.48,18.55,18.55,0,0,0-2.77.75,17.59,17.59,0,0,0-5.53,3.17c-4.42,3.76-6.41,8.77-10.57,12.7-5.15,4.88-13.62,9.26-22.51,8.24-.76,2.14-1.51,4.3-2.26,6.44-1.15,3.31-2.3,6.6-3.45,9.9-2.85,8.19-5.71,16.35-8.57,24.55v0c-.88,2.54-1.76,5-2.65,7.56v0q-3.57,10.26-7.15,20.52c-.85,2.44-8.46,6.31-8.62,1.61a957.8,957.8,0,0,0-30.57-208.3c-.46,1.1-.94,2.18-1.38,3.26q-2.12,4.92-4.2,9.86c-.08.19-.17.38-.25.58-.91,2.13-1.82,4.27-2.72,6.4q-10.29,24.19-20.58,48.52c-.68,1.6-5.34,5.73-8.05,2.85q-5.75-6.06-11.45-12.14a240,240,0,0,1-12,78v0c-.87,2.71-1.81,5.42-2.79,8.12a269.88,269.88,0,0,1-13.27,30.52c-1.1,2.18-2.24,4.36-3.43,6.51h0c-1.22,2.27-2.48,4.52-3.78,6.77-.93,1.61-7.28,5-8.3,1.48q-11.71-40.9-23.51-82-1.36-4.72-2.72-9.49-7.46-26-14.87-52.19-6.14,7.95-11.73,16.09h0c-1.35,2-2.68,3.93-4,5.9a318.94,318.94,0,0,0-21,37.23h0c-1,2.06-2,4.11-2.88,6.19h0a290.51,290.51,0,0,0-20.55,64.24c-.28,1.41-2.3,2.78-4.37,3a55.86,55.86,0,0,0-22.7,7.45c-1.24.77-2.42,1.59-3.55,2.44-.59.46-1.17.92-1.72,1.41a33.39,33.39,0,0,0-2.64,2.53,28.83,28.83,0,0,0-7.19,12.73c-.25,1-1.52,1.81-2.79,2.13-1.55.41-3.08,0-2.71-1.68,1.55-7.24,6-13.93,12.67-19.39.85-.7,1.73-1.38,2.65-2,.56-.41,1.13-.8,1.72-1.18,1.14-.75,2.32-1.47,3.55-2.14a67.42,67.42,0,0,1,20.57-7.14A280.22,280.22,0,0,1,223,358h0q1.42-2.76,2.92-5.49a324.39,324.39,0,0,1,21.18-33.78q1.95-2.74,4-5.48c3.12-4.19,6.35-8.36,9.7-12.46,1.08-1.32,7.16-4.92,8.22-1.25q4,13.88,8,27.69l2.67,9.25q15,52.26,29.83,104.18,3.17-6,6-12.17c1.22-2.64,2.38-5.3,3.49-7.95A247.65,247.65,0,0,0,332.52,378s0,0,0,0q1.86-8.43,3.1-16.95v0a233,233,0,0,0,1.88-49.55c-.13-2,5.39-6.82,8.3-3.72q7.77,8.25,15.49,16.49,13-30.37,25.81-60.59h0c.92-2.16,1.84-4.31,2.75-6.47h0l1.32-3.08c.5-1.2,1-2.37,1.5-3.55a7.37,7.37,0,0,1,2.53-2.34c2.21-1.4,5.12-2.29,5.83.29a949.8,949.8,0,0,1,32.91,199.91c2.66-7.63,5.32-15.21,8-22.81,0,0,0,0,0,0,.91-2.61,1.82-5.19,2.72-7.79a0,0,0,0,1,0,0q3.72-10.69,7.45-21.35a5.43,5.43,0,0,1,1.37-2,6.43,6.43,0,0,1,3.39-1.77,5.05,5.05,0,0,1,2.52.28c13.93,5.46,20.72-10.61,26.43-16.17a29.43,29.43,0,0,1,11.74-7.08,26.28,26.28,0,0,1,2.78-.72h0a28.54,28.54,0,0,1,4.24-.55,34.78,34.78,0,0,1,16,2.6,29.45,29.45,0,0,1,3.28,1.63c8.71,5,14,13.57,16.45,21.12,3,9.13,5.13,18.4,7.61,27.58,1.11,4.09,2.57,8.3,3.92,12.53,1,3.2,2,6.42,2.65,9.6v.05a45.57,45.57,0,0,1,.95,6.21,9.16,9.16,0,0,1-.64,3.85,19.37,19.37,0,0,0,4.47,2.39,725.39,725.39,0,0,0,26-73.06q1.88-6.3,3.62-12.63,1.07-3.81,2.08-7.63c.49-1.81,7.14-6.11,8.14-2.22s5.86,3.35,10.49,1.72c.27-.09.55-.19.82-.3a55.9,55.9,0,0,0,7.67-3.65c4.33-2.47,9.82-5.38,15.86-5.06a12.74,12.74,0,0,1,10.86,6.35,54.8,54.8,0,0,1,4.48,9.88c1,2.81,1.91,5.6,2.93,8.32.18.49.36,1,.55,1.46q4.59,11.64,9.19,23.25h0c.88,2.23,1.76,4.43,2.63,6.64q9.93,25.07,19.85,50a473.88,473.88,0,0,0,26.51-67.55q1.8-5.81,3.4-11.67,3.18-11.41,5.74-22.93c.46-2,6.18-5.77,7.77-2.16q5.39,12.22,10.72,24.43l2.59-4.31c.81-1.34,5-4.42,7-2a240,240,0,0,1,23.4,34.75c.09.17.19.28.28.44s0,0,0,0,0,0,0,0,0,0,0,0q1.35,2.43,2.61,4.89l0,.07h0a202.73,202.73,0,0,1,20.39,61.66,290.89,290.89,0,0,0,32.4-54.34c.89-1.94,1.75-3.9,2.57-5.86v0c.44-1,.86-2,1.28-3q1.62-3.92,3.1-7.86,4.45-11.94,7.71-24.13c.39-1.46,5.25-5.72,7.18-2.82,2.58,3.89,5.16,7.75,7.76,11.62q4.1-9.45,8.19-18.87c.6-1.36,3.82-5.2,6.56-3.33a56,56,0,0,1,10.58,9.2c1,1.08,1.86,2.19,2.7,3.31a50.55,50.55,0,0,1,5.16,8.59,51.86,51.86,0,0,1,2.72,6.93,68,68,0,0,1,2.47,10.88c2.14,14.59.83,29.2,2.09,43.78,1.2,14.06,5,32.57,21,42.17,8.26,5,14.12,3.14,18.56-1a24.39,24.39,0,0,0,2.62-2.83,90.84,90.84,0,0,0,6.75-10.59l.63-1c.69-1.11,1.39-2.21,2.08-3.33q7.81-12.54,15.61-25.06c9.06-14.55,18.11-29,27.12-43.44a0,0,0,0,1,0,0v0h0v0l2.76-4.44q3-4.79,6-9.57a8.07,8.07,0,0,1,2.86-2.35,3.22,3.22,0,0,1,2.82-.28,2.18,2.18,0,0,1,.82.69c4.24,5.92,8.87,12.48,16.53,16.23,5.29,2.61,20.43,4.84,23.22-1.17a.86.86,0,0,1,0-.16,3.88,3.88,0,0,0,.4-1.3,1.29,1.29,0,0,1,.05-.24c.49-1.92,4.23-6.19,6.82-3.37,1.33,1.45,2.6,2.9,3.86,4.37.91,1.08,1.8,2.16,2.66,3.24a137.75,137.75,0,0,1,14.74,22.49q5.2-11.84,10.39-23.61c2.15-4.89,4.28-9.75,6.43-14.63,2-4.58,3.29-10.43,6.41-14.59a7.41,7.41,0,0,1,3.65-2.5,12.19,12.19,0,0,1,2.76-.59,24.82,24.82,0,0,1,7.61.45c.94.18,1.85.41,2.71.66.4.11.79.23,1.16.36,6.32,2.13,10.88,6.09,12.53,10.91a19.24,19.24,0,0,1,14.23,0c8.68,3.26,10.89,11.12,12.66,17.66.28,1,.55,1.95.83,3h0s0,0,0,0,0,0,0,0,0,0,0,0,0,0,0,0c.87,3.23,1.74,6.44,2.6,9.67v.1c1.55,5.74,3.09,11.35,4.62,17.08.82,3,1.63,6.09,2.45,9.11L1171.4,460q13.68-31.93,27.28-63.65c4.5-10.48,8.74-21.06,13.47-31.42h0c.13-.31.27-.6.41-.91.75-1.63,1.58-3.25,2.49-4.84a.13.13,0,0,1,0-.06c.76-1.32,1.58-2.57,2.47-3.85s1.81-2.47,2.8-3.66a45.19,45.19,0,0,1,5.61-5.63c12.7-10.71,31.35-9.84,41.51,3.85l.34.47c.21.29.41.59.62.89.6.86,1.17,1.72,1.74,2.59l.72,1.12c4.79,7.58,8.65,15.63,13,23.28q4.46,7.9,8.9,15.8c2.24,4,4.55,10.79,9.73,13s10-.45,14-3.5c.9-.68,1.75-1.38,2.55-2.06l1.82-1.5.71-.57,2.73-2.19,9.94-8q14.34-11.5,28.57-22.94a4.34,4.34,0,0,1,3.64-.95,1.87,1.87,0,0,1,.88.63c.51.66,1,1.29,1.54,1.93q3.83,4.71,8,9.23c.88.95,1.78,1.9,2.69,2.84a200.22,200.22,0,0,0,23.62,21c3.62,2.76,5.4,4.17,10,2.67l.35-.12c.71-.25,1.41-.54,2.07-.85a24.47,24.47,0,0,0,6.74-4.79c4.17-4.13,6.86-9.15,9.15-14.16l.26-.57q1.44-3.13,2.86-6.27c10-22.1,19.48-44.3,29-66.35.93-2.17,1.87-4.36,2.82-6.53q1.95-4.5,3.92-9c.59-1.35,3-3.28,5-2.16l13.46,7.63,2.8,1.59,18,10.21,2.39,1.35L1542.78,331l2.77,1.57.84.48c1.38-3.39,4.25-6.06,7.9-8a26.45,26.45,0,0,1,2.45-1.19,43.56,43.56,0,0,1,20.09-2.93,32.27,32.27,0,0,1,20.91,9.93c.25.25.48.48.71.73.7.77,1.37,1.56,2,2.38.07.1.14.18.21.27,4.6,6,7.63,13.17,9.78,20q16.36-22.2,32.6-44.2c.84-1.14,1.67-2.28,2.52-3.42l8.27-11.21s0,0,0,0c1-1.37,2-2.68,3-4q3.89-5.26,7.77-10.5c.83-1.12,3.31-2.55,4.66-.89q8.88,11,17,22.24c.73,1,1.45,2,2.17,3q9.93,14.05,18.65,28.58c.18-1.33.37-2.66.57-4a.11.11,0,0,1,0-.05s0,0,0,0h0s0,0,0,0q1.27-8.54,3.36-16.85a.53.53,0,0,1,0-.13,194.75,194.75,0,0,1,19.23-48q1.23-2.22,2.54-4.43c3.39-5.72,7.06-11.33,11-16.77.61-.85,2.65-2.27,4-1.25,6.3,4.87,11.71,10.43,17.41,15.72q1.4,1.3,2.82,2.58c1.2,1.07,2.41,2.12,3.66,3.14.71.61,1.44,1.18,2.18,1.76a.35.35,0,0,1,.12.1C1775.9,266.94,1775.39,268.42,1774,268.24Z"></path><path d="M11.74,762.67c.18-45.38-2.59-128.52-3.64-173.89q-1.6-69.3-1.4-138.64c.2-95,2.63-189.9,6.23-284.79C15,112,17.72,58.61,20.07,5.24c.1-2.16-1.78-3-3.6-2.34-2.13.78-3.47,3.41-3.59,5.54C7.39,103.49,4,198.77,1.89,294-.22,387.68-.8,481.47,1.37,575.21,2.53,625.4,3,714,9.08,763.85c.26,2.14,2.66.21,2.66-1.18Z"></path><path class="cls-6" d="M121.83,662.3c-1.06-39.83-3.41-79.62-4.56-119.45q-1.55-53.28-1.47-106.58c.14-70.55,2.66-141,5.87-211.52,2.14-46.95,4.71-93.89,7-140.84.1-2.24-2.8-.24-2.89,1.29-4.29,78.92-8.28,157.91-10.69,236.91-2.13,69.41-2.58,138.85-.71,208.26,1.18,44.12,2.51,88.43,6.43,132.41.07.85,1.08.09,1.07-.48Z"></path><path class="cls-7" d="M175.89,662.3c0,.57-1,1.33-1.08.48s-.17-1.85-.24-2.77c-.11-1.16-.21-2.32-.31-3.48h0c-1.74-20.45-2.93-41-3.84-61.5-.95-21.55-1.58-43.13-2.16-64.65q-1-36.92-1.15-73.88c0-1.12,0-2.23,0-3.36v-1c0-.62,0-1.25,0-1.87.85-.7,1.73-1.38,2.65-2v2.67c0,1,0,2,0,3q.15,44.44,1.48,88.88c.51,17.4,1.26,34.79,2,52.19.9,20.52,1.84,41,2.46,61.54h0c0,1.16.07,2.31.1,3.47h0C175.85,660.8,175.87,661.55,175.89,662.3Z"></path><path class="cls-7" d="M230.85,662.3c0,.57-1,1.33-1.08.48l-.12-1.34h0l-.3-3.44c-1.8-20.86-3-41.8-3.95-62.75-1-21.62-1.59-43.27-2.18-64.87-1.42-51.65-1.52-103.32-.58-155,0,0,0,0,0,0q.08-4.67.17-9.32c.06-2.71.11-5.41.17-8.11h0q1.42-2.76,2.92-5.49c-.07,2.59-.13,5.19-.19,7.78-.08,3-.14,6-.2,8.95h0q-.74,33.53-.82,67.06-.1,53.31,1.5,106.58c.52,17.47,1.26,34.94,2,52.42.92,20.91,1.87,41.82,2.49,62.75,0,1.15.07,2.3.11,3.45h0C230.83,661.76,230.84,662,230.85,662.3Z"></path><path class="cls-7" d="M285.81,661.83a1.36,1.36,0,0,1-.06.38c-.19.78-.95,1.49-1,.36,0-.12,0-.26,0-.39-.11-1.78-.21-3.54-.3-5.32-3.74-66.22-5.05-132.92-6.23-199.35q-.84-47.65-1.08-95.36-.09-17.49-.1-35l2.67,9.25q0,17.61.15,35.21.31,52.61,1.34,105.19c1.14,60,3.43,120,4.56,180.06Z"></path><path class="cls-7" d="M340.77,662.3c0,.57-1,1.33-1.08.48s-.17-1.86-.24-2.79c-1.89-21.37-3.16-42.84-4.11-64.32-1-21.77-1.61-43.56-2.2-65.3q-1.67-61-1-122,0-6.32.13-12.62.12-8.89.28-17.78s0,0,0,0q1.86-8.43,3.1-16.95-.28,12.22-.49,24.45-.13,7.4-.23,14.78v0q-.24,18-.28,36-.11,53.31,1.5,106.58c.51,17.62,1.28,35.22,2.06,52.84.94,21.44,1.92,42.88,2.52,64.33C340.73,660.77,340.75,661.53,340.77,662.3Z"></path><path class="cls-7" d="M395.73,661.83c0,.88-1,2.06-1.08.74l-.18-3.17c-3.83-67.06-5.18-134.63-6.37-201.89Q386.57,370.27,387,283q0-7.74.08-15.48c0-1.31,0-2.62,0-3.93h0c.92-2.16,1.84-4.31,2.75-6.47q-.08,9.75-.13,19.49-.11,17.58-.13,35.18-.12,82.55,1.49,165.06c1.16,60.87,3.51,121.7,4.6,182.58C395.7,660.22,395.72,661,395.73,661.83Z"></path><path class="cls-7" d="M450.7,662.3c0,.57-1,1.33-1.08.48,0-.48-.09-.95-.12-1.43-1.94-21.68-3.24-43.45-4.22-65.24s-1.61-43.85-2.21-65.74q-1.11-40.65-1.18-81.31v0c0-3.9,0-7.79,0-11.7s0-7.89,0-11.82c0,0,0,0,0,0,.91-2.61,1.82-5.19,2.72-7.79,0,4-.06,8-.07,11.94,0,2.21,0,4.43,0,6.64,0,1.73,0,3.45,0,5.18v0q0,50.68,1.5,101.37c.53,17.77,1.3,35.53,2.07,53.28,1,21.75,1.95,43.49,2.56,65.24Z"></path><path class="cls-7" d="M505.66,662.3c0,.57-1,1.33-1.08.48,0-.29-.05-.6-.08-.9-2-21.78-3.27-43.67-4.24-65.56s-1.63-44-2.23-66q-1.84-67.32-.9-134.66c.08-6.41.18-12.85.3-19.27,0-1.2,0-2.41.06-3.61s0-2.18.06-3.27a26.28,26.28,0,0,1,2.78-.72c0,1.09-.05,2.19-.06,3.29s-.06,2.38-.07,3.56q-.1,4.5-.18,9-.45,25.79-.51,51.57-.11,53.31,1.5,106.58c.52,17.84,1.29,35.67,2.08,53.49,1,21.85,2,43.7,2.56,65.56C505.65,662,505.66,662.16,505.66,662.3Z"></path><path class="cls-7" d="M560.62,662.3v0c0,.56-1,1.29-1.08.45,0-.15,0-.31,0-.46-2-21.86-3.29-43.81-4.27-65.77S553.6,552.4,553,530.37q-.94-34.29-1.13-68.61c0-1.61,0-3.23,0-4.85q-.06-11.58,0-23.17c1,3.2,2,6.42,2.65,9.6v.05q0,7.51,0,15c0,1.46,0,2.91,0,4.36q.24,40,1.44,80.06c.52,17.9,1.3,35.81,2.09,53.71C559,618.47,560,640.38,560.62,662.3Z"></path><path class="cls-7" d="M615.58,662.3a.75.75,0,0,1-.14.41c-.27.43-.88.72-.94.07a.22.22,0,0,0,0-.08c-4-43.94-5.33-88.24-6.54-132.33q-1.83-66.87-.91-133.78.16-12.81.41-25.62,1.6-6.45,3-13-.33,14.31-.58,28.63-.42,24.8-.48,49.61-.1,53.3,1.5,106.58C612.1,582.67,614.5,622.47,615.58,662.3Z"></path><path class="cls-7" d="M670.55,662.3a1,1,0,0,1-.43.72c-.23.17-.48.22-.58,0a.48.48,0,0,1-.07-.23c-2-21.88-3.32-43.83-4.3-65.81-1-22.2-1.65-44.42-2.25-66.6q-1.45-52.81-1.15-105.63v-.06c0-3.73,0-7.47.08-11.19,0-2.25,0-4.52,0-6.78,0-1.47,0-2.95.05-4.43.88,2.23,1.76,4.43,2.63,6.64,0,1.64,0,3.27-.05,4.91,0,2.1,0,4.19,0,6.29q0,5.61-.06,11.22s0,0,0,0,0,0,0,0,0,0,0,0c0,1.62,0,3.24,0,4.86q-.1,53.31,1.49,106.58c.53,18,1.32,36.1,2.11,54.15C669,618.76,670,640.52,670.55,662.3Z"></path><path class="cls-7" d="M725.51,662.3c0,.57-1,1.33-1.08.48-4-44-5.34-88.29-6.55-132.41q-1.68-61.59-1-123.2.07-9.35.22-18.69,1.51-4.46,2.89-9-.21,10.26-.33,20.52-.24,18.1-.28,36.21-.11,53.3,1.49,106.58C722,582.67,724.42,622.47,725.51,662.3Z"></path><path class="cls-7" d="M780.47,662.3c0,.57-1,1.33-1.08.48-2-21.73-3.29-43.54-4.27-65.37-1-22.35-1.67-44.72-2.28-67q-1.41-51.76-1.16-103.53v-.07q0-5,.06-10c0-2.92,0-5.82.07-8.73q1.35,2.43,2.61,4.89l0,.07h0c0,3.06-.06,6.13-.07,9.19q0,5.31-.06,10.62c0,1.15,0,2.3,0,3.46,0,3.75,0,7.5,0,11.23q.06,47.68,1.5,95.35c.54,18.19,1.32,36.4,2.12,54.58C778.9,619.05,779.88,640.67,780.47,662.3Z"></path><path class="cls-7" d="M835.43,661.83c0,.88-1,2.06-1.08.74-4-68.08-5.34-136.73-6.55-205.06q-.19-11.36-.36-22.71c-.07-4.84-.14-9.66-.19-14.49.89-1.94,1.75-3.9,2.57-5.86q.09,7.67.19,15.33.32,23.52.77,47.05C832,538.51,834.35,600.14,835.43,661.83Z"></path><path class="cls-7" d="M890.39,662.3c0,.57-1,1.33-1.08.48-1.94-21.59-3.27-43.25-4.25-64.94-1-22.49-1.68-45-2.3-67.47q-1.93-70.59-.8-141.2s0,0,0,0a0,0,0,0,1,0,0,0,0,0,0,1,0-.05q0-3.78.11-7.56c0-2.11.07-4.21.11-6.31,1,1.08,1.86,2.19,2.7,3.31q-.07,3.6-.13,7.21c-.06,3-.1,6-.15,9.06v.07q-.3,20.7-.35,41.39-.12,53.31,1.49,106.58c.54,18.34,1.34,36.67,2.15,55C888.84,619.33,889.81,640.81,890.39,662.3Z"></path><path class="cls-7" d="M945.36,662.3c0,.57-1,1.33-1.08.48-1.95-21.52-3.27-43.11-4.25-64.72-1-22.57-1.69-45.15-2.3-67.69q-.45-16.46-.72-32.92c0-1.09,0-2.17,0-3.25,0-1.43-.05-2.86-.07-4.29a24.39,24.39,0,0,0,2.62-2.83c0,1.59,0,3.18.06,4.78l.06,3.74q.38,23.61,1.07,47.24c.55,18.42,1.35,36.82,2.16,55.23C943.81,619.49,944.77,640.89,945.36,662.3Z"></path><path class="cls-7" d="M1000.32,662.3c0,.57-1,1.33-1.08.48-1.94-21.45-3.26-43-4.23-64.51-1-22.64-1.7-45.28-2.32-67.9q-1.58-57.54-1.1-115.11a.31.31,0,0,1,0-.09c0-1.91,0-3.85,0-5.78s0-3.84.05-5.77a0,0,0,0,1,0,0v0h0v0l2.76-4.44c0,2-.05,3.93-.07,5.91s0,3.91-.06,5.87c0,0,0,0,0,0s0,0,0,0,0,0,0,0,0,0,0,0a0,0,0,0,0,0,0q-.14,12.65-.16,25.3-.1,53.31,1.5,106.58c.54,18.48,1.35,37,2.17,55.46C998.78,619.63,999.74,641,1000.32,662.3Z"></path><path class="cls-7" d="M1055.28,662.3c0,.57-1,1.33-1.08.48-4-44-5.34-88.29-6.55-132.41q-1.34-48.63-1.17-97.28,0-16.95.23-33.91l2.58,10.77q-.13,13.16-.16,26.31,0,4,0,7.92,0,49.33,1.51,98.66C1051.8,582.67,1054.19,622.47,1055.28,662.3Z"></path><path class="cls-7" d="M1110.24,662.3c0,.57-1,1.33-1.08.48-1.93-21.29-3.24-42.67-4.21-64.07-1-22.78-1.72-45.59-2.34-68.34q-2-74-.71-148.07.06-3.51.13-7,0-1.49.06-3a12.19,12.19,0,0,1,2.76-.59c0,1.06,0,2.14-.07,3.21l-.06,3.35q-.56,29-.63,58-.1,53.31,1.5,106.58c.54,18.63,1.37,37.25,2.19,55.88C1108.72,619.91,1109.67,641.1,1110.24,662.3Z"></path><path class="cls-7" d="M1165.2,662.3c0,.57-1,1.33-1.08.48-1.92-21.23-3.23-42.52-4.2-63.86-1.06-22.85-1.72-45.73-2.35-68.55q-1.32-48.48-1.17-97s0,0,0,0a0,0,0,0,1,0,0s0,0,0,0,0,0,0,0,0,0,0,0q0-7.12.06-14.25c0-4.73.06-9.44.12-14.17.87,3.23,1.74,6.44,2.6,9.67v.1q-.06,7.1-.09,14.18c0,2.5,0,5,0,7.49,0,2.33,0,4.67,0,7q0,49.78,1.5,99.58c.55,18.71,1.37,37.4,2.2,56.1C1163.69,620.06,1164.63,641.18,1165.2,662.3Z"></path><path class="cls-7" d="M1220.17,662.3c0,.57-1,1.33-1.08.48-4-44-5.35-88.29-6.55-132.41-1.49-54.45-1.53-108.91-.43-163.36.05-2.85.11-5.71.18-8.56,1-.88,2-1.79,2.85-2.65q-.12,4.57-.21,9.14-.81,35.65-.91,71.32-.11,53.3,1.49,106.58C1216.69,582.67,1219.08,622.47,1220.17,662.3Z"></path><path class="cls-7" d="M1275.13,662.3a.93.93,0,0,1-.35.65c-.25.23-.58.32-.69,0a.8.8,0,0,1,0-.18c-1.91-21.08-3.21-42.23-4.18-63.42-1.07-23-1.74-46-2.37-69-1.52-55.67-1.53-111.35-.35-167q.06-3.37.15-6.75c0-2.28.1-4.55.16-6.83l.34.47c.21.29.41.59.62.89.6.86,1.17,1.72,1.74,2.59-.07,2.54-.13,5-.18,7.58s-.12,4.82-.17,7.23q-.74,33.86-.83,67.73-.11,53.31,1.5,106.58c.56,18.84,1.38,37.69,2.21,56.53C1273.62,620.35,1274.56,641.32,1275.13,662.3Z"></path><path class="cls-7" d="M1330.09,662.3a.65.65,0,0,1-.07.29c-.22.49-.94.9-1,.19,0-.06,0-.12,0-.18-1.89-20.94-3.19-42-4.16-63-1.06-23.07-1.74-46.17-2.37-69.21q-1.7-61.75-1-123.51c0-1.39,0-2.77,0-4.16,0-1.15,0-2.29,0-3.44l2.73-2.19c0,1.14,0,2.29,0,3.44,0,1.39,0,2.77,0,4.16q-.2,15.79-.23,31.59-.11,53.31,1.5,106.58c.56,18.92,1.39,37.83,2.23,56.75C1328.59,620.49,1329.52,641.39,1330.09,662.3Z"></path><path class="cls-7" d="M1385.05,662.17v.13c0,.57-1,1.33-1.08.48,0-.2,0-.4,0-.6-1.87-20.74-3.15-41.56-4.11-62.38-1.08-23.15-1.76-46.31-2.39-69.43q-2-71.39-.78-142.8c0-1.73,0-3.46.08-5.19s0-3.6.1-5.39c.88.95,1.78,1.9,2.69,2.84,0,1.76-.07,3.52-.1,5.29l-.09,5.1q-.36,23-.42,46-.11,53.31,1.5,106.58c.56,19,1.39,38,2.23,57C1383.56,620.58,1384.48,641.37,1385.05,662.17Z"></path><path class="cls-7" d="M1440,662.3c0,.57-1,1.33-1.09.48,0-.37-.07-.75-.1-1.12-1.82-20.49-3.1-41.06-4-61.65-1.08-23.21-1.76-46.45-2.39-69.64q-1.86-67.75-.89-135.52a.31.31,0,0,1,0-.09c0-1.74,0-3.46.07-5.21,0-2.17.05-4.35.09-6.52q1.44-3.13,2.86-6.27c0,2.38-.1,4.76-.13,7.15-.05,2.2-.08,4.39-.11,6.6h0q-.36,22.88-.41,45.75-.11,53.31,1.49,106.58c.57,19.07,1.4,38.12,2.25,57.18.91,20.54,1.82,41.08,2.39,61.63C1440,661.87,1440,662.08,1440,662.3Z"></path><path class="cls-7" d="M1495,662.3c0,.57-1,1.33-1.08.48l-.15-1.73c-1.81-20.23-3.06-40.5-4-60.81-1.09-23.3-1.77-46.61-2.4-69.87-1.9-69.41-1.44-138.85.72-208.25q.21-7,.46-13.95c0-1.3.08-2.6.13-3.9s.08-2.6.13-3.9l2.8,1.59c0,1.3-.1,2.59-.14,3.89s-.09,2.59-.14,3.89c-1.45,42.16-2.4,84.33-2.48,126.52q-.11,53.31,1.49,106.58c.57,19.15,1.42,38.27,2.26,57.4.9,20.27,1.79,40.52,2.36,60.79C1495,661.45,1495,661.88,1495,662.3Z"></path><path class="cls-7" d="M1549.94,662.3a1,1,0,0,1-.78.86c-.15,0-.27-.11-.3-.38-.08-.83-.15-1.66-.22-2.48-1.76-19.91-3-39.87-3.91-59.86-1.1-23.36-1.78-46.74-2.42-70.07-1.75-63.92-1.5-127.86.25-191.77,0-1.27.07-2.55.11-3.82s.07-2.54.11-3.82l2.77,1.57c0,1.27-.08,2.54-.11,3.81s-.08,2.54-.11,3.81c-.91,32-1.48,64.06-1.54,96.11q-.11,53.31,1.5,106.58c.57,19.21,1.41,38.42,2.26,57.61.88,19.94,1.76,39.88,2.33,59.82Z"></path><path class="cls-7" d="M1604.9,662.3c0,.57-1,1.33-1.08.48l-.06-.66c-.08-.9-.16-1.79-.23-2.69-1.71-19.54-2.92-39.15-3.84-58.77-1.09-23.42-1.78-46.89-2.42-70.29-1.73-63.17-1.5-126.36.19-189.52,0-1.79.09-3.59.15-5.38,0-1.56.08-3.11.13-4.67.25.25.48.48.71.73.7.77,1.37,1.56,2,2.38-.06,1.72-.11,3.45-.15,5.17-.07,2.12-.12,4.25-.19,6.38,0,0,0,0,0,0s0,0,0,0q-1.22,45.35-1.38,90.75-.11,53.31,1.5,106.58c.57,19.28,1.42,38.55,2.27,57.83.87,19.59,1.73,39.16,2.29,58.74,0,.9.06,1.79.08,2.69A1.41,1.41,0,0,1,1604.9,662.3Z"></path><path class="cls-7" d="M1659.86,662.3c0,.57-1,1.33-1.08.48-.06-.67-.12-1.34-.17-2h0c-.08-.81-.15-1.6-.21-2.41-1.65-19.11-2.83-38.28-3.73-57.47-1.11-23.51-1.8-47-2.44-70.51-1.9-69.41-1.44-138.85.73-208.25q.29-9,.59-18c0-1.46.1-2.92.15-4.36s.1-2.94.15-4.4c0,0,0,0,0,0,1-1.37,2-2.68,3-4,0,1.47-.1,2.93-.16,4.39l-.15,4.37v0c-1.64,45.38-2.73,90.79-2.83,136.21q-.11,53.31,1.5,106.58c.57,19.35,1.43,38.71,2.28,58,.85,19.16,1.69,38.28,2.25,57.43,0,.8,0,1.61.07,2.42C1659.83,661.26,1659.85,661.78,1659.86,662.3Z"></path><path class="cls-7" d="M1714.83,662.3c0,.57-1,1.33-1.08.48-.12-1.29-.23-2.6-.34-3.9-.06-.64-.12-1.29-.17-1.94-1.58-18.58-2.73-37.2-3.59-55.85-1.12-23.58-1.81-47.18-2.45-70.72-1.68-61.44-1.51-122.91,0-184.36,0-1.84.09-3.68.14-5.52.09-3.58.19-7.15.3-10.73a.11.11,0,0,1,0-.05s0,0,0,0h0s0,0,0,0q1.27-8.54,3.36-16.85c-.17,5.09-.34,10.2-.49,15.28q-.27,8.37-.49,16.76c-.82,30.46-1.34,60.95-1.4,91.41q-.11,53.31,1.49,106.58c.58,19.43,1.44,38.84,2.3,58.26.83,18.59,1.64,37.2,2.2,55.79,0,.66,0,1.29.06,1.93C1714.76,660,1714.8,661.14,1714.83,662.3Z"></path><path class="cls-7" d="M1769.79,662.3c0,.57-1,1.33-1.08.48-1.85-20.44-3.13-40.94-4.09-61.47-1.12-23.65-1.81-47.32-2.46-70.94-1.9-69.41-1.44-138.85.72-208.25q.94-30,2.17-60c0-.83.06-1.67.1-2.51,0-.57,0-1.13.07-1.71q1.4,1.3,2.82,2.58c0,.43,0,.87-.06,1.31,0,.78-.07,1.56-.1,2.34-2.4,57.35-4.13,114.72-4.24,172.12q-.11,53.31,1.5,106.58c.58,19.49,1.43,39,2.29,58.48C1768.34,621.64,1769.23,642,1769.79,662.3Z"></path><path class="cls-6" d="M1750.55,655.55c-29.77,1.33-59.59,2.07-89.39,2.74-44.45,1-88.92,1.68-133.39,2.31q-83.85,1.17-167.7,1.78-94.92.74-189.83,1.06-101.07.36-202.15.35-102.75,0-205.51-.37-98-.34-196-1-87.81-.63-175.62-1.69-72.86-.91-145.7-2.36c-35.09-.74-70.18-1.59-105.25-3-6.17-.25-12.35-.51-18.52-.82-1.56-.08-3.14,3.29-1.43,3.38,31.39,1.59,62.8,2.45,94.22,3.21q68.43,1.67,136.89,2.51,85.1,1.2,170.22,1.85,95.69.78,191.38,1.15,101.88.39,203.75.42,101.48,0,203-.27,97-.3,193.93-1,87.26-.62,174.5-1.71c47.82-.62,95.64-1.36,143.45-2.57,33.81-.86,67.65-1.67,101.42-3.57q8.73-.49,17.45-1.1c.56,0,1-1.29.27-1.26Z"></path><path d="M9.48,3.51c30.09,3,85.06,2.34,115.28,2.66s41.89.63,72.18,1q90.36.94,180.71,1.51,179.13,1.24,358.24,2.49,355.33,2.55,710.67,6.21,101.1,1.08,202.21,2.33,50.93.63,101.84,1.3c33.73.42,66.84,1,100.46-2.29.61-.06,1.43-1.61.54-1.72-30-4-59.68-4.41-90-4.79s-60.69-.73-91-1.07q-90.43-1-180.87-1.89-179.19-1.74-358.4-3Q775.82,3.78,420.28,1.7q-101.2-.6-202.42-1L134.52.36C101.26.25,43.22-.94,10.05,1.71c-.65.05-1.49,1.71-.57,1.8Z"></path><path d="M5.61,769.24C109.18,781.06,218.86,782.53,323,784.08q187.64,2.79,375.27,4.43t375.46,2.31q186.35.66,372.71.42c124.52-.16,249.15.57,373.66-1.41,9.41-.15,20.43-.87,27.87-7.42,1.76-1.55,2.11-6.14-1.09-4-4.87,3.17-11.13,2.61-16.65,2.74-7,.15-14.06.21-21.1.25l-47.62.27q-45.8.25-91.59.44-93.4.41-186.83.56-186.39.33-372.79-.25-185.92-.57-371.84-2-185-1.41-370.06-3.54c-104.51-1.18-214.83-1.84-319.12-9.36-13.93-1-27.88-1.71-41.81-2.61-2-.13-4.16,4.12-1.85,4.39Z"></path><path d="M1845.66,18.54c-2.13,23-2.2,46-2.63,69.09-.45,23.22-.94,46.44-1.32,69.66q-1.15,71.15-1.73,142.29c-.69,96.42-.4,192.88,2.88,289.25q1.32,38.83,3.38,77.64,1,18.43,2.21,36.87c.4,6.18.83,50,1.28,56.23a73,73,0,0,0,.67,8.5c.5,2.54,2,4.38,3.46,6.51.54.83,1.49-.47,1.63-1,.75-2.63,1.84-5.34,2.13-8.07s-.21-5.68-.41-8.44c-.41-5.61-.8-48.91-1.18-54.53q-1.08-16.25-2-32.49-1.95-34.67-3.22-69.36c-1.79-47.64-2.79-95.3-3.29-143-1-95.85-.06-191.71,1.18-287.56q.51-38.87.87-77.72c.26-25.12,1.2-50.33-.64-75.4-.2-2.72-3.13-.13-3.28,1.46Z"></path><path d="M592.44,40.74c-.27-3.05-3.12-.85-3.68.92-.82,2.64.36,6.67.89,9.3a69.77,69.77,0,0,0,3.75,12.32c1.42,3.5,4.62,10.44,9.06,5.88,2-2.08,2.68-5.52,3.53-8.18a116,116,0,0,0,3.24-13.39l-4.36,1.94c1.65,8.34.39,18.42,8.59,23.62.92.59,2.18-.12,2.81-.83,6.56-7.4,12.45-19.3,10-29.48-.93-3.91-7.1,2.91-3.88,4.17l1.11.44a.66.66,0,0,0,.75-.22l.92-1-3.39-1.35C620.72,53.93,620,61.46,614,68.91l2.8-.83c-7.42-4.43-6-14.4-7.53-21.74-.7-3.22-4.3,1.06-4.43,2.59a62.3,62.3,0,0,1-2.23,12c-.52,1.82-.64,4.77-2.64,4.41-2.18-.39-2.77-3.65-3.49-5.43a82.33,82.33,0,0,1-3.14-9.57c-.44-1.68-.87-7.93-1.81-8.79.39.36,1-.52,1-.85Z"></path><path d="M633.36,62.76c-.17,1.94,1.39,2.58,3,1.69,2.17-1.22,3.83-4.07,4.85-6.25.86-1.82,2.41-5.27.52-7s-4.61,0-6.1,1.2c-4,3.3-8.87,9.93-6.86,15.47,1,2.67,3.51,3.43,6.14,3.39a15,15,0,0,0,10.34-4.1c.25-.22.65-1,0-1-2.73.13-5.49.45-8.23.48-3.25,0-5.53-1.29-4.52-4.88.51-1.83,3.07-6.74,5.27-7.05,4.89-.7-2.65,10-3.94,7.7-.15-.28-.45.2-.46.34Z"></path><path d="M652.71,65.93c4-1.62,9.52-6.36,8.28-11.44-1.49-6.05-9.79.59-11.68,2.79-3.47,4-6.67,11.87-.06,14.59s13.54-1.44,18.24-5.65c.25-.22.3-.93-.19-.72-3.79,1.56-11.92,3-15.61.76s.5-6.85,2.84-8.34c1.6-1,2.46-.43,2,1.52-.42,1.64-2.47,3.51-3.79,4.27-.84.48-1.56,2.84,0,2.22Z"></path><path d="M672.79,48.34a209.5,209.5,0,0,0-2.07,23.21c-.06,1.15,1.12,1.32,1.87.75a5.21,5.21,0,0,0,1.63-1.74c.1-.15.17-.58-.15-.52.59-.11,1.08-10.11,1.13-11.22.2-3.77.31-7.57-.71-11.23-.31-1.1-1.6.16-1.7.75Z"></path><path d="M685.86,51.19C681,53,677.07,57.82,674.09,61.88c-.43.58-1,2.37,0,2.78,2.66,1.15,5.29,2.38,8,3.47A46.57,46.57,0,0,0,689.79,70c.3.07.71-.5.49-.75-2-2.18-3.44-4.06-6.13-5.5a48.71,48.71,0,0,0-7.9-3.19l.38,2.93c2.78-4.14,6.34-7.1,9.67-10.72.48-.52.72-2.06-.44-1.62Z"></path><path d="M696.34,47.55c-1.48,4.53-1.59,9.4-1.82,14.13-.17,3.47-1.5,10,1.13,12.61.3.31.72,0,.91-.27,2.2-3.61,2-8.26,2.18-12.39.2-4.68.88-10.12-.63-14.61-.34-1-1.56-.1-1.77.53Z"></path><path d="M703.64,54.7h0l-.31,1.42.17-.26-1.77.79c2.15,1.4,4.62,2.35,6.84,3.65,1.95,1.15,3.95,3.37,6.27,2.39a1.48,1.48,0,0,0,.83-1.27c.16-2.32-2.05-3.44-3.84-4.54a29,29,0,0,0-6.62-3.17c-1.49-.45-2.74-.25-3.58,1.19-.53.91-.59,2.1.57,2.45s2.5-2.06,1.41-2.65Z"></path><path d="M721.79,47.94c-4.16,4.32-6.86,10.29-9.44,15.65a72.31,72.31,0,0,0-6.29,18.18c-.08.4.36.37.51.09C709.7,76.34,712.36,70.73,715,65c2.56-5.47,6-10.87,7.58-16.71.17-.61-.48-.68-.83-.32Z"></path><path d="M746.47,45.74,747,43.8c.61-2.47-2.68-1.15-2.89.87-.78,7.66-1,15.3-2.21,22.92-.56,3.5,3.39,1.67,3.95-.62.88-3.58,2.68-9.22,7.63-7.55a4.59,4.59,0,0,1,1.87,1.86c1.24,2,.81,3.25-.59,5.06-2.71,3.49-6.92,2.81-11,3.3a1.13,1.13,0,0,0-.77.69c-2,4.81,5.26,4,7.84,3.17C755.57,72,759.69,68,760,62.81c.26-4.63-3-9.51-8.08-8.62-6.32,1.11-8.74,8-10,13.4L745.8,67C747,59.1,748,50.92,747,43l-2.7,2.4.79,1.2c.48.71,1.32-.4,1.43-.84Z"></path><path d="M765.69,53.07c-2.08,3.65-2.3,9.16-2.37,13.29-.05,3.12,1,6.57,4.74,6.3s6.59-4.15,8.17-7.13a19.43,19.43,0,0,0,1.95-12.21c-.51-3.32-4.7,1-4.76,2.79-.18,5.57-.26,16.68,7.77,16.71.35,0,.8-.46.65-.84a67.34,67.34,0,0,1-3-7.46c-.92-3.46-.78-7-.62-10.56l-4.75,2.78a12.24,12.24,0,0,1-.59,7.3,7.74,7.74,0,0,1-1.93,3c-3.7,2.81-4-.38-4.07-2.32-.18-3.57,1.76-8.81-.36-12-.23-.34-.72,0-.86.26Z"></path><path d="M811.39,54.42c-3,3.08-3.47,9.37-3.87,13.45-.13,1.33-.27,3,.46,4.23,1,1.57,1.88,1.18,3.45,1.09a.85.85,0,0,0,.63-1c-1-2.67.32-7.13.64-9.82.26-2.24,1.5-6.56-.52-8.22-.24-.19-.63.07-.79.24Z"></path><path d="M821.27,57.13A142,142,0,0,0,819.59,72c-.21,2.31,2.94.53,3.16-1,.32-2.31,2.45-14.49,7.12-10.65,1.5,1.23,2,5.56,2.36,7.27a22.25,22.25,0,0,0,2.13,5.41c.24.44.84-.18.93-.42a16.85,16.85,0,0,0,.31-11.79c-1-3.21-2.45-7.08-6.55-5.85-6.79,2-8.63,10.49-9.41,16.52l3.16-1a123.05,123.05,0,0,0,.7-14.1c-.06-1.74-2-.31-2.23.68Z"></path><path d="M846.1,64.44c4.89-.06,12-3,12.31-8.81.1-2-1-4.07-3.14-4.35-2.55-.34-4.91,1.86-6.58,3.51-3.35,3.32-8.28,10.41-6.33,15.46,2.38,6.15,12.83,1.92,16.82.27.15-.06.34-.52.05-.47a30.81,30.81,0,0,1-9.53.36c-1.67-.28-3.43-.61-4.05-2.56-.56-1.79.66-4.08,1.46-5.62.61-1.19,5.3-8.64,7.51-6.1s-7.19,6.12-8.31,6.47c-.7.21-1.3,1.86-.21,1.84Z"></path><path d="M877.26,56.14c-.44-3.06-2.45-4.38-5.56-3.68-2.19.49-5.27,2.24-4.85,4.94.48,3.09,5.43,4.62,7.12,6.93,3.88,5.33-5.8,3.15-8,4.72l.94,0-.18-.21c-.22-.23-.54-.1-.73.11-1.79,2-.45,3.77,1.93,4,3.64.29,7.52-1.07,9.55-4.22a5.94,5.94,0,0,0-1-8.15c-1.4-1.3-3.33-3.32-5.07-4.15-.69-1-1.18-1-1.46.27l1.62-.85c1.59-.6,4.08-.88,5.32.69.2.25.46-.2.43-.38Z"></path><path d="M894.68,55.38c-3.76-2.25-7.66-1-10.15,2.48-.52.72-.82,2,0,2.66a45,45,0,0,1,3.89,3.28c.76.73,1.5,1.49,2.18,2.28.1.11,1.66,1.84,1.7,1.57-.08.6-3.93,1-4.58,1.23a7.24,7.24,0,0,0-3.4,1.91,1.1,1.1,0,0,0-.32,1c1.54,4.48,9.53.33,11-2.54,2.62-5-4.67-9.93-8.06-12.46v2.67a5.69,5.69,0,0,1,6.49-1.74c.93.33,2.15-1.76,1.23-2.32Z"></path><path d="M796.55,54.15c1.48-3-2.29-3.76-4.45-3.18-3.11.84-6.38,3.61-5.64,7.18A5.85,5.85,0,0,0,789.55,62c1.9,1,6.35.88,7.26,3.1,1,2.42-4.12,3-5.81,3.12-2.42.12-5-.8-7.19.42a1.63,1.63,0,0,0-.89,1.67c.51,4,6.66,3.36,9.45,2.52,3.35-1,8-3.54,8.53-7.43.55-4.07-3.2-5.67-6.41-6.57-1.89-.53-6.86-2.48-2.82-4,1.6-.59,2.52,0,4,0a1,1,0,0,0,.9-.68Z"></path><path d="M940.31,56.54c2.94-.39,3-5.1.31-6-4.29-1.41-10.54,3.1-13.44,5.84s-5.78,8-2.72,11.71c3.64,4.37,11.16-.06,14.78-2,.22-.13.62-1,.09-.84-2.65.54-14.3,2.08-11.79-3.86.89-2.1,3.77-3.9,5.66-4.92a19.75,19.75,0,0,1,2.61-1.19,6,6,0,0,1,2.84-.54,2.23,2.23,0,0,1,1.55.94c-.18.21-.43.94.11.87Z"></path><path d="M946,56.78a7.37,7.37,0,0,0,3.33,5.81,6.45,6.45,0,0,0,3.21,1.16c1.38,0,2-.65,2.84-1.57a.84.84,0,0,0,.25-.76c-.31-.77-.16-1.2-1-1.65s-1.69-.66-2.49-1.15a11,11,0,0,1-3.46-3.83c-.87-1.47-2.77,1-2.7,2Z"></path><path d="M959.43,54.47l.16-.47c.11-.32.21-.79-.13-1-2.87-1.92-5.14,5.12-5.84,6.59-1.46,3.06-2.88,6.16-4.17,9.3-.85,2.08-1.82,4-1.51,6.26,0,.24.34.2.48.09,3-2.43,4.4-6.67,6-10.11,1-2.14,1.94-4.28,2.84-6.45.54-1.31,1.18-3.82,1.81-3.83.17,0,.35-.22.4-.36Z"></path><path d="M975.72,56.13c-1.44-2.65-6-1.8-8.22-.81A12.42,12.42,0,0,0,960.74,63c-1.06,3.58-.07,7.08,3.82,8.07,4.11,1,8.58-.51,11.78-3.11.16-.12.46-.82,0-.73-3.22.66-14.74,1.11-11.89-5a8,8,0,0,1,4.87-3.81c1.93-.63,3.92-.32,5.81-.91a1.08,1.08,0,0,0,.59-1.37Z"></path><path d="M988.72,51.57c-1.79.87-2.5,2.56-3.37,4.29a67.7,67.7,0,0,0-4.2,10.47c-.3,1-3.2,9.42.69,7.89.27-.11.63-.7.29-.92-.59-.38,4.13-12.22,4.55-13.33.89-2.36,3.19-5.75,2.29-8.3a.17.17,0,0,0-.25-.1Z"></path><path d="M993.73,66.92c3.28-1.48,5.53-4.51,7.21-7.6.43-.78.95-3.09-.77-2.75-5.39,1.1-10.82,6.2-10.81,12,0,8.46,10.4,4.1,14.51,1.71.23-.14.62-.83.09-.81-2.05.08-4.09.12-6.14.16-1.82,0-4.19.28-4.75-2-1-3.82,3.79-6.31,6.68-7.25l-1.47-2.11a36.14,36.14,0,0,1-5,7.6c-.31.4-.22,1.35.47,1Z"></path><path d="M1037.83,56.33a3,3,0,0,0-4.45-1.95c-2.61,1.4-3.67,4.87-4.25,7.55s-1.12,6.84.34,9.48,4.61,2.19,7,1.11c5.16-2.36,11.08-8.3,9.37-14.54-1.47-5.33-8.67-6.86-11.42-1.74-.13.25-.24.61.1.74a24.56,24.56,0,0,1,5.23,2.32c2.78,2,1.75,5-.53,6.93s-6.19,4-6.53-.4a17.42,17.42,0,0,1,.44-5.48c.21-.88,1.8-5.19,3-2.48.46,1,1.94-.79,1.73-1.54Z"></path><path d="M1051.06,55.18c-.92,6,.83,12.94,1.71,18.91.27,1.83,2.43-.16,2.77-.83,1.67-3.35,3.29-6.7,5.22-9.91,1-1.74,3.11-6.66,5.15-7.23.39-.1.93-.79.49-1.14-2.79-2.24-5,2-6.32,4a73.87,73.87,0,0,0-7.16,13.78l2.76-.84c-.51-3.2-1-6.41-1.47-9.61-.41-2.68-.59-5.51-1.83-7.94-.35-.69-1.26.39-1.32.77Z"></path><path d="M1067.05,66.93c4-1.54,6.85-5.55,8.57-9.3.51-1.1,0-2.73-1.46-2.09-5.08,2.23-11.42,6.36-9.91,12.91,1.74,7.58,12,3.77,16.29,1.14.19-.11.36-.62,0-.6a61.75,61.75,0,0,1-7.2.06c-1.75-.07-4-.08-5.14-1.65-2.9-4.09,3.13-6.89,6-8.19l-1.46-2.09c-1.34,3.34-3.59,5.47-6.19,7.83-.68.62-.82,2.51.53,2Z"></path><path d="M1084.08,59.71c-2.14,3.77-1.18,9,.22,12.9l2.51-2.24a25.62,25.62,0,0,1-1.89-5c-.7-2.46-.48-4.46,2.08-5.29,3.25-1,7-.32,10.14.58.26.08.55-.44.33-.61-2.34-1.79-4.83-4.11-7.93-4.21a8.37,8.37,0,0,0-5.63,2.2c-4.79,4.31-1.61,9.72.39,14.53.76,1.81,3-.6,2.64-1.94a42.12,42.12,0,0,1-1.22-6.89c-.13-1.49,0-3-.67-4.36-.22-.43-.84,0-1,.29Z"></path><path d="M1125.37,60.39c1.09-1.75.28-4.29-2.17-3.49-3,1-4.62,5.73-5.36,8.41s-1.78,7.31,1.23,9.06c2.61,1.53,6.66.19,9.15-1,5.7-2.73,10.5-10.19,6.71-16.35-2.87-4.66-11.11-3.75-11.9,2,0,.29.22.36.4.16,1.66-1.81,5.15-1.49,7-.06,2.81,2.17,2.5,6.39,0,8.65-1.7,1.58-6.15,3.84-8.56,2.69-3.46-1.64.61-8.69,1.66-10.82-.75,1.52,1,2,1.81.71Z"></path><path d="M1142.74,58.87c-1.9,3-2.65,6.85-3.75,10.21-.84,2.6,1.74,2.33,2.7.48A59.17,59.17,0,0,1,1145.6,63c1-1.44,4.4-6.16,5.48-2.35.59,2.07-.36,5-.6,7.12a21.2,21.2,0,0,0,0,5.28c.07.54.73.07.87-.13,2.32-3.15,3.19-6.7,3.55-10.55.25-2.64.63-6.82-2.74-7.64-6.29-1.53-11.37,10.14-13.13,14.4h2.85c.83-3.17,2.4-6.91,2.1-10.21-.07-.79-.89-.49-1.2,0Z"></path><path d="M1164.31,65c3.08-.33,9.66-4.71,7.32-8.56-2.5-4.11-9.37,2-11.14,4.07-2.75,3.21-5.5,8.61-2,12.26,1.68,1.74,4.34,2.43,6.68,2.58,3.27.2,5.67-.89,8.32-2.64.23-.16.48-.84,0-.81-3.55.23-13.86.09-12.82-5.63.44-2.38,2.71-4.42,4.67-5.63.44-.28,1.94-1.39,2.43-.83a41.55,41.55,0,0,1-3.5,3.1c-.48.42-1.34,2.24,0,2.09Z"></path><path d="M1213.87,53.51c2-3.9-4.13-4.37-6.61-4.17a19.64,19.64,0,0,0-13.38,7.3c-1.86,2.31-5.94,8.63-2.07,10.93,4,2.4,11.48-1.92,14.85-3.95.15-.09.21-.49,0-.38a24.43,24.43,0,0,1-8.85,2.08c-2.54.09-4.61-.28-3.73-3.4a11.56,11.56,0,0,1,3-4.2,16.92,16.92,0,0,1,7.41-4.35c1.17-.34,8.39-1.83,8.35.32,0,.86.92.19,1.11-.18Z"></path><path d="M1209.85,57.55l-1-2.8c-.36-1.57-2,.53-2.12,1.24-.88,8.22-1,16.49-2.23,24.69-.06.41.4.28.5,0,3-8.19,5.16-17.18,3.85-25.93l-1.8,1.93,1.88,1.83c.42.54,1.13-.5.9-1Z"></path><path d="M1217.1,57.63c-2.87,3.25-3.55,8.15-3.13,12.34.27,2.7,1.07,6.85,4.58,6.77s6.18-4,7.61-6.68a18.4,18.4,0,0,0,1.95-11.69c-.34-2.2-3.22.35-3.37,1.49-.64,4.94-.74,11.51,3.83,14.64.31.21.69-.34.68-.61-.35-4.9-1.83-9.6-1.14-14.56l-3.37,1.5a13.45,13.45,0,0,1-.74,7.32c-.78,1.9-3.8,6.91-6.09,3.69-2.72-3.82-.43-9.81,0-13.87.08-.6-.46-.8-.86-.34Z"></path><path d="M1246.48,60.67c-3.5-1.38-7-1-9.79,1.66a10.9,10.9,0,0,0-2.87,10.79c.59,1.85,1.29,2.89,3.35,2.8a8.76,8.76,0,0,0,4.91-2c3.74-3,4.68-7.89,5.2-12.36l-3.54,1.07c-.15,4.74,1,9.37,5.31,11.78.23.13.46-.25.41-.44-1-4.18-2.32-8.6-2.12-12.94.05-1.08-.9-1.5-1.8-1.17a3.21,3.21,0,0,0-1.8,2.77c-.15,2.43-.16,5.42-1.67,7.47a4.61,4.61,0,0,1-3.19,2c-1.36,0-1.54-.5-1.82-1.76-1.12-5,3.68-8.54,8.41-7.76.74.12,1.85-1.57,1-1.9Z"></path><path d="M1253.36,61.56c-3.21,2.17-1.63,8.43.49,10.78l1.93-2.47c-2.1-1.59-1.65-5.84.32-7.31a10.85,10.85,0,0,1,7.62-1.7c.3.08.71-.51.49-.75-1.33-1.43-2.68-2.73-4.76-2.71a8.14,8.14,0,0,0-5.71,3.13,9.35,9.35,0,0,0-2.14,6.12c.05,2.26,1.18,3.82,2.25,5.69.76,1.33,2.68-1.14,2.13-2.27a14.07,14.07,0,0,1-1.57-5.52c-.05-1,.37-2.31-.45-3.08-.16-.15-.46,0-.6.09Z"></path><path d="M1276,46.22l-.25-.5a.55.55,0,0,0-.55-.22c-2.91.16-4.08,4.09-5,6.36-1.72,4.42-3.27,9.89-2.67,14.67,1,7.86,10.39,9.65,14.41,3,.14-.24,0-.62-.28-.4-3.15,2.11-7.56,2-9.75-1.46-1.37-2.18-1.06-5.32-.73-7.69.26-1.88,3.67-11.84,3.32-12.24.73.84,1.84-.81,1.46-1.56Z"></path><path d="M1265.53,63.58c5.14-.82,10-2.65,15.21-3.3.21,0,.51-.56.19-.61-5.19-.67-10.33-.75-15.14,1.59-.69.34-1.71,2.55-.26,2.32Z"></path><path d="M1288.52,68.36c3.38-1.44,9-4.63,8.67-9.11-.44-5.07-7.28-1.24-9.13.46-3,2.73-6,8.24-3.71,12.21s7.58,1.91,10.88.71c.23-.08.46-.67.07-.64-4.37.38-10.28-1.94-7.27-7.41.32-.58,4.82-5.26,5.53-3.46.21.53-1.53,2.2-1.85,2.53a12.11,12.11,0,0,1-3.19,2.55c-.9.45-1.46,2.78,0,2.16Z"></path><path d="M1302,61c-1.13,4.06-.82,8.3-1.08,12.46l2.69-1.19a13.29,13.29,0,0,1,2.44-8.24c2.24-2.74,6.93-3.29,10.09-2.24.36.13.72-.59.44-.83-3.66-3.15-8.75-3.76-12.12.15-2.76,3.2-3.8,8.22-3.54,12.35.14,2.18,2.64.18,2.69-1.19.16-3.94.76-8-.13-11.93-.24-1-1.36.22-1.48.66Z"></path><path d="M907.53,709.66c-3,2.11-3.22,6.75-3.95,10.07a114.18,114.18,0,0,0-2,15.86c0,.34.39,0,.43-.14.93-3.91,2-7.77,3-11.68.58-2.41,1.14-10.54,3.06-12,1-.77,1-3.15-.55-2.07Z"></path><path d="M902.61,713.69c2.57-4.47,9.29-3.86,13.31-2.31a13.18,13.18,0,0,1,8.23,8.52c2.88,10.34-10.31,15.85-18.21,18.43-.19.07-.37.54-.06.53,11.08-.41,25.12-9.43,20.51-22.23-3.48-9.64-19.95-13.68-25-3.44-.53,1,.74,1.41,1.27.5Z"></path><path d="M943.92,720.11c2.36-5.29-5-4.39-7.76-2.75-4.39,2.62-7.81,8.32-7.7,13.51.12,5.9,5.81,4.91,9.38,2.47a21.12,21.12,0,0,0,8.92-14.82c.31-2.47-2.4-1.73-3,0-1.86,5.2-3.56,13.63,1,17.93.26.24.57-.34.58-.52.54-5.95-.27-11.54,1.43-17.41l-3.24,1a15,15,0,0,1-2.86,7.59,14,14,0,0,1-3.13,3.1c-1.81,1.3-3.59,2.4-5.14.45-3.94-4.93,7.86-16,11.14-10.37.11.19.34-.07.39-.17Z"></path><path d="M962.81,708.33c-3.39.18-5.51,4-7.07,6.7a32.41,32.41,0,0,0-4.36,12.75c-.68,6.14,2.87,15.53,10.4,10.88.17-.1.39-.59.08-.65-6.39-1.21-8.26-7.18-7.24-13,.67-3.85,3.35-13.47,7.78-14.8.7-.2,1.64-2,.41-1.89Z"></path><path d="M948.62,725.6c1.08,2.32,3.48,1.7,5.67,1.45a30.13,30.13,0,0,0,10.19-3.19c.15-.07.41-.49.12-.55a18.28,18.28,0,0,0-7.18-.46c-2.34.35-5.69,2-8,1.57-.57-.11-1,.74-.77,1.18Z"></path><path d="M972.8,729.3c3.31-.95,11.71-4.81,10.47-9.54-1.62-6.16-11.93,1.92-13.74,4-3.71,4.18-4.39,10.64,1.55,13.09,7.39,3.05,15.95,1,22.15-3.49.21-.15.47-.8,0-.76-6,.48-12.76,1.54-18.59.05-2.75-.7-2.88-.79-2.92-4s.49-3.72,2.84-5.38c1.43-1,7.48-2.5,3.26,1a18.65,18.65,0,0,1-4.76,2.74c-.78.33-1.59,2.71-.26,2.34Z"></path><path d="M26.82,431.72c9.12,6,20.91,8.15,31.55,9,.22,0,.48-.43.21-.5-10.37-2.59-20.73-8.4-31.46-9.13-.22,0-.55.42-.3.58Z"></path><path d="M32.45,451.16c-.32-6.05-1.84-12.07-3.2-18-1.28-5.61-2.43-11.09-5.54-16-.23-.37-.65.27-.65.48-.25,6.35,1,12.19,2.39,18.32,1.31,5.62,2.45,11.49,4.85,16.76.56,1.23,2.19-.88,2.15-1.58Z"></path><path d="M30.93,426.86c8.21,2.5,16.8,2.87,25,5.73l.94-2.95c-8.77,2-28.62-6-22.17-17.68.14-.25.06-.6-.28-.4-5.22,3.09-4.49,10.13-.74,14.17,4.76,5.13,15.84,8.41,22.55,6.86,1.05-.24,2.46-2.41.94-2.95a76.21,76.21,0,0,0-25.68-4.55c-.69,0-1.42,1.51-.56,1.77Z"></path><path d="M40.87,404.31l-.14-.29c0-.11-.22-.14-.32-.13-3.18.49-1.62,6.82-.88,8.45,1.69,3.74,6.63,9.94,11.26,9.64,4.27-.27,4.29-4.66,2.73-7.61-2.45-4.64-6.85-7.44-11.68-9.13l-1.34,3.18a18.53,18.53,0,0,0,14.59-1.06c.16-.08.49-.61.14-.65-4.45-.63-8.91-1-13.39-1.47-1.4-.16-3,2.84-1.34,3.18a14.68,14.68,0,0,1,7.21,3.75,17.38,17.38,0,0,1,2.79,3.44c.33.54.63,1.1.91,1.66.87,1.52.65,2-.67,1.39-2.54,0-5.33-3.55-6.78-5.26a15.51,15.51,0,0,1-2.59-4c-.32-.77-1.49-4-.67-4.57a.44.44,0,0,0,.17-.52Z"></path><path d="M39.05,398.32c-.35-.39-.38-.48-.87-.55-.77-.1-2,1.6-1.07,2,3.92,1.83,8.65,2,12.81,3.21,1.46.41,3-2.41,1.79-3.38s-13.26-9-12.56-10.18l-1.77,1.31c5.65-1.15,12.58,3.72,17.45-1a1,1,0,0,0,.25-1.08c-1-1.48-2.21-1.31-3.93-1.45-2.24-.19-4.45-.45-6.68-.77-2.83-.41-6.61-1.18-8.22,1.82-1.36,2.55.24,5.05,2.17,6.79,3.27,2.95,7.45,5.45,11.18,7.77l1.79-3.37c-4.44-.43-9-1.9-13.42-1.73l.4,1.46v.12c.38,0,1-.65.67-1Z"></path><path d="M41.19,372.6l-1.31-1.18c-.9-1-2.08.7-2.11,1.56-.1,2.91.55,7.37,2.81,9.53,1.7,1.63,3.63,0,4.43-1.74s2.52-11.73,5.41-8.41c1.15,1.32,1.41,4.51,1.67,6.2.11.7,1.15,5.34.57,5.94-.13.13-.3.57,0,.63,5.3,1,3.46-16.38-1.43-17.88-3.49-1.07-5.72,3.73-6.83,6.18-.28.62-1.69,6.2-2,6.29,1-.31-1.17-3.47-1.37-4a23.63,23.63,0,0,1-1-4.05l-1.66,2.13,1.67.61c.85.41,2-1.22,1.18-1.81Z"></path><path d="M40.41,342.46c-3.69.19-2.33,7.08-1.54,9,1.66,4.09,6.5,11.12,11.49,11.4s5.63-5,4.07-8.46c-2.44-5.4-8-8-13.29-10-1.25-.46-2.92,2.42-1.66,3.13,4.82,2.76,11.41,5.11,16.63,2.18.16-.1.49-.53.22-.68-2-1.1-4.2-1.06-6.39-1.5a30.41,30.41,0,0,1-8.51-3l-1.66,3.13a29.59,29.59,0,0,1,7.93,4c1.29,1,8.42,9,1.93,7.31-2.44-.64-5.2-4.16-6.53-6-.69-1-5.1-8.71-3-9.22.52-.12,1.11-1.34.29-1.3Z"></path><path d="M41,332.14c-2.31,1-1.71,4.36-.81,6.11a16.47,16.47,0,0,0,8.36,7.29c3,1.11,5.71-.71,6.83-3.54,1.52-3.81-.81-7.22-2.24-10.62-.13-.3-.47.08-.46.27,0,2.26-.15,4.51,0,6.76,0,.74.32,2.24,0,2.92-.84,1.66-3.61-.05-4.55-.6-2.85-1.67-7.13-4.72-6.82-8.43a.17.17,0,0,0-.25-.16Z"></path><path d="M34.93,317.69l-.07-.2c-.25-.73-1.1.18-1.08.63.12,3.05,6,5.77,8.34,7.08,4.07,2.27,8.9,4.24,13.61,4.4,2.18.07,5-.43,5.82-2.82.6-1.66.06-3.12-1.74-3.37-.17,0-.36.26-.26.41-1.26,2.32-2.89,3.05-4.87,2.17-1.07-.25-2.14-.54-3.19-.86a55,55,0,0,1-7.42-2.93c-3.14-1.48-6.17-3.94-9.47-5v1c.09-.1.4-.37.33-.58Z"></path><path d="M49,329.66c0-2.15-.77-4.26-1.14-6.36-.25-1.41,0-3.82-1.63-4.46a.41.41,0,0,0-.47.14c-1.37,1.72-1.35,3.61-1,5.72s1,5,2.79,6.28c.69.5,1.47-.76,1.47-1.32Z"></path><path d="M43.8,314.82c.12,2.39,3.24,2.86,5.19,3.55,2.72,1,5.62,2.55,8.36,1.05a.58.58,0,0,0,.32-.6c-.8-3.16-5.93-3.73-8.61-4.47-.48-.13-5.38-1.7-5.26.47Z"></path><path d="M41.26,300.82c1.73,4.29,7.21,9.93,12.11,10.34,4.3.36,6-4.55,4.77-8-1.53-4.21-7.47-8.23-12-7.2a5.37,5.37,0,0,0-3.95,3.5c-.61,2.16.57,2.81,2.36,3.32.33.09.68-.55.41-.77-2.37-1.92,1-3.18,2.33-3a11.27,11.27,0,0,1,3.93,1.43c1.66.91,5.61,3.85,4.87,6.24-1.7,5.46-12.32-5.63-13.76-7-.47-.44-1.22.71-1.05,1.13Z"></path><path d="M42.45,291.77c4.2,1.48,8.41,2.48,12.44,4.46,1.39.68,3.27-2.16,1.93-3a55,55,0,0,1-6.29-4.3,34.47,34.47,0,0,1-3.14-2.78,6.55,6.55,0,0,1-1.15-1.26c-.53,1.11-.22,1.57.93,1.37,1.7,1,5.54,1.47,7.43,1.49,2.14,0,3.21-.76,4.94-1.85.18-.11.46-.73.08-.77-3.4-.37-6.89-2-10.31-2.59-2.3-.4-4.73-.72-6,1.67-1.1,2.12.2,3.7,1.79,5.11a55.21,55.21,0,0,0,9.76,6.87l1.93-3c-4.22-1.86-8.76-3.62-13.41-3.78-1,0-2.19,1.84-1,2.28Z"></path><path d="M47.12,267.55c.29-2.94-3-2.05-4-.3a8.63,8.63,0,0,0,1.09,9.4c2.81,3.12,5.93-.95,7.68-3.16.43-.54,1.29-2.41,1.87-2.64,1.77-.7,2,1.72,2.08,2.72.27,2.43-.27,4.76-.53,7.16-.15,1.43,1.65.73,2.07,0A12.52,12.52,0,0,0,59,272.93c-.19-1.84-.74-5.43-3.05-5.84-2.08-.37-3.53,1.69-4.56,3.11s-3.05,5.13-5.21,3.19a5.3,5.3,0,0,1-1-2.42L45,269.64c-.35-.94-.12-1.43.7-1.45.11,1.19,1.36.05,1.42-.64Z"></path><path class="cls-2" d="M884.94,752.35c4,1.09,8.44,1.25,12.57,1.53,8.31.58,16.64.85,25,1.15,18.61.65,37.25,1,55.87,1.11,5.13,0,12-.38,16.23-.31,2.62,0,6.17-5.64,2.66-6.32-12.19-2.36-25.12-1.85-37.47-2.22q-27.93-.82-55.88-1.26c-5.24-.1-10.95.48-16.14-.37-3-.49-6.32,5.73-2.81,6.69Z"></path><path class="cls-2" d="M69.58,265.25c-1.6,6.62-1.25,14.21-1.52,20.95-.57,14.09-.83,28.18-1.11,42.27-.63,31.81-.94,63.62-1.14,95.43,0,8,1,16.54.17,24.54-.18,1.7,1.4,2.14,2.69,1.76,1.66-.5,2.54-2.62,2.7-4.15-.14,1.41.16-1.6.2-2.1q.2-2.26.33-4.53c.3-4.63.5-9.28.66-13.92.5-14.29.63-28.6.87-42.91.53-31.47.89-62.94,1.28-94.41.07-5.49.17-11,.18-16.46,0-1.77,0-3.55.08-5.32,0-.58,0-1.15.09-1.73.08-1.12-.11.49,0-.29.93-4.83-4.75-2.35-5.52.87Z"></path></g></svg> 